<svg width="167" height="404" viewBox="0 0 167 404" fill="none" xmlns="http://www.w3.org/2000/svg">
<path d="M15.1328 128.674V161.322C17.2821 161.322 28.8688 161.099 38.177 151.718C47.4568 142.37 47.6144 130.832 47.6063 128.674" stroke="#282828" stroke-width="1.105" stroke-miterlimit="10" stroke-linecap="round" stroke-linejoin="round"/>
<path d="M87.0643 120.643H60.6992C60.8406 117.164 61.6607 110.317 66.4603 104.232C67.3612 103.089 68.7348 101.554 70.6497 100.043C76.738 95.2433 83.5818 94.4231 87.0602 94.2817" stroke="#282828" stroke-width="1.105" stroke-miterlimit="10" stroke-linecap="round" stroke-linejoin="round"/>
<path d="M153.931 350.228H91.9531V358.433H153.931V350.228Z" stroke="#282828" stroke-width="1.105" stroke-miterlimit="10" stroke-linecap="round" stroke-linejoin="round"/>
<path d="M150.618 361.576H95.2695V380.609H150.618V361.576Z" stroke="#282828" stroke-width="1.105" stroke-miterlimit="10" stroke-linecap="round" stroke-linejoin="round"/>
<path d="M44.8134 36.6631C44.7649 33.7139 45.0558 29.1932 46.9102 24.0947C47.3627 22.8504 49.1766 18.0751 53.3701 13.0938C55.3417 10.7506 57.1435 9.19517 57.9111 8.55281C59.3736 7.32869 63.1752 4.35929 68.912 2.26657C73.9863 0.416254 78.4747 0.0203337 81.4805 -0.00390625C81.4805 12.2171 81.4805 24.4381 81.4805 36.6591" stroke="#282828" stroke-width="1.105" stroke-miterlimit="10" stroke-linecap="round" stroke-linejoin="round"/>
<path d="M128.15 403.127V380.604H127.277V403.127H128.15Z" stroke="#282828" stroke-width="1.105" stroke-miterlimit="10" stroke-linecap="round" stroke-linejoin="round"/>
<path d="M139.384 403.127V380.604H138.512V403.127H139.384Z" stroke="#282828" stroke-width="1.105" stroke-miterlimit="10" stroke-linecap="round" stroke-linejoin="round"/>
<path d="M116.92 380.604H116.043V404H150.613V380.604H149.741V403.127H116.92V380.604Z" stroke="#282828" stroke-width="1.105" stroke-miterlimit="10" stroke-linecap="round" stroke-linejoin="round"/>
<path d="M90.3828 45.0464V69.6621H107.577V45.0464H90.3828Z" fill="white" stroke="#282828" stroke-width="0.56" stroke-miterlimit="10" stroke-linecap="round" stroke-linejoin="round"/>
<path d="M92.3945 46.9653H105.379V57.2673H92.3945V46.9653Z" fill="white" stroke="#282828" stroke-width="0.56" stroke-miterlimit="10" stroke-linecap="round" stroke-linejoin="round"/>
<path d="M92.3945 67.5656V59.3604H105.379V67.5656H92.3945Z" fill="white" stroke="#282828" stroke-width="0.56" stroke-miterlimit="10" stroke-linecap="round" stroke-linejoin="round"/>
<path d="M107.578 45.0464V69.6621H124.954V45.0464H107.578Z" fill="white" stroke="#282828" stroke-width="0.56" stroke-miterlimit="10" stroke-linecap="round" stroke-linejoin="round"/>
<path d="M109.77 46.9653H122.754V57.2673H109.77V46.9653Z" fill="white" stroke="#282828" stroke-width="0.56" stroke-miterlimit="10" stroke-linecap="round" stroke-linejoin="round"/>
<path d="M109.77 67.5656V59.3604H122.754V67.5656H109.77Z" fill="white" stroke="#282828" stroke-width="0.56" stroke-miterlimit="10" stroke-linecap="round" stroke-linejoin="round"/>
<path d="M9.54297 207.414H11.563" stroke="#282828" stroke-width="1.105" stroke-linecap="round" stroke-linejoin="round"/>
<path d="M15.6875 207.414H153.864" stroke="#282828" stroke-width="1.105" stroke-linecap="round" stroke-linejoin="round" stroke-dasharray="10.21 10.21"/>
<path d="M155.922 207.414H157.942" stroke="#282828" stroke-width="1.105" stroke-linecap="round" stroke-linejoin="round"/>
<path d="M157.947 144.038V153.815H90.3821V122.913H87.0653V125.357H50.0508V128.674H87.0653V158.005H157.947V284.23H166.326V144.038H157.947Z" fill="#282828"/>
<path d="M42.5417 36.6631H9.54297V45.0421H42.5417V36.6631Z" fill="#282828"/>
<path d="M133.329 61.4566V36.6631H83.7461V45.0461H87.0629V92.007H90.3798V45.0461H124.95V69.6618H166.324V61.4566H133.329Z" fill="#282828"/>
<path d="M12.8619 125.357H9.54509V111.04H1.33984V284.23H9.54509V128.674H12.8619V125.357Z" fill="#282828"/>
<g opacity="0.8">
<path opacity="0.8" d="M133.159 205.741C132.791 205.741 132.492 205.224 132.492 204.59V193.718C132.492 193.088 132.791 192.567 133.159 192.567" stroke="#282828" stroke-width="0.553" stroke-miterlimit="10" stroke-linecap="round" stroke-linejoin="round"/>
<path opacity="0.8" d="M157.949 190.894H133.172V207.414H157.949V190.894Z" stroke="#282828" stroke-width="0.553" stroke-miterlimit="10" stroke-linecap="round" stroke-linejoin="round"/>
<path opacity="0.8" d="M155.879 194.635V203.677C155.879 204.816 154.954 205.741 153.814 205.741H137.295C136.156 205.741 135.23 204.816 135.23 203.677V194.635C135.23 193.496 136.156 192.571 137.295 192.571H153.814C154.954 192.567 155.879 193.492 155.879 194.635Z" stroke="#282828" stroke-width="0.553" stroke-miterlimit="10" stroke-linecap="round" stroke-linejoin="round"/>
<path opacity="0.8" d="M149.635 195.076C151.885 195.076 153.711 196.902 153.711 199.152C153.711 201.402 151.885 203.228 149.635 203.228C147.381 203.228 145.555 201.402 145.555 199.152C145.559 196.902 147.381 195.076 149.635 195.076Z" stroke="#282828" stroke-width="0.553" stroke-miterlimit="10" stroke-linecap="round" stroke-linejoin="round"/>
<path opacity="0.8" d="M140.566 195.993C142.315 195.993 143.733 197.411 143.733 199.156C143.733 200.905 142.315 202.323 140.566 202.323C138.82 202.323 137.402 200.905 137.402 199.156C137.402 197.407 138.82 195.993 140.566 195.993Z" stroke="#282828" stroke-width="0.553" stroke-miterlimit="10" stroke-linecap="round" stroke-linejoin="round"/>
</g>
<g opacity="0.8">
<path opacity="0.8" d="M118.649 153.815V140.362C118.649 137.805 116.451 135.478 113.021 134.415L111.95 134.08C107.935 132.835 103.317 132.864 99.3333 134.161C95.9963 135.247 93.8672 137.538 93.8672 140.055V153.811H118.649V153.815Z" stroke="#282828" stroke-width="0.553" stroke-miterlimit="10" stroke-linecap="round" stroke-linejoin="round"/>
<path opacity="0.8" d="M107.763 148.987H116.469V140.709C116.469 138.718 114.655 136.908 111.831 136.08L110.95 135.821C107.642 134.851 103.832 134.876 100.551 135.882C97.8002 136.726 96.0469 138.512 96.0469 140.467V148.983H103.085" stroke="#282828" stroke-width="0.553" stroke-miterlimit="10" stroke-linecap="round" stroke-linejoin="round"/>
<path opacity="0.8" d="M104.554 151.428L104.509 151.981C104.437 152.858 105.099 153.69 106.065 153.803C106.129 153.811 106.194 153.815 106.259 153.815C106.323 153.815 106.388 153.811 106.453 153.803C107.418 153.69 108.081 152.858 108.008 151.981L107.224 142.455C107.224 142.152 106.954 141.905 106.614 141.905H105.899C105.564 141.905 105.293 142.152 105.293 142.455L104.889 147.355" stroke="#282828" stroke-width="0.553" stroke-miterlimit="10" stroke-linecap="round" stroke-linejoin="round"/>
<path opacity="0.8" d="M102.718 146.778L103.353 146.398C103.741 146.163 104.25 146.289 104.484 146.681L107.377 151.48C107.611 151.872 107.486 152.381 107.094 152.615L106.459 152.995C106.072 153.229 105.563 153.104 105.324 152.712L102.436 147.909C102.205 147.525 102.331 147.012 102.718 146.778Z" stroke="#282828" stroke-width="0.553" stroke-miterlimit="10" stroke-linecap="round" stroke-linejoin="round"/>
<path opacity="0.8" d="M105.02 138.54C105.02 137.857 105.573 137.304 106.26 137.304C106.943 137.304 107.496 137.857 107.496 138.54C107.496 139.223 106.943 139.776 106.26 139.776C105.573 139.776 105.02 139.223 105.02 138.54Z" stroke="#282828" stroke-width="0.553" stroke-miterlimit="10" stroke-linecap="round" stroke-linejoin="round"/>
</g>
<g opacity="0.8">
<path opacity="0.8" d="M144.335 116.654H157.945V153.818H120.781V140.203H122.527V151.899H149.134L156.2 145.059V118.621H144.335V116.654Z" stroke="#282828" stroke-width="0.553" stroke-miterlimit="10" stroke-linecap="round" stroke-linejoin="round"/>
<path opacity="0.8" d="M120.781 140.2C120.781 127.192 131.326 116.647 144.335 116.647" stroke="#282828" stroke-width="0.553" stroke-miterlimit="10" stroke-linecap="round" stroke-linejoin="round"/>
<g opacity="0.8">
<path opacity="0.8" d="M148.4 143.162L151.022 145.784L151.135 145.897L152.299 147.06C152.299 147.06 152.82 147.618 152.327 148.111C151.834 148.599 151.281 148.078 151.281 148.078L150.117 146.915L150.004 146.802L147.382 144.18C147.382 144.18 146.861 143.622 147.35 143.129C147.843 142.641 148.4 143.162 148.4 143.162Z" stroke="#282828" stroke-width="0.553" stroke-miterlimit="10" stroke-linecap="round" stroke-linejoin="round"/>
<path opacity="0.8" d="M143.811 136.887C142.934 136.015 141.475 136.015 140.603 136.887C139.726 137.764 139.726 139.222 140.603 140.095C141.475 140.972 142.934 140.972 143.811 140.095C144.691 139.222 144.691 137.768 143.811 136.887Z" stroke="#282828" stroke-width="0.553" stroke-miterlimit="10" stroke-linecap="round" stroke-linejoin="round"/>
<path opacity="0.8" d="M152.329 148.111C152.818 147.622 152.301 147.06 152.301 147.06L151.392 146.147C152.135 145.452 152.903 144.838 153.581 144.426C153.917 144.224 154.264 144.034 154.62 143.865C154.874 143.743 155.157 143.788 155.335 143.962C155.626 144.325 155.913 144.689 156.203 145.048C155.799 145.44 155.395 145.832 154.987 146.224C154.975 146.208 154.951 146.179 154.915 146.159C154.668 146.022 154.196 146.373 153.994 146.571C152.374 148.191 151.828 148.765 150.883 149.678C150.717 149.84 150.248 150.28 150.366 150.547C150.382 150.587 150.41 150.615 150.43 150.632C149.998 151.052 149.566 151.468 149.133 151.888C148.822 151.597 148.576 151.31 148.269 151.019C148.095 150.846 148.051 150.571 148.164 150.325C148.342 149.945 148.544 149.577 148.762 149.218C149.154 148.579 149.723 147.86 150.374 147.161L151.283 148.07C151.283 148.078 151.84 148.599 152.329 148.111Z" stroke="#282828" stroke-width="0.553" stroke-miterlimit="10" stroke-linecap="round" stroke-linejoin="round"/>
<path opacity="0.8" d="M145.246 141.02C146.705 139.562 149.068 139.562 150.526 141.02C151.811 142.305 151.961 144.289 150.983 145.739L148.405 143.162C148.405 143.162 147.848 142.64 147.355 143.129C146.862 143.622 147.387 144.18 147.387 144.18L149.965 146.757C148.515 147.735 146.531 147.581 145.246 146.301C143.788 144.842 143.788 142.479 145.246 141.02Z" stroke="#282828" stroke-width="0.553" stroke-miterlimit="10" stroke-linecap="round" stroke-linejoin="round"/>
</g>
</g>
<g opacity="0.8">
<path opacity="0.8" d="M133.277 74.5225V88.2787C133.277 89.7775 133.653 91.2602 134.413 92.5894C135.495 94.4841 137.58 96.5041 141.535 96.5041C145.494 96.5041 147.575 94.4841 148.662 92.5894C149.421 91.2602 149.793 89.7775 149.793 88.2787V74.5225" stroke="#282828" stroke-width="0.553" stroke-miterlimit="10" stroke-linecap="round" stroke-linejoin="round"/>
<path opacity="0.8" d="M135.835 79.2368C135.136 79.2368 134.57 79.762 134.57 80.4125V87.8218C134.57 89.1671 134.885 90.5003 135.528 91.7002C136.441 93.4051 138.198 95.2191 141.535 95.2191C144.868 95.2191 146.626 93.4051 147.543 91.7002C148.185 90.5044 148.5 89.1712 148.5 87.8218V80.4125C148.5 79.762 147.935 79.2368 147.236 79.2368H135.835Z" stroke="#282828" stroke-width="0.553" stroke-miterlimit="10" stroke-linecap="round" stroke-linejoin="round"/>
<path opacity="0.8" d="M139.864 87.7129C139.658 87.7129 139.492 87.8664 139.492 88.0563V90.2338C139.492 90.6298 139.585 91.0216 139.775 91.3731C140.042 91.87 140.559 92.4073 141.536 92.4073C142.518 92.4073 143.035 91.8741 143.302 91.3731C143.492 91.0216 143.585 90.6298 143.585 90.2338V88.0563C143.585 87.8664 143.419 87.7129 143.213 87.7129H139.864Z" stroke="#282828" stroke-width="0.553" stroke-miterlimit="10" stroke-linecap="round" stroke-linejoin="round"/>
<path opacity="0.8" d="M139.073 77.8151C139.073 78.1666 138.766 78.4534 138.382 78.4534C138.006 78.4534 137.699 78.1706 137.699 77.8151C137.699 77.4636 138.006 77.1768 138.382 77.1768C138.766 77.1728 139.073 77.4596 139.073 77.8151Z" stroke="#282828" stroke-width="0.553" stroke-miterlimit="10" stroke-linecap="round" stroke-linejoin="round"/>
<path opacity="0.8" d="M145.37 77.8151C145.37 78.1666 145.063 78.4534 144.683 78.4534C144.307 78.4534 144 78.1706 144 77.8151C144 77.4636 144.307 77.1768 144.683 77.1768C145.063 77.1728 145.37 77.4596 145.37 77.8151Z" stroke="#282828" stroke-width="0.553" stroke-miterlimit="10" stroke-linecap="round" stroke-linejoin="round"/>
<path opacity="0.8" d="M148.969 76.1301H134.102C133.645 76.1301 133.277 75.7584 133.277 75.306V70.4863C133.277 70.0298 133.645 69.6621 134.102 69.6621H148.969C149.425 69.6621 149.793 70.0338 149.793 70.4863V75.306C149.793 75.7584 149.425 76.1301 148.969 76.1301Z" stroke="#282828" stroke-width="0.553" stroke-miterlimit="10" stroke-linecap="round" stroke-linejoin="round"/>
<path opacity="0.8" d="M142.773 72.8941C142.773 73.5809 142.22 74.1344 141.533 74.1344C140.846 74.1344 140.297 73.5809 140.297 72.8941C140.297 72.2113 140.85 71.6538 141.533 71.6538C142.216 71.6538 142.773 72.2113 142.773 72.8941Z" stroke="#282828" stroke-width="0.553" stroke-miterlimit="10" stroke-linecap="round" stroke-linejoin="round"/>
</g>
<g opacity="0.8">
<path opacity="0.8" d="M149.777 158.005H116.742V182.782H149.777V158.005Z" stroke="#282828" stroke-width="0.553" stroke-miterlimit="10" stroke-linecap="round" stroke-linejoin="round"/>
<path opacity="0.8" d="M145.395 180.762H121.135C119.995 180.762 119.07 179.837 119.07 178.698V162.178C119.07 161.039 119.995 160.114 121.135 160.114H145.395C146.534 160.114 147.459 161.039 147.459 162.178V178.698C147.455 179.837 146.534 180.762 145.395 180.762Z" stroke="#282828" stroke-width="0.553" stroke-miterlimit="10" stroke-linecap="round" stroke-linejoin="round"/>
<path opacity="0.8" d="M129.434 170.44C129.434 171.26 128.771 171.918 127.955 171.918C127.139 171.918 126.477 171.256 126.477 170.44C126.477 169.624 127.139 168.961 127.955 168.961C128.775 168.961 129.434 169.624 129.434 170.44Z" stroke="#282828" stroke-width="0.553" stroke-miterlimit="10" stroke-linecap="round" stroke-linejoin="round"/>
<path opacity="0.8" d="M137.746 177.441H145.648" stroke="#282828" stroke-width="0.553" stroke-miterlimit="10" stroke-linecap="round" stroke-linejoin="round"/>
<path opacity="0.8" d="M137.746 175.482H145.648" stroke="#282828" stroke-width="0.553" stroke-miterlimit="10" stroke-linecap="round" stroke-linejoin="round"/>
<path opacity="0.8" d="M137.746 173.522H145.648" stroke="#282828" stroke-width="0.553" stroke-miterlimit="10" stroke-linecap="round" stroke-linejoin="round"/>
<path opacity="0.8" d="M137.746 171.563H145.648" stroke="#282828" stroke-width="0.553" stroke-miterlimit="10" stroke-linecap="round" stroke-linejoin="round"/>
<path opacity="0.8" d="M137.746 169.604H145.648" stroke="#282828" stroke-width="0.553" stroke-miterlimit="10" stroke-linecap="round" stroke-linejoin="round"/>
<path opacity="0.8" d="M137.746 167.644H145.648" stroke="#282828" stroke-width="0.553" stroke-miterlimit="10" stroke-linecap="round" stroke-linejoin="round"/>
<path opacity="0.8" d="M137.768 163.43L138.119 163.131C138.58 162.74 138.665 162.008 138.248 161.479C138.22 161.443 138.192 161.41 138.16 161.378C138.131 161.346 138.095 161.313 138.059 161.285C137.533 160.869 136.802 160.954 136.406 161.414L132.132 166.456C131.982 166.602 131.995 166.856 132.16 167.022L132.512 167.373C132.677 167.535 132.932 167.551 133.077 167.402L135.61 165.256" stroke="#282828" stroke-width="0.553" stroke-miterlimit="10" stroke-linecap="round" stroke-linejoin="round"/>
<path opacity="0.8" d="M136.165 166.448C135.725 166.339 135.454 165.891 135.563 165.446L136.375 162.182C136.484 161.742 136.933 161.471 137.373 161.58C137.813 161.689 138.084 162.138 137.975 162.582L137.167 165.846C137.054 166.287 136.606 166.557 136.165 166.448Z" stroke="#282828" stroke-width="0.553" stroke-miterlimit="10" stroke-linecap="round" stroke-linejoin="round"/>
<path opacity="0.8" d="M135.925 166.343V177.801C135.925 178.94 135 179.865 133.861 179.865H121.967C120.827 179.865 119.902 178.94 119.902 177.801V163.083C119.902 161.944 120.827 161.019 121.967 161.019H133.861C134.689 161.019 135.404 161.507 135.731 162.214" stroke="#282828" stroke-width="0.553" stroke-miterlimit="10" stroke-linecap="round" stroke-linejoin="round"/>
</g>
<path d="M1.33984 111.039H9.54509V36.6631H1.33984V111.039Z" fill="#282828" stroke="#282828" stroke-width="1.12" stroke-miterlimit="10" stroke-linecap="round" stroke-linejoin="round"/>
<path d="M166.325 379.033V284.23H157.946V350.228H153.93V358.433H151.837V361.576H150.617V379.033H166.325Z" fill="#282828" stroke="#282828" stroke-width="1.12" stroke-miterlimit="10" stroke-linecap="round" stroke-linejoin="round"/>
<path d="M157.945 144.038H166.324V69.6616H157.945V144.038Z" fill="#282828" stroke="#282828" stroke-width="1.12" stroke-miterlimit="10" stroke-linecap="round" stroke-linejoin="round"/>
<path d="M94.0498 361.576V358.433H91.953V350.228H9.54508V284.23H1.33984V379.033H95.2699V361.576H94.0498Z" fill="#282828" stroke="#282828" stroke-width="1.12" stroke-miterlimit="10" stroke-linecap="round" stroke-linejoin="round"/>
<path d="M1.33984 111.039H9.54509V36.6631H1.33984V111.039Z" fill="#282828" stroke="#282828" stroke-width="1.12" stroke-miterlimit="10" stroke-linecap="round" stroke-linejoin="round"/>
<path d="M157.945 144.039H166.324V69.6621H157.945V144.039Z" fill="#282828" stroke="#282828" stroke-width="1.12" stroke-miterlimit="10" stroke-linecap="round" stroke-linejoin="round"/>
<path d="M99.8743 329.705L98.6664 330.912C98.5654 331.013 98.4442 331.062 98.2988 331.062C97.9473 331.062 97.7695 330.888 97.7695 330.537C97.7695 330.391 97.818 330.27 97.923 330.169L99.9793 328.113C100.117 327.975 100.258 327.907 100.404 327.907C100.755 327.907 100.929 328.08 100.929 328.432V337.902C100.929 338.253 100.755 338.427 100.404 338.427C100.052 338.427 99.8784 338.253 99.8784 337.902V329.705H99.8743Z" fill="#282828"/>
<path d="M105.681 327.907C106.408 327.907 107.03 328.161 107.543 328.674C108.056 329.187 108.311 329.81 108.311 330.537C108.311 331.038 108.149 331.543 107.834 332.052L104.517 337.376H107.786C108.137 337.376 108.311 337.55 108.311 337.902C108.311 338.253 108.137 338.427 107.786 338.427H103.576C103.224 338.427 103.051 338.253 103.051 337.902C103.051 337.797 103.079 337.696 103.14 337.599L106.998 331.405C107.176 331.123 107.26 330.836 107.26 330.537C107.26 330.1 107.107 329.729 106.8 329.422C106.493 329.115 106.121 328.961 105.685 328.961C105.091 328.961 104.538 329.402 104.037 330.286C103.94 330.456 103.79 330.541 103.584 330.541C103.233 330.541 103.059 330.367 103.059 330.016C103.059 329.935 103.075 329.862 103.107 329.801C103.75 328.537 104.61 327.907 105.681 327.907Z" fill="#282828"/>
<path d="M111.089 337.376C111.441 337.376 111.615 337.55 111.615 337.894C111.615 337.942 111.433 338.689 111.073 340.132C111.009 340.398 110.839 340.532 110.564 340.532C110.213 340.532 110.039 340.358 110.039 340.006C110.039 339.768 110.221 339.025 110.58 337.772C110.653 337.51 110.823 337.376 111.089 337.376Z" fill="#282828"/>
<path d="M112.93 335.801C112.93 335.74 112.934 335.696 112.946 335.655L115.051 328.291C115.123 328.036 115.293 327.907 115.56 327.907C115.911 327.907 116.085 328.084 116.085 328.436C116.085 328.484 116.077 328.533 116.065 328.59L114.146 335.276H116.61V333.696C116.61 333.345 116.784 333.171 117.135 333.171C117.487 333.171 117.661 333.345 117.661 333.696V335.276H118.711C119.062 335.276 119.236 335.449 119.236 335.801C119.236 336.152 119.062 336.326 118.711 336.326H117.661V337.906C117.661 338.257 117.487 338.431 117.135 338.431C116.784 338.431 116.61 338.257 116.61 337.906V336.326H113.455C113.107 336.326 112.93 336.148 112.93 335.801Z" fill="#282828"/>
<path d="M124.829 327.907C125.18 327.907 125.354 328.08 125.354 328.432C125.354 328.69 125.265 328.844 125.091 328.884C124.312 329.082 123.629 329.547 123.043 330.286C122.578 330.872 122.312 331.478 122.239 332.112H123.778C124.522 332.112 125.148 332.367 125.653 332.876C126.158 333.385 126.412 334.007 126.412 334.742V335.797C126.412 336.532 126.154 337.15 125.645 337.663C125.132 338.172 124.51 338.427 123.782 338.427C123.047 338.427 122.429 338.172 121.916 337.667C121.407 337.158 121.152 336.54 121.152 335.813V332.642C121.152 331.45 121.548 330.407 122.34 329.511C122.958 328.816 123.629 328.319 124.356 328.028C124.554 327.947 124.716 327.907 124.829 327.907ZM122.195 333.167V335.797C122.195 336.237 122.348 336.613 122.651 336.916C122.954 337.219 123.33 337.372 123.77 337.372C124.211 337.372 124.586 337.219 124.889 336.912C125.196 336.605 125.346 336.233 125.346 335.797V334.742C125.346 334.302 125.192 333.926 124.885 333.623C124.578 333.316 124.207 333.167 123.77 333.167H122.195Z" fill="#282828"/>
<path d="M24.4766 192.898V188.688C24.4766 188.337 24.6503 188.163 25.0018 188.163H28.6863C29.0378 188.163 29.2115 188.337 29.2115 188.688C29.2115 189.04 29.0378 189.213 28.6863 189.213H25.531V192.369H27.1107C27.8379 192.369 28.46 192.627 28.9731 193.14C29.4862 193.657 29.7407 194.276 29.7407 194.999V196.053C29.7407 196.78 29.4822 197.403 28.9691 197.916C28.456 198.429 27.8338 198.683 27.1107 198.683H25.0058C24.6543 198.683 24.4806 198.51 24.4806 198.158C24.4806 197.807 24.6543 197.633 25.0058 197.633H27.1107C27.551 197.633 27.9268 197.479 28.2298 197.176C28.5368 196.869 28.6863 196.498 28.6863 196.057V195.003C28.6863 194.566 28.5328 194.195 28.2257 193.888C27.9187 193.581 27.547 193.427 27.1107 193.427H25.0058C24.6543 193.423 24.4766 193.249 24.4766 192.898Z" fill="#282828"/>
<path d="M32.3121 197.633C32.6636 197.633 32.8373 197.807 32.8373 198.15C32.8373 198.198 32.6555 198.946 32.2959 200.388C32.2313 200.655 32.0616 200.788 31.7869 200.788C31.4354 200.788 31.2617 200.614 31.2617 200.263C31.2617 200.025 31.4435 199.281 31.8031 198.029C31.8758 197.766 32.0455 197.633 32.3121 197.633Z" fill="#282828"/>
<path d="M38.1842 188.163C38.5357 188.163 38.7094 188.337 38.7094 188.688C38.7094 188.947 38.6205 189.1 38.4468 189.141C37.6671 189.339 36.9843 189.803 36.3985 190.543C35.9339 191.128 35.6673 191.734 35.5946 192.369H37.1338C37.8772 192.369 38.5034 192.623 39.0084 193.132C39.5134 193.641 39.7679 194.263 39.7679 194.999V196.053C39.7679 196.788 39.5093 197.407 39.0003 197.92C38.4872 198.429 37.8651 198.683 37.1379 198.683C36.4026 198.683 35.7845 198.429 35.2714 197.924C34.7623 197.415 34.5078 196.797 34.5078 196.069V192.898C34.5078 191.706 34.9037 190.664 35.6956 189.767C36.3137 189.072 36.9843 188.575 37.7115 188.284C37.9135 188.199 38.0751 188.163 38.1842 188.163ZM35.5542 193.423V196.053C35.5542 196.494 35.7077 196.869 36.0107 197.172C36.3137 197.475 36.6894 197.629 37.1298 197.629C37.5701 197.629 37.9459 197.475 38.2489 197.168C38.5559 196.861 38.7054 196.49 38.7054 196.053V194.999C38.7054 194.558 38.5519 194.183 38.2448 193.88C37.9378 193.573 37.5661 193.423 37.1298 193.423H35.5542Z" fill="#282828"/>
<path d="M41.582 192.898V188.688C41.582 188.337 41.7557 188.163 42.1072 188.163H45.7917C46.1432 188.163 46.3169 188.337 46.3169 188.688C46.3169 189.04 46.1432 189.213 45.7917 189.213H42.6365V192.369H44.2161C44.9433 192.369 45.5655 192.627 46.0786 193.14C46.5917 193.657 46.8462 194.276 46.8462 194.999V196.053C46.8462 196.78 46.5876 197.403 46.0745 197.916C45.5614 198.429 44.9393 198.683 44.2161 198.683H42.1113C41.7598 198.683 41.5861 198.51 41.5861 198.158C41.5861 197.807 41.7598 197.633 42.1113 197.633H44.2161C44.6565 197.633 45.0322 197.479 45.3352 197.176C45.6423 196.869 45.7917 196.498 45.7917 196.057V195.003C45.7917 194.566 45.6382 194.195 45.3312 193.888C45.0241 193.581 44.6524 193.427 44.2161 193.427H42.1113C41.7558 193.423 41.582 193.249 41.582 192.898Z" fill="#282828"/>
<path d="M27.4035 66.4903H26.3531C26.0016 66.4903 25.8279 66.3166 25.8279 65.9651C25.8279 65.6136 26.0016 65.4399 26.3531 65.4399H27.4035C27.8438 65.4399 28.2195 65.2864 28.5225 64.9834C28.8296 64.6763 28.9791 64.3046 28.9791 63.8643C28.9791 63.428 28.8255 63.0563 28.5185 62.7492C28.2115 62.4422 27.8398 62.2887 27.4035 62.2887H25.2986C24.9472 62.2887 24.7734 62.115 24.7734 61.7635C24.7734 61.412 24.9472 61.2383 25.2986 61.2383H27.4035C28.1307 61.2383 28.7528 61.4968 29.2659 62.0099C29.779 62.527 30.0335 63.1452 30.0335 63.8683C30.0335 64.741 29.682 65.4399 28.9831 65.9732C29.6861 66.5064 30.0335 67.2054 30.0335 68.078V69.1284C30.0335 69.8556 29.7749 70.4778 29.2619 70.9908C28.7488 71.5039 28.1266 71.7584 27.4035 71.7584H25.2986C24.9472 71.7584 24.7734 71.5847 24.7734 71.2332C24.7734 70.8818 24.9472 70.708 25.2986 70.708H27.4035C27.8438 70.708 28.2195 70.5545 28.5225 70.2515C28.8296 69.9445 28.9791 69.5728 28.9791 69.1324V68.082C28.9791 67.6457 28.8255 67.274 28.5185 66.967C28.2074 66.6438 27.8357 66.4903 27.4035 66.4903Z" fill="#282828"/>
<path d="M32.6012 70.6963C32.9527 70.6963 33.1264 70.87 33.1264 71.2134C33.1264 71.2619 32.9446 72.0093 32.5851 73.4556C32.5204 73.7222 32.3507 73.8556 32.076 73.8556C31.7245 73.8556 31.5508 73.6818 31.5508 73.3304C31.5508 73.092 31.7326 72.3486 32.0922 71.0962C32.1649 70.8296 32.3346 70.6963 32.6012 70.6963Z" fill="#282828"/>
<path d="M38.4771 61.2266C38.8286 61.2266 39.0023 61.4003 39.0023 61.7518C39.0023 62.0103 38.9135 62.1638 38.7397 62.2042C37.96 62.4022 37.2773 62.8708 36.6915 63.6061C36.2269 64.1919 35.9602 64.7979 35.8875 65.4322H37.4267C38.1701 65.4322 38.7963 65.6867 39.3013 66.1958C39.8063 66.7048 40.0608 67.327 40.0608 68.0622V69.1126C40.0608 69.8479 39.8022 70.466 39.2932 70.9791C38.7801 71.4882 38.158 71.7427 37.4308 71.7427C36.6955 71.7427 36.0774 71.4882 35.5643 70.9832C35.0553 70.4741 34.8008 69.856 34.8008 69.1288V65.9574C34.8008 64.7656 35.1967 63.7233 35.9885 62.8224C36.6066 62.1275 37.2773 61.6306 38.0045 61.3397C38.2065 61.267 38.3681 61.2266 38.4771 61.2266ZM35.8471 66.4866V69.1167C35.8471 69.557 36.0006 69.9328 36.3036 70.2358C36.6107 70.5428 36.9824 70.6923 37.4227 70.6923C37.8631 70.6923 38.2388 70.5388 38.5418 70.2317C38.8488 69.9247 38.9983 69.553 38.9983 69.1167V68.0663C38.9983 67.6259 38.8448 67.2502 38.5377 66.9472C38.2307 66.6402 37.859 66.4907 37.4227 66.4907H35.8471V66.4866Z" fill="#282828"/>
<path d="M44.608 67.0158H44.2161C43.8646 67.0158 43.6869 66.842 43.6869 66.4906C43.6869 66.1391 43.8606 65.9654 44.2121 65.9654H44.8302L45.6584 62.2809H42.1072C41.7558 62.2809 41.582 62.1072 41.582 61.7557C41.582 61.4042 41.7558 61.2305 42.1072 61.2305H46.3169C46.6603 61.2305 46.8381 61.4002 46.8421 61.7395C46.8421 61.7718 46.8381 61.8122 46.8259 61.8688L45.9169 65.9654H46.3169C46.6684 65.9654 46.8461 66.1391 46.8461 66.4906C46.8461 66.842 46.6684 67.0158 46.3169 67.0158H45.6786L44.7251 71.3386C44.6605 71.6133 44.4949 71.7547 44.2242 71.7547C43.8687 71.7547 43.6909 71.581 43.6909 71.2295C43.6909 71.177 43.695 71.1365 43.699 71.1083L44.608 67.0158Z" fill="#282828"/>
<path d="M106.415 101.97H105.365C105.013 101.97 104.84 101.796 104.84 101.445C104.84 101.093 105.013 100.919 105.365 100.919H106.415C106.856 100.919 107.231 100.766 107.534 100.463C107.841 100.156 107.991 99.7841 107.991 99.3438C107.991 98.9075 107.837 98.5358 107.53 98.2287C107.223 97.9217 106.852 97.7682 106.415 97.7682H104.31C103.959 97.7682 103.785 97.5945 103.785 97.243C103.785 96.8915 103.959 96.7178 104.31 96.7178H106.415C107.142 96.7178 107.765 96.9763 108.278 97.4894C108.791 98.0065 109.045 98.6247 109.045 99.3478C109.045 100.22 108.694 100.919 107.995 101.453C108.698 101.986 109.045 102.685 109.045 103.558V104.608C109.045 105.335 108.787 105.957 108.274 106.47C107.761 106.983 107.138 107.238 106.415 107.238H104.31C103.959 107.238 103.785 107.064 103.785 106.713C103.785 106.361 103.959 106.188 104.31 106.188H106.415C106.856 106.188 107.231 106.034 107.534 105.731C107.841 105.424 107.991 105.052 107.991 104.612V103.562C107.991 103.125 107.837 102.754 107.53 102.447C107.223 102.127 106.852 101.97 106.415 101.97Z" fill="#282828"/>
<path d="M111.621 106.179C111.972 106.179 112.146 106.353 112.146 106.697C112.146 106.745 111.964 107.492 111.605 108.939C111.54 109.205 111.37 109.339 111.096 109.339C110.744 109.339 110.57 109.165 110.57 108.814C110.57 108.575 110.752 107.832 111.112 106.579C111.184 106.313 111.354 106.179 111.621 106.179Z" fill="#282828"/>
<path d="M116.704 101.97H115.654C115.302 101.97 115.129 101.796 115.129 101.445C115.129 101.093 115.302 100.919 115.654 100.919H116.704C117.145 100.919 117.52 100.766 117.823 100.463C118.13 100.156 118.28 99.7841 118.28 99.3438C118.28 98.9075 118.126 98.5358 117.819 98.2287C117.512 97.9217 117.141 97.7682 116.704 97.7682H114.599C114.248 97.7682 114.074 97.5945 114.074 97.243C114.074 96.8915 114.248 96.7178 114.599 96.7178H116.704C117.431 96.7178 118.054 96.9763 118.567 97.4894C119.08 98.0065 119.334 98.6247 119.334 99.3478C119.334 100.22 118.983 100.919 118.284 101.453C118.987 101.986 119.334 102.685 119.334 103.557V104.608C119.334 105.335 119.076 105.957 118.563 106.47C118.05 106.983 117.427 107.238 116.704 107.238H114.599C114.248 107.238 114.074 107.064 114.074 106.713C114.074 106.361 114.248 106.188 114.599 106.188H116.704C117.145 106.188 117.52 106.034 117.823 105.731C118.13 105.424 118.28 105.052 118.28 104.612V103.562C118.28 103.125 118.126 102.754 117.819 102.447C117.512 102.127 117.141 101.97 116.704 101.97Z" fill="#282828"/>
<path d="M123.775 101.97H122.724C122.373 101.97 122.199 101.796 122.199 101.445C122.199 101.093 122.373 100.919 122.724 100.919H123.775C124.215 100.919 124.591 100.766 124.894 100.463C125.201 100.156 125.35 99.7841 125.35 99.3438C125.35 98.9075 125.197 98.5358 124.89 98.2287C124.583 97.9217 124.211 97.7682 123.775 97.7682H121.67C121.318 97.7682 121.145 97.5945 121.145 97.243C121.145 96.8915 121.318 96.7178 121.67 96.7178H123.775C124.502 96.7178 125.124 96.9763 125.637 97.4894C126.15 98.0065 126.405 98.6247 126.405 99.3478C126.405 100.22 126.053 100.919 125.354 101.453C126.057 101.986 126.405 102.685 126.405 103.557V104.608C126.405 105.335 126.146 105.957 125.633 106.47C125.12 106.983 124.498 107.238 123.775 107.238H121.67C121.318 107.238 121.145 107.064 121.145 106.713C121.145 106.361 121.318 106.188 121.67 106.188H123.775C124.215 106.188 124.591 106.034 124.894 105.731C125.201 105.424 125.35 105.052 125.35 104.612V103.562C125.35 103.125 125.197 102.754 124.89 102.447C124.583 102.127 124.211 101.97 123.775 101.97Z" fill="#282828"/>
</svg>
