<svg width="97" height="97" viewBox="0 0 97 97" fill="none" xmlns="http://www.w3.org/2000/svg">
<path d="M61.0305 2.42331L66.2172 9.23489L74.7498 8.53157L77.5778 16.6126L85.9101 18.5804L86.1026 27.1398L93.419 31.5861L90.957 39.786L96.5414 46.2756L91.666 53.3134L94.9716 61.2111L88.16 66.3978L88.8633 74.9304L80.7823 77.7584L78.8145 86.0908L70.2551 86.2832L65.8088 93.5996L57.6089 91.1376L51.1193 96.722L44.0815 91.8466L36.1838 95.1522L30.9971 88.3406L22.4645 89.0439L19.6365 80.963L11.3041 78.9951L11.1117 70.4358L3.79528 65.9894L6.25726 57.7895L0.672925 51.2999L5.54832 44.2621L2.2427 36.3644L9.05428 31.1777L8.35096 22.6451L16.4319 19.8171L18.3998 11.4847L26.9591 11.2923L31.4055 3.97589L39.6054 6.43787L46.095 0.853537L53.1328 5.72893L61.0305 2.42331Z" fill="#FEC62E"/>
</svg>
