<svg width="45" height="61" viewBox="0 0 45 61" fill="none" xmlns="http://www.w3.org/2000/svg">
<path d="M36.0075 15.3925L42.7574 11.3991C43.9804 10.6771 44.1636 9.81206 43.6992 9.2267C42.1164 7.23645 40.2327 5.50637 38.1135 4.08848C37.5118 3.68523 36.6877 3.90637 36.328 4.53727L32.2466 11.7828C31.9327 12.3421 32.1093 13.0186 32.6064 13.4088C33.2539 13.9161 33.8491 14.4755 34.3854 15.0934C34.804 15.5682 35.4646 15.7112 36.0075 15.3925Z" fill="#FEC62E"/>
<path d="M29.9021 35.7765C28.8687 36.2448 27.7633 36.583 26.6056 36.7716C25.9712 36.8757 25.4872 37.3895 25.5003 38.0334C25.5591 42.3326 25.7553 57.5521 25.775 58.6513C25.775 58.6773 25.8011 58.6903 25.8207 58.6708C28.2473 56.2903 32.6164 51.9066 36.8155 47.3082C36.822 47.3017 36.8285 47.2822 36.822 47.2757L29.9413 35.7895C29.9348 35.7765 29.9151 35.77 29.9021 35.7765Z" fill="#FEC62E"/>
<path d="M19.4831 11.5617C20.196 11.2755 20.9416 11.0479 21.7069 10.8918C22.3152 10.7682 22.7665 10.2674 22.7599 9.6495C22.7338 7.69177 22.6814 3.53567 22.6487 1.37632C22.6422 0.641365 21.9947 0.0559989 21.2556 0.147056C18.7506 0.465755 16.3567 1.15519 14.146 2.16982C13.4789 2.47551 13.2434 3.30803 13.6227 3.93893L17.9003 11.0609C18.2208 11.6072 18.8944 11.7958 19.4831 11.5617Z" fill="#FEC62E"/>
<path d="M26.269 10.7357C27.0735 10.8462 27.8518 11.0218 28.5974 11.2625C29.1861 11.4576 29.8336 11.243 30.141 10.7031L34.2158 3.47063C34.5821 2.82022 34.3139 1.9877 33.6206 1.70802C31.3445 0.790952 28.9048 0.205586 26.3475 0.00395999C25.6215 -0.0545766 25.0067 0.543797 25.0197 1.27225C25.0459 3.39908 25.1048 7.52266 25.1309 9.5064C25.1375 10.1503 25.6346 10.6511 26.269 10.7357Z" fill="#FEC62E"/>
<path d="M10.1383 25.1357L1.24968 25.2528C0.523675 25.2593 -0.0715176 25.8837 0.00696936 26.5992C0.281674 29.3309 1.00768 32.0496 1.85141 33.9748C2.01493 34.287 2.31579 34.4626 2.52509 34.5276C2.84558 34.6252 3.2511 34.6447 3.65007 34.5276L11.4857 29.8902C12.022 29.5715 12.2182 28.9211 12.0024 28.3358C11.7473 27.6528 11.5445 26.9374 11.4007 26.2024C11.2829 25.591 10.7662 25.1292 10.1383 25.1357Z" fill="#FEC62E"/>
<path d="M14.068 15.5685C14.5389 14.9831 15.0621 14.4433 15.6246 13.949C16.0955 13.5392 16.2329 12.8758 15.9124 12.3424L11.9357 5.6953C11.2163 4.49855 10.3725 4.30993 9.78388 4.7457C7.79554 6.22212 6.04921 7.98473 4.59066 9.98147C4.15244 10.5798 4.36174 11.4254 5.00926 11.7896L11.8638 15.6075C12.9953 16.2319 13.669 16.0628 14.068 15.5685Z" fill="#FEC62E"/>
<path d="M11.3556 21.682C11.4733 20.9471 11.6499 20.2251 11.8854 19.5357C12.0881 18.9503 11.8723 18.2999 11.3294 18.0007L3.79468 13.7991C3.16024 13.4479 2.33613 13.6885 2.03526 14.3519C1.03455 16.5893 0.360874 19.0024 0.0665478 21.5389C-0.0184797 22.2804 0.589794 22.9178 1.33542 22.9048C3.605 22.8723 8.05913 22.8202 10.1194 22.7877C10.7604 22.7812 11.2575 22.2999 11.3556 21.682Z" fill="#FEC62E"/>
<path d="M44.1094 36.2511C42.0884 35.1259 38.0594 32.882 36.228 31.8609C35.6786 31.5552 35.0246 31.7178 34.619 32.1991C34.0958 32.83 33.5137 33.4089 32.8792 33.9292C32.3887 34.3389 32.2317 35.0219 32.5588 35.5682L37.5885 43.9715C38.0332 44.7129 39.0666 44.7975 39.6357 44.1471C41.4736 42.0267 43.1676 39.9519 44.5084 38.0918C44.9466 37.4739 44.77 36.6219 44.1094 36.2511Z" fill="#FEC62E"/>
<path d="M22.0571 36.7519C20.9125 36.5438 19.8202 36.1795 18.7933 35.6982C18.7868 35.6982 18.7802 35.6982 18.7737 35.7047L12.0238 47.6982C12.0173 47.7112 12.0173 47.7243 12.0304 47.7308C16.8508 53.2527 21.8151 58.3779 23.3979 59.9974C23.4175 60.0169 23.4371 60.0039 23.4371 59.9779C23.4241 58.8332 23.2017 42.3454 23.1493 37.9617C23.1363 37.3438 22.6719 36.8625 22.0571 36.7519Z" fill="#FEC62E"/>
<path d="M15.8856 33.8446C15.31 33.3633 14.7737 32.83 14.2897 32.2576C13.8776 31.7698 13.1974 31.6203 12.648 31.9455L4.86469 36.5503C4.2368 36.9211 4.04712 37.7406 4.46572 38.3389C5.78692 40.2186 7.4286 42.2999 9.18802 44.4137C9.75705 45.0967 10.8297 45.0056 11.2614 44.2381C12.6087 41.8446 15.1203 37.3894 16.2061 35.4511C16.5135 34.9048 16.3565 34.2414 15.8856 33.8446Z" fill="#FEC62E"/>
</svg>
