<svg width="24" height="32" viewBox="0 0 24 32" fill="none" xmlns="http://www.w3.org/2000/svg">
<path fill-rule="evenodd" clip-rule="evenodd" d="M11.9358 0C16.5064 0 20.6133 2.56001 22.6668 6.70317C24.4553 10.3411 24.4553 14.3495 22.6006 17.7179C20.9114 20.8505 13.4925 30.0463 13.1613 30.4505L11.9358 32L10.6773 30.4842L10.64 30.4384C9.68379 29.2636 2.77272 20.7727 1.238 17.6842C-0.153052 14.8884 -0.384902 11.52 0.608705 8.42105C1.63543 5.28842 3.72201 2.76211 6.57035 1.31369C8.25948 0.437903 10.048 0 11.9358 0ZM6.57036 12.1936C6.57036 9.16207 8.98815 6.70313 11.969 6.70313C14.9498 6.70313 17.3676 9.16207 17.3676 12.1936C17.3676 15.2252 14.9498 17.6842 11.969 17.6842C8.98815 17.6842 6.57036 15.2252 6.57036 12.1936Z" fill="#29DEEA"/>
</svg>
