<svg width="24" height="24" viewBox="0 0 24 24" fill="none" xmlns="http://www.w3.org/2000/svg">
<path d="M18.3126 13.52C17.3272 15.38 12.9995 20.84 12.8063 21.08V21.08C12.4416 21.5493 11.733 21.5606 11.3573 21.1V21.1C10.8936 20.52 6.75912 15.36 5.85107 13.5C5.03963 11.84 4.90438 9.84 5.48398 8C6.08291 6.14 7.30008 4.64 8.96161 3.78C9.94694 3.26 10.9902 3 12.0915 3C14.7577 3 17.1534 4.52 18.3512 6.98C18.5719 7.43701 18.746 7.90386 18.8729 8.37488" stroke="black" stroke-width="2" stroke-linecap="round"/>
<path d="M18.3126 13.52C17.3272 15.38 12.9995 20.84 12.8063 21.08V21.08C12.4416 21.5493 11.733 21.5606 11.3573 21.1V21.1C10.8936 20.52 6.75912 15.36 5.85107 13.5C5.03963 11.84 4.90438 9.84 5.48398 8C6.08291 6.14 7.30008 4.64 8.96161 3.78C9.94694 3.26 10.9902 3 12.0915 3C14.7577 3 17.1534 4.52 18.3512 6.98C18.5719 7.43701 18.746 7.90386 18.8729 8.37488" stroke="black" stroke-width="2" stroke-linecap="round"/>
<path d="M9.50781 10.005C9.50781 8.57011 10.6719 7.40601 12.1068 7.40601C13.5417 7.40601 14.7058 8.57011 14.7058 10.005C14.7058 11.4399 13.5417 12.604 12.1068 12.604C10.6719 12.604 9.50781 11.4399 9.50781 10.005Z" stroke="black" stroke-width="2"/>
<path d="M9.50781 10.005C9.50781 8.57011 10.6719 7.40601 12.1068 7.40601C13.5417 7.40601 14.7058 8.57011 14.7058 10.005C14.7058 11.4399 13.5417 12.604 12.1068 12.604C10.6719 12.604 9.50781 11.4399 9.50781 10.005Z" stroke="black" stroke-width="2"/>
</svg>
