<svg width="25" height="24" viewBox="0 0 25 24" fill="none" xmlns="http://www.w3.org/2000/svg">
<path d="M12.0045 16.8711L12.0045 15.5309L13.7429 15.5309C13.9986 15.5309 14.2542 15.4278 14.4588 15.2732L15.0723 14.7062L16.2484 15.8402C16.6574 16.201 17.271 16.201 17.6289 15.8402L18.8049 14.7062L19.9809 15.8402C20.1854 16.0464 20.4411 16.0979 20.6968 16.0979C21.0035 16.0979 21.3103 15.9433 21.4637 15.7371L24.2759 12.232C24.5827 11.8196 24.5827 11.2526 24.2248 10.8918L22.333 8.77835C22.1284 8.57216 21.8728 8.46907 21.566 8.46907L12.0045 8.46907L12.0045 7.12886C12.0045 5.68557 10.8285 4.5 9.3968 4.5L3.10768 4.5C1.67601 4.5 0.5 5.68557 0.5 7.12886L0.499999 16.8711C0.499999 18.3144 1.67601 19.5 3.10768 19.5L9.3968 19.5C10.8285 19.5 12.0045 18.3144 12.0045 16.8711ZM21.1569 10.5309L22.1796 11.6134L20.5945 13.5722L19.5207 12.5412C19.1117 12.1804 18.4981 12.1804 18.1402 12.5412L16.9642 13.6753L15.7882 12.5412C15.3791 12.1804 14.7656 12.1804 14.4076 12.5412L13.385 13.4691L12.0045 13.4691L12.0045 10.5309L21.1569 10.5309ZM3.10768 17.4381C2.8009 17.4381 2.54524 17.1804 2.54524 16.8711L2.54524 7.07732C2.54524 6.76804 2.8009 6.51031 3.10768 6.51031L9.3968 6.51031C9.70359 6.51031 9.95924 6.76804 9.95924 7.07732L9.95924 16.8196C9.95924 17.1289 9.70359 17.3866 9.3968 17.3866L3.10768 17.4381ZM5.25519 11.2526C5.10179 11.0464 4.84614 10.9433 4.53935 10.9433C4.23257 10.9433 4.02804 11.0464 3.82352 11.2526C3.61899 11.4588 3.51673 11.7165 3.51673 11.9742C3.51673 12.232 3.61899 12.4897 3.82352 12.6959C4.02804 12.9021 4.2837 13.0052 4.53935 13.0052C4.79501 13.0052 5.05066 12.9021 5.25519 12.6959C5.66424 12.3351 5.66424 11.6134 5.25519 11.2526Z" fill="black"/>
</svg>
