<svg width="24" height="24" viewBox="0 0 24 24" fill="none" xmlns="http://www.w3.org/2000/svg">
<rect x="3" y="1" width="18" height="20" rx="1" stroke="black" stroke-width="2" stroke-linecap="round" stroke-linejoin="round"/>
<path fill-rule="evenodd" clip-rule="evenodd" d="M12 5C12 5 8.00198 10.2626 8.00198 12.518C7.96808 13.6688 8.36986 14.7868 9.11929 15.627C9.86871 16.4671 10.9046 16.9609 12 17C13.0954 16.9609 14.1313 16.4671 14.8807 15.627C15.6301 14.7868 16.0319 13.6688 15.998 12.518C15.998 10.2626 12 5 12 5Z" stroke="black" stroke-width="2" stroke-linejoin="round"/>
<path fill-rule="evenodd" clip-rule="evenodd" d="M11.9995 17C10.8969 17 10 15.9839 10 14.7351C10.057 14.1579 10.8774 12.6618 11.9982 11C13.1207 12.6669 13.9424 14.1716 14 14.7673C13.999 15.9839 13.1021 17 11.9995 17Z" stroke="black" stroke-width="2" stroke-linejoin="round"/>
<rect x="6" y="21" width="2" height="3" fill="black"/>
<rect x="16" y="21" width="2" height="3" fill="black"/>
</svg>
