<svg width="25" height="24" viewBox="0 0 25 24" fill="none" xmlns="http://www.w3.org/2000/svg">
<path d="M21 17.5V19C21 20.6569 19.6569 22 18 22H7C5.34315 22 4 20.6569 4 19V5C4 3.34315 5.34315 2 7 2H18C19.6569 2 21 3.34315 21 5V13.5" stroke="black" stroke-width="2" stroke-linecap="round" stroke-linejoin="round"/>
<mask id="path-2-inside-1_254_26623" fill="white">
<rect x="7" y="2" width="11" height="4" rx="1"/>
</mask>
<rect x="7" y="2" width="11" height="4" rx="1" fill="black" stroke="black" stroke-width="4" stroke-linecap="round" stroke-linejoin="round" mask="url(#path-2-inside-1_254_26623)"/>
<circle cx="8.5" cy="13.5" r="1.5" fill="black"/>
<circle cx="8.5" cy="9.5" r="1.5" fill="black"/>
<circle cx="8.5" cy="17.5" r="1.5" fill="black"/>
<circle cx="12.5" cy="13.5" r="1.5" fill="black"/>
<circle cx="12.5" cy="9.5" r="1.5" fill="black"/>
<circle cx="16.5" cy="13.5" r="1.5" fill="black"/>
<circle cx="16.5" cy="9.5" r="1.5" fill="black"/>
<circle cx="12.5" cy="17.5" r="1.5" fill="black"/>
<circle cx="16.5" cy="17.5" r="1.5" fill="black"/>
</svg>
