<svg width="26" height="25" viewBox="0 0 26 25" fill="none" xmlns="http://www.w3.org/2000/svg">
<path d="M0 10.0483C0.000549038 8.72821 0.256143 7.42112 0.75219 6.2017C1.24824 4.98228 1.97502 3.8744 2.89105 2.94132C3.80707 2.00825 4.8944 1.26825 6.09095 0.763577C7.2875 0.258904 8.56983 -0.000559064 9.86474 9.04452e-07H16.1374C18.7531 9.44189e-07 21.2617 1.05934 23.1113 2.94496C24.9609 4.83059 26 7.38805 26 10.0547C26 12.7214 24.9609 15.2789 23.1113 17.1645C21.2617 19.0501 18.7531 20.1095 16.1374 20.1095H14.4981C13.2436 22.5182 10.9353 24.07 9.29602 24.9141C9.1581 24.9848 9.00289 25.0128 8.84954 24.9946C8.6962 24.9764 8.55143 24.9128 8.43313 24.8117C8.31482 24.7106 8.22815 24.5764 8.18382 24.4256C8.13949 24.2749 8.13944 24.1142 8.18367 23.9634C8.55445 22.6771 8.64016 21.3228 8.43458 19.9986C6.09116 19.6486 3.94951 18.4507 2.40089 16.6237C0.852273 14.7968 7.76433e-05 12.4629 0 10.0483ZM7.30551 6.56531C7.30551 6.82311 7.40596 7.07034 7.58476 7.25262C7.76357 7.43491 8.00608 7.53732 8.25895 7.53732H17.7473C18.0002 7.53732 18.2427 7.43491 18.4215 7.25262C18.6003 7.07034 18.7008 6.82311 18.7008 6.56531C18.7008 6.30752 18.6003 6.06029 18.4215 5.878C18.2427 5.69571 18.0002 5.59331 17.7473 5.59331H8.25895C8.0068 5.5933 7.76492 5.69512 7.58624 5.87649C7.40755 6.05786 7.30661 6.304 7.30551 6.56105V6.56531ZM7.30551 10.0483C7.30551 10.3061 7.40596 10.5534 7.58476 10.7357C7.76357 10.9179 8.00608 11.0203 8.25895 11.0203H17.7473C18.0002 11.0203 18.2427 10.9179 18.4215 10.7357C18.6003 10.5534 18.7008 10.3061 18.7008 10.0483C18.7008 9.79055 18.6003 9.54331 18.4215 9.36103C18.2427 9.17874 18.0002 9.07633 17.7473 9.07633H8.25895C8.13374 9.07633 8.00976 9.10147 7.89408 9.15032C7.77841 9.19917 7.6733 9.27077 7.58476 9.36103C7.49623 9.45128 7.426 9.55844 7.37808 9.67637C7.33017 9.7943 7.30551 9.92069 7.30551 10.0483ZM7.30551 13.5356C7.30881 13.7912 7.41071 14.0352 7.58916 14.2147C7.76761 14.3942 8.00824 14.4949 8.25895 14.4948H14.4354C14.6883 14.4948 14.9308 14.3924 15.1096 14.2102C15.2884 14.0279 15.3888 13.7806 15.3888 13.5228C15.3888 13.265 15.2884 13.0178 15.1096 12.8355C14.9308 12.6532 14.6883 12.5508 14.4354 12.5508H8.25895C8.13303 12.5508 8.00836 12.5762 7.89214 12.6256C7.77591 12.675 7.67043 12.7474 7.58179 12.8385C7.49314 12.9297 7.42309 13.0379 7.37567 13.1568C7.32825 13.2757 7.3044 13.403 7.30551 13.5314V13.5356Z" fill="black"/>
</svg>
