<svg width="20" height="20" viewBox="0 0 20 20" fill="none" xmlns="http://www.w3.org/2000/svg">
<path d="M1.74321 0.299087C1.34443 -0.0996958 0.697871 -0.0996958 0.299087 0.299087C-0.0996958 0.697871 -0.0996958 1.34443 0.299087 1.74321L8.55595 10.0001L0.299242 18.2568C-0.0995416 18.6556 -0.0995416 19.3021 0.299242 19.7009C0.698025 20.0997 1.34458 20.0997 1.74336 19.7009L10.0001 11.4442L18.2568 19.7009C18.6556 20.0997 19.3021 20.0997 19.7009 19.7009C20.0997 19.3021 20.0997 18.6556 19.7009 18.2568L11.4442 10.0001L19.7011 1.74321C20.0998 1.34443 20.0998 0.697871 19.7011 0.299088C19.3023 -0.0996958 18.6557 -0.0996954 18.2569 0.299088L10.0001 8.55595L1.74321 0.299087Z" fill="black"/>
</svg>
