<svg width="64" height="62" viewBox="0 0 64 62" fill="none" xmlns="http://www.w3.org/2000/svg">
<path d="M21.2885 8.84159L22.3756 12.8985L23.0421 12.7199L22.1258 9.30052L23.7776 8.85794L24.6938 12.2773L25.3603 12.0987L24.2732 8.04184L21.2885 8.84159ZM28.1689 8.78076L26.4302 9.24663L25.9845 7.58331L25.318 7.76189L26.4051 11.8188L27.0716 11.6402L26.601 9.88414L28.3397 9.41827L28.8102 11.1743L29.4767 10.9957L28.3897 6.93885L27.7232 7.11743L28.1689 8.78076Z" fill="black"/>
<path opacity="0.3" d="M32.0719 49.4339L33.1589 53.4908L33.8254 53.3123L32.9092 49.8929L34.5609 49.4503L35.4772 52.8697L36.1437 52.6911L35.0566 48.6342L32.0719 49.4339ZM39.1441 47.539L36.5129 48.244L37.0548 50.2666C37.221 50.8868 37.2309 51.3873 37.0756 51.7581L36.6989 51.859L37.0778 53.2731L37.7443 53.0946L37.5362 52.318L39.9993 51.658L40.2074 52.4346L40.8739 52.256L40.495 50.8419L40.0603 50.9583L39.1441 47.539ZM37.8058 51.5624C37.9117 51.1924 37.8859 50.7024 37.7244 50.0996L37.3471 48.6913L38.6453 48.3435L39.3938 51.1369L37.8058 51.5624Z" fill="black"/>
<path opacity="0.3" d="M9.70606 36.8146C9.96622 36.5337 10.0451 36.202 9.94256 35.8195C9.85094 35.4776 9.65469 35.232 9.34803 35.0844C9.04136 34.9367 8.6931 34.912 8.29321 35.0191C7.63831 35.1946 7.25076 35.6028 7.14059 36.2349L7.79707 36.413C7.83833 36.0107 8.06103 35.7522 8.46092 35.6451C8.89559 35.5286 9.19222 35.6852 9.28539 36.0329C9.37857 36.3806 9.17253 36.6781 8.71469 36.8008L8.35536 36.897L8.51686 37.4998L9.00949 37.3678C9.47893 37.242 9.81499 37.4066 9.91282 37.7717C10.0122 38.1427 9.79769 38.4548 9.28768 38.5915C8.80665 38.7204 8.45362 38.5851 8.217 38.1889L7.73175 38.673C8.13708 39.2352 8.71356 39.4162 9.4554 39.2174C9.89006 39.1009 10.2083 38.8976 10.4159 38.606C10.6277 38.307 10.6834 37.9815 10.5886 37.6279C10.4659 37.1701 10.1703 36.9014 9.70606 36.8146ZM12.8039 36.0032L13.4756 33.7113L12.7163 33.9147L12.2552 35.4856L11.0704 34.3557L10.317 34.5576L12.0447 36.2067L11.3287 38.6347L12.0879 38.4313L12.5875 36.7258L13.8729 37.953L14.6321 37.7495L12.8039 36.0032Z" fill="black"/>
<path opacity="0.3" d="M51.8336 27.8618C52.2045 27.7625 52.5232 27.5839 52.7837 27.3277C53.0486 27.0642 53.2283 26.7614 53.3172 26.4208L52.6491 26.2457C52.5476 26.7015 52.1697 27.0761 51.6597 27.2127C51.225 27.3292 50.84 27.2833 50.4946 27.0839C50.1551 26.8829 49.9286 26.5709 49.8152 26.1478C49.7019 25.7248 49.742 25.3413 49.9356 24.9975C50.135 24.6521 50.4455 24.4198 50.8801 24.3034C51.3901 24.1667 51.8989 24.3037 52.2205 24.6461L52.71 24.1547C52.2023 23.6509 51.4422 23.457 50.7062 23.6543C50.0977 23.8173 49.642 24.1568 49.3508 24.6697C49.0581 25.1767 48.9888 25.7295 49.1487 26.3264C49.3087 26.9234 49.6451 27.3674 50.1537 27.666C50.6607 27.9587 51.2251 28.0249 51.8336 27.8618ZM55.4715 24.5701L56.1432 22.2782L55.384 22.4816L54.9229 24.0525L53.7381 22.9226L52.9847 23.1245L54.7123 24.7735L53.9964 27.2016L54.7556 26.9982L55.2552 25.2927L56.5406 26.5199L57.2998 26.3164L55.4715 24.5701Z" fill="black"/>
<circle opacity="0.3" cx="31.5841" cy="31.1363" r="1" transform="rotate(-15 31.5841 31.1363)" fill="black"/>
<path opacity="0.3" d="M21.7044 21.3051C19.3742 23.681 17.8777 26.8914 17.7169 30.4776C17.3705 38.2018 23.3514 44.7444 31.0756 45.0908C38.7998 45.4372 45.3424 39.4563 45.6888 31.7321C45.9866 25.0923 41.6089 19.3256 35.4675 17.6173" stroke="black" stroke-linecap="round"/>
<path d="M27.246 16.1765C27.3453 15.929 27.6544 15.8462 27.8642 16.0109L30.7484 18.2748C31.0077 18.4784 30.9234 18.8905 30.605 18.9759L26.3549 20.1147C26.0365 20.2 25.7574 19.8852 25.8802 19.5793L27.246 16.1765Z" fill="black"/>
</svg>
