<svg width="145" height="27" viewBox="0 0 145 27" fill="none" xmlns="http://www.w3.org/2000/svg">
<path d="M21.7422 12.5552C21.8862 12.4004 22.0582 12.2521 22.2538 12.1167C22.0603 12.2521 21.8862 12.4004 21.7422 12.5552Z" fill="#1E180F"/>
<path d="M42.2051 12.5464C42.3491 12.3916 42.521 12.2433 42.7167 12.1079C42.521 12.2433 42.3491 12.3916 42.2051 12.5464Z" fill="#1E180F"/>
<path d="M50.4512 21.2861L50.4533 27.0424L57.826 27.0403L57.8239 21.6859C56.8437 22.2212 55.6615 22.5135 54.3847 22.5156C52.8392 22.5135 51.4958 22.0664 50.4512 21.2861Z" fill="#FEC62E"/>
<path d="M81.9444 14.5776C82.9762 13.1955 83.4921 11.5211 83.4899 9.55427C83.4899 7.79815 83.0514 6.24407 82.1787 4.89205C81.306 3.54002 80.0335 2.48462 78.3634 1.72371C76.6911 0.962791 74.6942 0.582332 72.3728 0.584482L50.4395 0.59308L50.4437 11.5125C51.4755 10.7236 52.7931 10.2615 54.2913 10.2615C55.6519 10.2615 56.8643 10.6935 57.8165 11.4286L57.8143 6.15594L71.3432 6.14949C74.5244 6.14734 76.1172 7.28442 76.1172 9.55642C76.1172 10.2529 75.9796 10.8397 75.7109 11.3233V11.5705V13.8769V14.9602H74.6276H72.6135V17.3805C72.6135 17.7374 72.6651 17.9394 72.7038 18.0275C73.0047 18.0232 73.2347 17.8943 73.5077 17.6879L74.6448 16.8324L75.1671 18.1565L75.9151 20.0566L76.2053 20.7939L75.5927 21.2947C74.8361 21.9116 73.7936 22.3179 72.7167 22.4383L75.5153 27.0274L83.3846 27.0231L77.6863 17.6449C79.494 16.9829 80.9127 15.9597 81.9444 14.5776Z" fill="#FEC62E"/>
<path d="M83.6504 27.0276L91.3176 27.0233L92.8824 24.2956L108.455 24.2892L110.005 27.0169L117.653 27.0126L100.67 0L83.6504 27.0276ZM95.8487 19.096L100.674 10.6722L105.489 19.0917L95.8487 19.096Z" fill="#FEC62E"/>
<path d="M136.981 0.554884L128.14 11.3238L119.27 0.563482L111.252 0.567781L124.476 17.1489L124.461 27.0086L131.833 27.0064L131.848 17.1446L144.999 0.552734L136.981 0.554884Z" fill="#FEC62E"/>
<path d="M9.03858 19.7814C8.22822 20.8712 6.77517 21.4494 5.21465 21.4494C2.09575 21.4516 0.00215117 19.444 1.68824e-06 16.411C-0.00214779 13.6124 2.04846 11.3684 4.97605 11.3662C6.55807 11.3662 7.94664 11.7703 8.84297 12.6666L7.69085 14.6119C6.96433 13.9069 6.17332 13.6726 5.29848 13.6726C3.93141 13.6726 2.62882 14.7216 2.62882 16.4089C2.62882 18.1177 3.95505 19.1645 5.40595 19.1624C6.45275 19.1624 7.26525 18.6702 7.88431 17.9866L9.03858 19.7814Z" fill="#1E180F"/>
<path d="M13.5209 11.3623C16.7043 11.3602 18.757 13.5182 18.757 16.4028C18.7592 19.2874 16.7086 21.4455 13.5252 21.4477C10.3418 21.4498 8.28906 19.2917 8.28906 16.4093C8.28691 13.5225 10.3375 11.3645 13.5209 11.3623ZM13.5231 19.1606C15.0406 19.1606 16.1497 18.0708 16.1497 16.4028C16.1497 14.78 15.0169 13.6687 13.5209 13.6687C12.0679 13.6687 10.9157 14.737 10.9157 16.405C10.9179 18.0085 12.0292 19.1606 13.5231 19.1606Z" fill="#1E180F"/>
<path d="M19.2852 11.5963H21.742V12.5571C22.3181 11.938 23.3434 11.4243 24.4977 11.4243C26.847 11.4243 28.4506 12.5549 28.4527 15.5664L28.4549 21.2066H25.998L25.9958 15.9941C25.9958 14.4551 25.2048 13.7307 23.8356 13.7307C23.0038 13.7307 22.3181 14.0725 21.742 14.6507L21.7442 21.2088H19.2873L19.2852 11.5963Z" fill="#1E180F"/>
<path d="M29.1328 8.91992H31.5897L31.5918 11.5896L34.6892 11.5874V13.8938L31.5918 13.896L31.594 17.3996C31.594 18.4464 31.9357 19.13 32.7482 19.13C33.4103 19.13 33.881 18.8312 34.2206 18.5733L34.9687 20.4734C34.3926 20.9441 33.3673 21.4149 32.127 21.4149C29.9496 21.4149 29.1371 20.007 29.135 17.5501L29.1328 8.91992Z" fill="#1E180F"/>
<path d="M37.0761 6.69531C37.7812 6.69531 38.4862 7.24988 38.4862 8.12687C38.4862 9.10918 37.7812 9.6659 37.0761 9.6659C36.2421 9.6659 35.5371 9.11133 35.5371 8.12902C35.5371 7.25203 36.2421 6.69531 37.0761 6.69531ZM35.795 11.5875H38.2519L38.2562 21.2022H35.7993L35.795 11.5875Z" fill="#1E180F"/>
<path d="M39.748 11.5855H42.2049V12.5464C42.781 11.9273 43.8063 11.4136 44.9605 11.4136C47.3099 11.4136 48.9134 12.5442 48.9156 15.5556L48.9177 21.1959H46.4609L46.4587 15.9834C46.4587 14.4443 45.6677 13.72 44.2985 13.72C43.4667 13.72 42.781 14.0617 42.2049 14.6399L42.2071 21.198H39.7502L39.748 11.5855Z" fill="#1E180F"/>
<path d="M58.0561 20.2302C57.0952 21.0427 55.7282 21.4275 54.3826 21.4275C51.2852 21.4296 49.2109 19.422 49.2109 16.3891C49.2088 13.5905 51.1326 11.3464 54.2945 11.3442C56.7728 11.3421 58.8471 13.1154 58.8471 15.8066C58.8471 16.4041 58.8041 16.7674 58.6988 17.1306L51.7559 17.1328C51.9709 18.5858 53.1251 19.3747 54.6405 19.3747C55.8163 19.3747 56.7986 18.947 57.3532 18.4977L58.0561 20.2302ZM51.6656 15.4906L56.3859 15.4884C56.4074 14.3127 55.5949 13.3948 54.1848 13.3948C52.7124 13.397 51.9214 14.2288 51.6656 15.4906Z" fill="#1E180F"/>
<path d="M59.2266 11.5767H61.6834V12.5376C62.2595 11.9185 63.2848 11.4048 64.4391 11.4048C66.7884 11.4048 68.392 12.5354 68.3941 15.5468L68.3963 21.1871H65.9394L65.9372 15.9746C65.9372 14.4356 65.1462 13.7112 63.777 13.7112C62.9452 13.7112 62.2595 14.0529 61.6834 14.6312L61.6856 21.1892H59.2287L59.2266 11.5767Z" fill="#1E180F"/>
<path d="M69.0723 8.90283H71.5291L71.5313 11.5725L74.6287 11.5703V13.8767L71.5313 13.8789L71.5334 17.3825C71.5334 18.4293 71.8752 19.1129 72.6877 19.1129C73.3497 19.1129 73.8205 18.8141 74.1601 18.5562L74.9081 20.4563C74.332 20.927 73.3067 21.3978 72.0665 21.3978C69.8891 21.3978 69.0766 19.9899 69.0744 17.533L69.0723 8.90283Z" fill="#1E180F"/>
</svg>
