<svg width="106" height="143" viewBox="0 0 106 143" fill="none" xmlns="http://www.w3.org/2000/svg">
<path fill-rule="evenodd" clip-rule="evenodd" d="M67.3364 26.6519C65.5806 26.0824 63.7478 25.6669 61.8534 25.4052C60.3595 25.2051 59.1889 24.02 59.1735 22.4962C59.15 20.7062 59.1154 18.18 59.078 15.4602L59.0779 15.4503L59.0777 15.4395L59.0774 15.4188C59.017 11.0164 58.9497 6.11484 58.9117 3.0107C58.8809 1.28686 60.3287 -0.129152 62.0382 0.00937104C68.0602 0.486505 73.805 1.87173 79.1648 4.04192C80.7973 4.70375 81.4288 6.67385 80.5663 8.21299L70.9711 25.3283C70.2473 26.6057 68.7225 27.1137 67.3364 26.6519ZM45.8822 27.3599C47.561 26.6827 49.3168 26.144 51.1188 25.7746C52.5511 25.4821 53.6138 24.297 53.5984 22.8348C53.5819 21.5942 53.561 19.9806 53.5377 18.1845L53.5361 18.057L53.536 18.0496L53.5351 17.9822L53.5351 17.9777L53.5351 17.9766L53.5348 17.9553L53.5347 17.9476C53.4715 13.0732 53.3921 6.93863 53.3366 3.25694C53.3212 1.51771 51.7964 0.132479 50.0561 0.347959C44.1573 1.10214 38.5203 2.73363 33.3146 5.13469C31.7436 5.85809 31.1892 7.82819 32.0825 9.32116L42.1551 26.1748C42.9097 27.4676 44.4961 27.914 45.8822 27.3599ZM100.681 26.975L84.7866 36.4253C83.5082 37.1795 81.9527 36.8409 80.967 35.7173C79.704 34.2551 78.3025 32.9314 76.7777 31.7309C75.6072 30.8074 75.1914 29.2067 75.9307 27.8831L85.5412 10.737C86.3883 9.24406 88.3289 8.72075 89.7459 9.67502C94.736 13.0303 99.1716 17.1245 102.899 21.8342C103.992 23.2195 103.561 25.2665 100.681 26.975ZM62.6547 87.0174C65.3808 86.5711 67.9836 85.7707 70.4171 84.6626C70.4479 84.6472 70.4941 84.6626 70.5095 84.6933L86.7119 111.875C86.7273 111.89 86.7119 111.936 86.6965 111.952C76.8087 122.833 66.5205 133.207 60.8065 138.84C60.7603 138.887 60.6987 138.856 60.6987 138.794C60.6713 137.252 60.4978 123.971 60.3322 111.29L60.332 111.278L60.3316 111.246L60.3315 111.234C60.2179 102.541 60.1082 94.138 60.0518 90.0034C60.021 88.4796 61.1607 87.2637 62.6547 87.0174ZM23.8734 59.4821L2.94271 59.7591C1.23314 59.7745 -0.168408 61.2521 0.0164112 62.9452C0.663277 69.4095 2.37285 75.8432 4.35965 80.399C4.74469 81.1378 5.45317 81.5534 5.94602 81.7073C6.70069 81.9382 7.65559 81.9843 8.59509 81.7073L27.0462 70.7332C28.3091 69.979 28.7712 68.4399 28.2629 67.0547C27.6622 65.4386 27.1848 63.7455 26.846 62.0063C26.5687 60.5595 25.352 59.4667 23.8734 59.4821ZM36.7954 33.0087C35.4708 34.1785 34.2387 35.456 33.1298 36.8412C32.1903 38.0109 30.6039 38.4111 27.9395 36.9335L11.7986 27.8988C10.2739 27.0369 9.78101 25.036 10.8129 23.62C14.2475 18.8948 18.3597 14.7237 23.0418 11.2299C24.4279 10.1987 26.4147 10.645 28.1089 13.477L37.473 29.207C38.2277 30.4691 37.9043 32.0391 36.7954 33.0087ZM26.7382 51.3092C27.0154 49.57 27.4312 47.8616 27.9857 46.2301C28.4631 44.8448 27.9549 43.3057 26.6766 42.5977L8.93395 32.6548C7.43999 31.8237 5.49939 32.3932 4.79092 33.9631C2.43448 39.2578 0.84812 44.968 0.15505 50.9706C-0.0451708 52.7253 1.38718 54.2336 3.14295 54.2028C5.44642 54.1697 8.7055 54.1279 12.057 54.085L12.0613 54.0849C16.4843 54.0283 21.0677 53.9696 23.8273 53.9258C25.3366 53.9104 26.5071 52.7714 26.7382 51.3092ZM85.3105 75.3965C89.6229 77.8129 99.1103 83.123 103.869 85.7857C105.425 86.663 105.841 88.6793 104.809 90.1414C101.652 94.5434 97.6626 99.4532 93.3347 104.471C91.9948 106.01 89.5613 105.81 88.514 104.055L76.6702 84.1696C75.9001 82.8767 76.2698 81.2606 77.4249 80.2909C78.9189 79.0596 80.2896 77.6898 81.5217 76.1968C82.4766 75.0579 84.0168 74.6731 85.3105 75.3965ZM51.9348 86.9708C49.2395 86.4782 46.6674 85.6163 44.2494 84.4773C44.234 84.4773 44.2186 84.4773 44.2032 84.4927L28.3088 112.875C28.2934 112.905 28.2934 112.936 28.3242 112.951C39.6751 126.019 51.3649 138.147 55.0921 141.98C55.1383 142.026 55.1845 141.995 55.1845 141.933C55.173 140.918 55.0921 134.799 54.9891 127L54.9889 126.985C54.8172 113.982 54.5838 96.3158 54.5068 89.8336C54.476 88.3714 53.3825 87.2324 51.9348 86.9708ZM33.6536 76.3354C34.7933 77.6898 36.0562 78.9519 37.4116 80.0909C38.5205 81.0298 38.8901 82.5997 38.1662 83.8926C36.2872 87.2636 32.5945 93.852 29.5095 99.3563C28.397 101.341 27.3636 103.185 26.5227 104.686C25.5062 106.503 22.9803 106.718 21.6404 105.102C17.4973 100.1 13.6315 95.1745 10.5204 90.7263C9.53472 89.3103 9.98137 87.371 11.4599 86.4937L29.7878 75.5966C31.0815 74.827 32.6833 75.181 33.6536 76.3354Z" fill="#FEC62E"/>
</svg>
