<svg width="24" height="24" viewBox="0 0 24 24" fill="none" xmlns="http://www.w3.org/2000/svg">
<path d="M18 2H21C21.5523 2 22 2.44772 22 3V6" stroke="black" stroke-width="2" stroke-linecap="round" stroke-linejoin="round"/>
<path d="M6 2H3C2.44772 2 2 2.44772 2 3V6" stroke="black" stroke-width="2" stroke-linecap="round" stroke-linejoin="round"/>
<path d="M18 22H21C21.5523 22 22 21.5523 22 21V18" stroke="black" stroke-width="2" stroke-linecap="round" stroke-linejoin="round"/>
<path d="M6 22L3 22C2.44772 22 2 21.5523 2 21L2 18" stroke="black" stroke-width="2" stroke-linecap="round" stroke-linejoin="round"/>
<path fill-rule="evenodd" clip-rule="evenodd" d="M11.1429 15.3845H6.85714C6.57256 15.3845 6.30685 15.2449 6.14742 15.0131C5.98799 14.7804 5.95542 14.4851 6.06171 14.2245L11.2046 1.53241C11.3571 1.15588 11.7583 0.93842 12.162 1.01542C12.5657 1.09242 12.8571 1.44103 12.8571 1.84633V8.61543H17.1429C17.4274 8.61543 17.6932 8.75504 17.8526 8.98688C18.012 9.21957 18.0446 9.51487 17.9383 9.77548L12.7954 22.4676C12.6429 22.8449 12.2417 23.0615 11.838 22.9845C11.4343 22.9075 11.1429 22.5589 11.1429 22.1536V15.3845ZM11.9451 10.306C11.4977 10.2781 11.1429 9.91002 11.1429 9.46157V6.24032L8.12314 13.6923H12H12.0223L12.0437 13.6931L12.0549 13.6939C12.5023 13.7219 12.8571 14.0899 12.8571 14.5384V17.7605L15.8769 10.3077H12H11.9777L11.9563 10.3069L11.9451 10.306Z" fill="black"/>
</svg>
