<svg width="116" height="116" viewBox="0 0 116 116" fill="none" xmlns="http://www.w3.org/2000/svg">
<rect x="1" y="1" width="114" height="114" rx="57" stroke="#F3F0EF" stroke-width="2"/>
<path d="M70.2892 45.565L77.0131 41.5869C78.2315 40.8677 78.4139 40.006 77.9513 39.4229C76.3746 37.4403 74.4982 35.7169 72.3872 34.3045C71.7878 33.9028 70.9668 34.1231 70.6085 34.7515L66.5429 41.9692C66.2302 42.5264 66.4061 43.2002 66.9013 43.5889C67.5463 44.0943 68.1392 44.6515 68.6734 45.267C69.0904 45.7399 69.7485 45.8825 70.2892 45.565Z" fill="#FEC62E"/>
<path d="M64.2093 65.8702C63.1799 66.3367 62.0788 66.6736 60.9256 66.8615C60.2936 66.9652 59.8114 67.477 59.8245 68.1184C59.8831 72.4011 60.0786 87.5619 60.0981 88.6569C60.0981 88.6828 60.1242 88.6957 60.1437 88.6763C62.5609 86.305 66.9132 81.9381 71.0961 77.3575C71.1026 77.351 71.1091 77.3316 71.1026 77.3251L64.2484 65.8832C64.2419 65.8702 64.2224 65.8637 64.2093 65.8702Z" fill="#FEC62E"/>
<path d="M53.8309 41.7486C54.5411 41.4636 55.2838 41.2368 56.0461 41.0813C56.6521 40.9582 57.1016 40.4593 57.0951 39.8438C57.069 37.8936 57.0169 33.7535 56.9844 31.6025C56.9778 30.8704 56.3328 30.2873 55.5966 30.378C53.1012 30.6954 50.7166 31.3822 48.5144 32.3929C47.8498 32.6975 47.6152 33.5268 47.9931 34.1552L52.2542 41.2497C52.5734 41.794 53.2445 41.9819 53.8309 41.7486Z" fill="#FEC62E"/>
<path d="M60.5884 40.9257C61.3898 41.0359 62.1651 41.2108 62.9079 41.4505C63.4943 41.6449 64.1393 41.4311 64.4455 40.8934L68.5046 33.6887C68.8694 33.0408 68.6023 32.2115 67.9117 31.9329C65.6443 31.0193 63.2141 30.4362 60.6666 30.2354C59.9434 30.1771 59.3309 30.7731 59.344 31.4988C59.37 33.6174 59.4287 37.7251 59.4547 39.7012C59.4612 40.3426 59.9564 40.8415 60.5884 40.9257Z" fill="#FEC62E"/>
<path d="M44.5211 55.2706L35.6667 55.3872C34.9435 55.3937 34.3506 56.0157 34.4288 56.7284C34.7025 59.4495 35.4257 62.1578 36.2662 64.0755C36.429 64.3865 36.7287 64.5615 36.9372 64.6263C37.2565 64.7234 37.6604 64.7429 38.0579 64.6263L45.8633 60.0067C46.3976 59.6893 46.593 59.0414 46.378 58.4582C46.1239 57.778 45.9219 57.0653 45.7786 56.3331C45.6613 55.7241 45.1466 55.2641 44.5211 55.2706Z" fill="#FEC62E"/>
<path d="M48.4368 45.7398C48.9059 45.1567 49.4271 44.6189 49.9875 44.1265C50.4566 43.7184 50.5934 43.0575 50.2741 42.5262L46.3128 35.9047C45.5961 34.7125 44.7556 34.5247 44.1692 34.9587C42.1886 36.4295 40.4489 38.1853 38.996 40.1743C38.5595 40.7704 38.768 41.6127 39.413 41.9755L46.2411 45.7787C47.3683 46.4007 48.0394 46.2322 48.4368 45.7398Z" fill="#FEC62E"/>
<path d="M45.7339 51.8299C45.8512 51.0977 46.0271 50.3786 46.2617 49.6918C46.4637 49.1087 46.2486 48.4608 45.7079 48.1627L38.2022 43.9773C37.5702 43.6274 36.7492 43.8672 36.4495 44.528C35.4527 46.7568 34.7816 49.1605 34.4884 51.6873C34.4037 52.4259 35.0096 53.0609 35.7524 53.0479C38.0132 53.0155 42.4502 52.9637 44.5025 52.9313C45.141 52.9248 45.6362 52.4454 45.7339 51.8299Z" fill="#FEC62E"/>
<path d="M78.365 66.343C76.3518 65.2221 72.3383 62.9869 70.514 61.9697C69.9667 61.6651 69.3152 61.8271 68.9112 62.3066C68.39 62.935 67.8101 63.5117 67.1781 64.03C66.6895 64.4382 66.5331 65.1185 66.8589 65.6627L71.8692 74.0336C72.3122 74.7722 73.3417 74.8564 73.9085 74.2085C75.7393 72.0963 77.4268 70.0295 78.7625 68.1765C79.199 67.561 79.0231 66.7123 78.365 66.343Z" fill="#FEC62E"/>
<path d="M56.3895 66.8421C55.2493 66.6348 54.1612 66.2719 53.1383 65.7925C53.1318 65.7925 53.1253 65.7925 53.1188 65.799L46.3949 77.7462C46.3884 77.7592 46.3884 77.7722 46.4014 77.7786C51.2032 83.2793 56.1484 88.3848 57.7251 89.998C57.7447 90.0175 57.7642 90.0045 57.7642 89.9786C57.7512 88.8383 57.5297 72.414 57.4776 68.0472C57.4645 67.4317 57.0019 66.9522 56.3895 66.8421Z" fill="#FEC62E"/>
<path d="M50.247 63.9455C49.6736 63.4661 49.1393 62.9348 48.6572 62.3647C48.2467 61.8787 47.5691 61.7297 47.0218 62.0537L39.2685 66.6408C38.6431 67.0101 38.4541 67.8265 38.8711 68.4225C40.1872 70.295 41.8226 72.3682 43.5752 74.4739C44.142 75.1542 45.2106 75.0635 45.6406 74.299C46.9827 71.9147 49.4847 67.4766 50.5662 65.5459C50.8724 65.0016 50.7161 64.3408 50.247 63.9455Z" fill="#FEC62E"/>
</svg>
