<svg width="111" height="160" viewBox="0 0 111 160" fill="none" xmlns="http://www.w3.org/2000/svg">
<path d="M56.6602 92.0575H70.5145C70.5193 91.1359 70.4505 86.2143 66.4921 82.2255C62.5193 78.2223 57.577 78.1295 56.6602 78.1279" stroke="#282828" stroke-width="1.167" stroke-miterlimit="10" stroke-linecap="round" stroke-linejoin="round"/>
<path d="M81.7597 118.129H70.5117C70.5709 119.614 70.9213 122.534 72.9693 125.131C73.6141 125.949 74.2701 126.534 74.7565 126.918C77.3533 128.966 80.2733 129.317 81.7581 129.376" stroke="#282828" stroke-width="1.167" stroke-miterlimit="10" stroke-linecap="round" stroke-linejoin="round"/>
<path d="M37.0703 108.222H48.3919C48.3327 109.696 47.9871 112.619 45.9343 115.224C45.5647 115.693 44.9775 116.357 44.1471 117.011C41.5295 119.075 38.5727 119.416 37.0703 119.469" stroke="#282828" stroke-width="1.167" stroke-miterlimit="10" stroke-linecap="round" stroke-linejoin="round"/>
<path d="M51.5938 144.349V160.065C54.141 159.883 58.1506 159.16 61.6498 156.341C62.6642 155.523 63.3298 154.777 63.5858 154.478C66.6274 150.947 67.205 146.693 67.3106 144.349" stroke="#282828" stroke-width="1.167" stroke-miterlimit="10" stroke-linecap="round" stroke-linejoin="round"/>
<path d="M89.6581 19.4333H63.2148V23.0078H89.6581V19.4333Z" stroke="#282828" stroke-width="1.167" stroke-miterlimit="10" stroke-linecap="round" stroke-linejoin="round"/>
<path d="M88.2417 10.0479H64.6289V18.0926H88.2417V10.0479Z" stroke="#282828" stroke-width="1.167" stroke-miterlimit="10" stroke-linecap="round" stroke-linejoin="round"/>
<path d="M37.4399 19.4333H11.0703V23.0078H37.4399V19.4333Z" stroke="#282828" stroke-width="1.167" stroke-miterlimit="10" stroke-linecap="round" stroke-linejoin="round"/>
<path d="M36.6196 10.0479H13.082V18.0926H36.6196V10.0479Z" stroke="#282828" stroke-width="1.167" stroke-miterlimit="10" stroke-linecap="round" stroke-linejoin="round"/>
<path d="M22.668 0.438232V10.0462H23.0392V0.438232H22.668Z" stroke="#282828" stroke-width="1.167" stroke-miterlimit="10" stroke-linecap="round" stroke-linejoin="round"/>
<path d="M17.875 0.438232V10.0462H18.2462V0.438232H17.875Z" stroke="#282828" stroke-width="1.167" stroke-miterlimit="10" stroke-linecap="round" stroke-linejoin="round"/>
<path d="M27.4596 10.0462H27.8308V0.0654297H13.082V10.0462H13.4548V0.43823H27.4596V10.0462Z" stroke="#282828" stroke-width="1.167" stroke-miterlimit="10" stroke-linecap="round" stroke-linejoin="round"/>
<path d="M74.2109 0.438232V10.0462H74.5837V0.438232H74.2109Z" stroke="#282828" stroke-width="1.167" stroke-miterlimit="10" stroke-linecap="round" stroke-linejoin="round"/>
<path d="M69.418 0.438232V10.0462H69.7907V0.438232H69.418Z" stroke="#282828" stroke-width="1.167" stroke-miterlimit="10" stroke-linecap="round" stroke-linejoin="round"/>
<path d="M79.0065 10.0462H79.3777V0.0654297H64.6289V10.0462H65.0017V0.43823H79.0065V10.0462Z" stroke="#282828" stroke-width="1.167" stroke-miterlimit="10" stroke-linecap="round" stroke-linejoin="round"/>
<path d="M26.1889 140.848V130.27H18.9648V140.848H26.1889Z" stroke="#282828" stroke-width="1.167" stroke-miterlimit="10" stroke-linecap="round" stroke-linejoin="round"/>
<path d="M25.3427 139.947H19.8867V135.521H25.3427V139.947Z" stroke="#282828" stroke-width="1.167" stroke-miterlimit="10" stroke-linecap="round" stroke-linejoin="round"/>
<path d="M25.3427 131.096V134.696H19.8867V131.096H25.3427Z" stroke="#282828" stroke-width="1.167" stroke-miterlimit="10" stroke-linecap="round" stroke-linejoin="round"/>
<path d="M33.4883 140.848V130.27H26.1875V140.848H33.4883Z" stroke="#282828" stroke-width="1.167" stroke-miterlimit="10" stroke-linecap="round" stroke-linejoin="round"/>
<path d="M32.5654 139.947H27.1094V135.521H32.5654V139.947Z" stroke="#282828" stroke-width="1.167" stroke-miterlimit="10" stroke-linecap="round" stroke-linejoin="round"/>
<path d="M32.5654 131.096V134.696H27.1094V131.096H32.5654Z" stroke="#282828" stroke-width="1.167" stroke-miterlimit="10" stroke-linecap="round" stroke-linejoin="round"/>
<path d="M4.88672 61.2942H5.68671" stroke="#282828" stroke-width="1.167" stroke-linecap="round" stroke-linejoin="round"/>
<path d="M7.25781 61.2942H53.653" stroke="#282828" stroke-width="1.167" stroke-linecap="round" stroke-linejoin="round" stroke-dasharray="9.83 9.83"/>
<path d="M54.4414 61.2942H55.2414" stroke="#282828" stroke-width="1.167" stroke-linecap="round" stroke-linejoin="round"/>
<path d="M55.2414 106.806H54.4414" stroke="#282828" stroke-width="1.167" stroke-linecap="round" stroke-linejoin="round"/>
<path d="M52.9363 106.806H38.6211" stroke="#282828" stroke-width="1.167" stroke-linecap="round" stroke-linejoin="round" stroke-dasharray="9.42 9.42"/>
<path d="M37.8664 106.806H37.0664" stroke="#282828" stroke-width="1.167" stroke-linecap="round" stroke-linejoin="round"/>
<path d="M55.2422 23.0078V77.1598H56.6566V23.0078H55.2422Z" fill="#282828"/>
<path d="M83.1759 140.848V130.344H81.7599V140.848H68.2031V144.349H106.938V140.848H83.1759Z" fill="#282828"/>
<path d="M37.0667 140.848V120.438H35.6523V140.848H18.9659V130.27H1.38672V133.846H15.4651V144.349H50.6235V140.848H37.0667Z" fill="#282828"/>
<path d="M4.88752 93.0254V51.0894H1.38672V98.6126H4.88752V94.739H35.6523V107.253H37.0667V93.0254H4.88752Z" fill="#282828"/>
<path d="M106.935 38.7983V105.392H56.6566V93.0255H55.2422V106.806H81.759V117.16H83.175V106.806H106.935V112.691H110.436V38.7983H106.935Z" fill="#282828"/>
<g opacity="0.8">
<path opacity="0.8" d="M15.4648 72.5854C15.6217 72.5854 15.7497 72.8063 15.7497 73.0767V77.7151C15.7497 77.9839 15.6217 78.2063 15.4648 78.2063" stroke="#282828" stroke-width="0.584" stroke-miterlimit="10" stroke-linecap="round" stroke-linejoin="round"/>
<path opacity="0.8" d="M15.4579 71.8718H4.88672V78.9198H15.4579V71.8718Z" stroke="#282828" stroke-width="0.584" stroke-miterlimit="10" stroke-linecap="round" stroke-linejoin="round"/>
<path opacity="0.8" d="M5.76953 77.3247V73.4671C5.76953 72.9807 6.16473 72.5854 6.64953 72.5854H13.6975C14.1839 72.5854 14.5775 72.9807 14.5775 73.4671V77.3247C14.5775 77.8111 14.1839 78.2063 13.6975 78.2063H6.64953C6.16473 78.2063 5.76953 77.8111 5.76953 77.3247Z" stroke="#282828" stroke-width="0.584" stroke-miterlimit="10" stroke-linecap="round" stroke-linejoin="round"/>
<path opacity="0.8" d="M8.43061 77.1342C7.46901 77.1342 6.69141 76.355 6.69141 75.395C6.69141 74.4334 7.47061 73.6558 8.43061 73.6558C9.39221 73.6558 10.1714 74.435 10.1714 75.395C10.1714 76.3566 9.39221 77.1342 8.43061 77.1342Z" stroke="#282828" stroke-width="0.584" stroke-miterlimit="10" stroke-linecap="round" stroke-linejoin="round"/>
<path opacity="0.8" d="M12.2996 76.7452C11.554 76.7452 10.9492 76.1404 10.9492 75.3948C10.9492 74.6492 11.554 74.0444 12.2996 74.0444C13.0452 74.0444 13.65 74.6492 13.65 75.3948C13.6484 76.1404 13.0436 76.7452 12.2996 76.7452Z" stroke="#282828" stroke-width="0.584" stroke-miterlimit="10" stroke-linecap="round" stroke-linejoin="round"/>
</g>
<g opacity="0.8">
<path opacity="0.8" d="M4.88672 107.592H10.6275C11.7187 107.592 12.7107 108.529 13.1635 109.992L13.3059 110.448C13.8371 112.161 13.8243 114.133 13.2707 115.83C12.8083 117.254 11.8307 118.161 10.7555 118.161H4.88672V107.592V107.592Z" stroke="#282828" stroke-width="0.584" stroke-miterlimit="10" stroke-linecap="round" stroke-linejoin="round"/>
<path opacity="0.8" d="M6.94531 112.235V108.52H10.4765C11.3261 108.52 12.0973 109.293 12.4509 110.499L12.5613 110.875C12.9757 112.288 12.9645 113.912 12.5357 115.312C12.1741 116.486 11.4125 117.233 10.5789 117.233H6.94691V114.23" stroke="#282828" stroke-width="0.584" stroke-miterlimit="10" stroke-linecap="round" stroke-linejoin="round"/>
<path opacity="0.8" d="M5.90432 113.605L5.66912 113.624C5.29472 113.654 4.93952 113.373 4.89152 112.96C4.88832 112.933 4.88672 112.904 4.88672 112.877C4.88672 112.849 4.88832 112.821 4.89152 112.793C4.93952 112.381 5.29472 112.099 5.66912 112.129L9.73311 112.464C9.86271 112.464 9.96671 112.581 9.96671 112.723V113.029C9.96671 113.171 9.86271 113.288 9.73311 113.288L7.64191 113.461" stroke="#282828" stroke-width="0.584" stroke-miterlimit="10" stroke-linecap="round" stroke-linejoin="round"/>
<path opacity="0.8" d="M7.88868 114.389L8.05028 114.118C8.15108 113.953 8.09668 113.734 7.93028 113.635L5.88228 112.402C5.71588 112.301 5.49829 112.355 5.39749 112.522L5.23428 112.792C5.13348 112.957 5.18788 113.176 5.35428 113.275L7.40388 114.509C7.57028 114.608 7.78788 114.553 7.88868 114.389Z" stroke="#282828" stroke-width="0.584" stroke-miterlimit="10" stroke-linecap="round" stroke-linejoin="round"/>
<path opacity="0.8" d="M11.403 113.406C11.6942 113.406 11.931 113.169 11.931 112.878C11.931 112.587 11.6942 112.352 11.403 112.352C11.1102 112.352 10.875 112.589 10.875 112.878C10.875 113.169 11.1118 113.406 11.403 113.406Z" stroke="#282828" stroke-width="0.584" stroke-miterlimit="10" stroke-linecap="round" stroke-linejoin="round"/>
</g>
<g opacity="0.8">
<path opacity="0.8" d="M6.40234 100.849V99.563" stroke="#282828" stroke-width="0.584" stroke-miterlimit="10" stroke-linecap="round" stroke-linejoin="round"/>
<path opacity="0.8" d="M6.40234 98.9933V96.3357C6.40234 95.9725 6.72075 95.6797 7.11115 95.6797H27.6807C29.0839 95.6797 30.4391 96.1645 31.4775 97.0365C33.9431 99.1101 33.9431 102.701 31.4775 104.774C30.4391 105.649 29.0839 106.133 27.6807 106.133H7.11115C6.72075 106.133 6.40234 105.838 6.40234 105.475V102.363" stroke="#282828" stroke-width="0.584" stroke-miterlimit="10" stroke-linecap="round" stroke-linejoin="round"/>
<path opacity="0.8" d="M34.8371 94.739H4.88672V107.072H34.8371V94.739Z" stroke="#282828" stroke-width="0.584" stroke-miterlimit="10" stroke-linecap="round" stroke-linejoin="round"/>
<path opacity="0.8" d="M10.9913 100.905C10.9913 100.557 10.7097 100.275 10.3609 100.275C10.0121 100.275 9.73047 100.557 9.73047 100.905C9.73047 101.254 10.0137 101.537 10.3609 101.537C10.7097 101.537 10.9913 101.254 10.9913 100.905Z" stroke="#282828" stroke-width="0.584" stroke-miterlimit="10" stroke-linecap="round" stroke-linejoin="round"/>
<path opacity="0.8" d="M4.88672 99.563V98.9934H5.81472H5.87871H7.34591C7.34591 98.9934 7.64831 99.0046 7.64831 99.2782C7.64831 99.5518 7.34591 99.563 7.34591 99.563H5.87871H5.81472H5.47232" stroke="#282828" stroke-width="0.584" stroke-miterlimit="10" stroke-linecap="round" stroke-linejoin="round"/>
<g opacity="0.8">
<path opacity="0.8" d="M5.68511 101.931L5.49952 101.947C5.20672 101.971 4.92832 101.75 4.88992 101.427C4.88672 101.405 4.88672 101.384 4.88672 101.361C4.88672 101.339 4.88832 101.318 4.88992 101.296C4.92832 100.973 5.20512 100.752 5.49952 100.774L8.6835 101.037C8.7843 101.037 8.8675 101.128 8.8675 101.24V101.48C8.8675 101.593 8.7859 101.683 8.6835 101.683L7.07071 101.816" stroke="#282828" stroke-width="0.584" stroke-miterlimit="10" stroke-linecap="round" stroke-linejoin="round"/>
<path opacity="0.8" d="M7.17571 102.418L7.23171 102.325C7.33091 102.158 7.27811 101.941 7.11171 101.842L5.83331 101.072C5.66691 100.971 5.44931 101.026 5.34851 101.192L5.29251 101.286C5.19171 101.451 5.24771 101.669 5.41251 101.77L6.69091 102.539C6.85731 102.638 7.07491 102.584 7.17571 102.418Z" stroke="#282828" stroke-width="0.584" stroke-miterlimit="10" stroke-linecap="round" stroke-linejoin="round"/>
<path opacity="0.8" d="M5.66644 101.915C5.64244 102.365 5.59604 102.949 5.51764 103.104C5.40564 103.322 5.09684 103.226 5.09684 103.226H4.89844V99.4959H5.09684C5.09684 99.4959 5.40564 99.3999 5.51764 99.6175C5.59604 99.7711 5.64084 100.341 5.66644 100.789" stroke="#282828" stroke-width="0.584" stroke-miterlimit="10" stroke-linecap="round" stroke-linejoin="round"/>
</g>
<path opacity="0.8" d="M6.40234 98.7469C6.58794 98.4141 6.94475 98.1885 7.35275 98.1885C7.95435 98.1885 8.44235 98.6765 8.44235 99.2781C8.44235 99.8797 7.95435 100.368 7.35275 100.368C6.94475 100.368 6.58794 100.142 6.40234 99.8093" stroke="#282828" stroke-width="0.584" stroke-miterlimit="10" stroke-linecap="round" stroke-linejoin="round"/>
</g>
<g opacity="0.8">
<path opacity="0.8" d="M6.96094 120.787H12.8297C13.4697 120.787 14.1017 120.947 14.6681 121.272C15.4761 121.734 16.3385 122.624 16.3385 124.31C16.3385 125.998 15.4761 126.888 14.6681 127.35C14.1017 127.675 13.4681 127.834 12.8297 127.834H6.96094" stroke="#282828" stroke-width="0.584" stroke-miterlimit="10" stroke-linecap="round" stroke-linejoin="round"/>
<path opacity="0.8" d="M8.96875 121.88C8.96875 121.581 9.19275 121.339 9.47115 121.339H12.6327C13.2071 121.339 13.7768 121.474 14.2872 121.747C15.0136 122.138 15.7879 122.887 15.7879 124.311C15.7879 125.733 15.0136 126.483 14.2872 126.874C13.7768 127.147 13.2071 127.282 12.6327 127.282H9.47115C9.19275 127.282 8.96875 127.04 8.96875 126.741V121.88Z" stroke="#282828" stroke-width="0.584" stroke-miterlimit="10" stroke-linecap="round" stroke-linejoin="round"/>
<path opacity="0.8" d="M12.5898 123.597C12.5898 123.509 12.6554 123.438 12.737 123.438H13.6666C13.8362 123.438 14.0026 123.478 14.153 123.558C14.3658 123.672 14.593 123.893 14.593 124.31C14.593 124.728 14.3642 124.95 14.153 125.064C14.0026 125.145 13.8346 125.184 13.6666 125.184H12.737C12.6554 125.184 12.5898 125.113 12.5898 125.025V123.597Z" stroke="#282828" stroke-width="0.584" stroke-miterlimit="10" stroke-linecap="round" stroke-linejoin="round"/>
<path opacity="0.8" d="M8.36344 123.261C8.51385 123.261 8.63545 123.13 8.63545 122.966C8.63545 122.805 8.51385 122.674 8.36344 122.674C8.21304 122.674 8.08984 122.805 8.08984 122.966C8.08984 123.13 8.21304 123.261 8.36344 123.261Z" stroke="#282828" stroke-width="0.584" stroke-miterlimit="10" stroke-linecap="round" stroke-linejoin="round"/>
<path opacity="0.8" d="M8.36344 125.947C8.51385 125.947 8.63545 125.816 8.63545 125.654C8.63545 125.493 8.51385 125.362 8.36344 125.362C8.21304 125.362 8.08984 125.493 8.08984 125.654C8.08984 125.816 8.21304 125.947 8.36344 125.947Z" stroke="#282828" stroke-width="0.584" stroke-miterlimit="10" stroke-linecap="round" stroke-linejoin="round"/>
<path opacity="0.8" d="M7.64672 127.482V121.139C7.64672 120.944 7.48832 120.787 7.29472 120.787H5.23872C5.04512 120.787 4.88672 120.944 4.88672 121.139V127.482C4.88672 127.677 5.04512 127.834 5.23872 127.834H7.29472C7.48832 127.835 7.64672 127.677 7.64672 127.482Z" stroke="#282828" stroke-width="0.584" stroke-miterlimit="10" stroke-linecap="round" stroke-linejoin="round"/>
<path opacity="0.8" d="M6.26628 124.84C6.55907 124.84 6.79587 124.603 6.79587 124.312C6.79587 124.021 6.55907 123.784 6.26628 123.784C5.97348 123.784 5.73828 124.021 5.73828 124.312C5.73828 124.603 5.97508 124.84 6.26628 124.84Z" stroke="#282828" stroke-width="0.584" stroke-miterlimit="10" stroke-linecap="round" stroke-linejoin="round"/>
</g>
<g opacity="0.8">
<path opacity="0.8" d="M22.4694 82.4541H8.375V93.0253H22.4694V82.4541Z" stroke="#282828" stroke-width="0.584" stroke-miterlimit="10" stroke-linecap="round" stroke-linejoin="round"/>
<path opacity="0.8" d="M10.2433 83.3164H20.5937C21.0801 83.3164 21.4737 83.7116 21.4737 84.1964V91.2444C21.4737 91.7308 21.0801 92.1244 20.5937 92.1244H10.2433C9.75688 92.1244 9.36328 91.7308 9.36328 91.2444V84.1964C9.36328 83.7116 9.75688 83.3164 10.2433 83.3164Z" stroke="#282828" stroke-width="0.584" stroke-miterlimit="10" stroke-linecap="round" stroke-linejoin="round"/>
<path opacity="0.8" d="M17.0508 87.7214C17.0508 87.3726 17.3324 87.0894 17.6812 87.0894C18.03 87.0894 18.3116 87.371 18.3116 87.7214C18.3116 88.0702 18.0284 88.3518 17.6812 88.3518C17.3324 88.3518 17.0508 88.0686 17.0508 87.7214Z" stroke="#282828" stroke-width="0.584" stroke-miterlimit="10" stroke-linecap="round" stroke-linejoin="round"/>
<path opacity="0.8" d="M13.5079 84.7324H10.1367" stroke="#282828" stroke-width="0.584" stroke-miterlimit="10" stroke-linecap="round" stroke-linejoin="round"/>
<path opacity="0.8" d="M13.5079 85.5693H10.1367" stroke="#282828" stroke-width="0.584" stroke-miterlimit="10" stroke-linecap="round" stroke-linejoin="round"/>
<path opacity="0.8" d="M13.5079 86.406H10.1367" stroke="#282828" stroke-width="0.584" stroke-miterlimit="10" stroke-linecap="round" stroke-linejoin="round"/>
<path opacity="0.8" d="M13.5079 87.2412H10.1367" stroke="#282828" stroke-width="0.584" stroke-miterlimit="10" stroke-linecap="round" stroke-linejoin="round"/>
<path opacity="0.8" d="M13.5079 88.0781H10.1367" stroke="#282828" stroke-width="0.584" stroke-miterlimit="10" stroke-linecap="round" stroke-linejoin="round"/>
<path opacity="0.8" d="M13.5079 88.9133H10.1367" stroke="#282828" stroke-width="0.584" stroke-miterlimit="10" stroke-linecap="round" stroke-linejoin="round"/>
<path opacity="0.8" d="M13.5003 90.7118L13.3499 90.8398C13.1531 91.0078 13.1163 91.3198 13.2955 91.5438C13.3067 91.5598 13.3196 91.5742 13.334 91.587C13.3468 91.6014 13.3612 91.6142 13.3772 91.6254C13.6012 91.803 13.9132 91.7678 14.0812 91.5694L15.9036 89.419C15.9676 89.3566 15.9628 89.2494 15.8924 89.1774L15.7436 89.0286C15.6732 88.9582 15.5644 88.9534 15.502 89.0174L14.422 89.9326" stroke="#282828" stroke-width="0.584" stroke-miterlimit="10" stroke-linecap="round" stroke-linejoin="round"/>
<path opacity="0.8" d="M14.1838 89.4236C14.3726 89.47 14.4878 89.662 14.4414 89.8508L14.0942 91.2444C14.0478 91.4316 13.8558 91.5484 13.6686 91.5004C13.4814 91.454 13.3662 91.262 13.4126 91.0732L13.7582 89.6812C13.8046 89.4924 13.995 89.3772 14.1838 89.4236Z" stroke="#282828" stroke-width="0.584" stroke-miterlimit="10" stroke-linecap="round" stroke-linejoin="round"/>
<path opacity="0.8" d="M14.2852 89.4684V84.5804C14.2852 84.094 14.6788 83.7004 15.1652 83.7004H20.2404C20.7268 83.7004 21.122 84.0956 21.122 84.5804V90.8588C21.122 91.3452 20.7268 91.7404 20.2404 91.7404H15.1652C14.8116 91.7404 14.506 91.5308 14.3668 91.23" stroke="#282828" stroke-width="0.584" stroke-miterlimit="10" stroke-linecap="round" stroke-linejoin="round"/>
</g>
<path d="M106.938 144.349H110.438V112.691H106.938V144.349Z" fill="#282828" stroke="#282828" stroke-width="1.12" stroke-miterlimit="10" stroke-linecap="round" stroke-linejoin="round"/>
<path d="M64.6275 10.6431H36.6211V18.0911H37.2179V19.4319H37.4403V23.0079H63.2131V19.4319H64.1059V18.0911H64.6275V10.6431Z" fill="#282828" stroke="#282828" stroke-width="1.12" stroke-miterlimit="10" stroke-linecap="round" stroke-linejoin="round"/>
<path d="M13.0811 10.6431H1.38672V51.0895H4.88751V23.0079H11.0699V19.4319H12.5595V18.0911H13.0811V10.6431Z" fill="#282828" stroke="#282828" stroke-width="1.12" stroke-miterlimit="10" stroke-linecap="round" stroke-linejoin="round"/>
<path d="M1.38672 130.27H4.88752V98.6125H1.38672V130.27Z" fill="#282828" stroke="#282828" stroke-width="1.12" stroke-miterlimit="10" stroke-linecap="round" stroke-linejoin="round"/>
<path d="M88.2422 10.6431V18.1295H88.7638V19.4319H89.6582V23.0079H106.94V38.7983H110.441V10.6431H88.2422Z" fill="#282828" stroke="#282828" stroke-width="1.12" stroke-miterlimit="10" stroke-linecap="round" stroke-linejoin="round"/>
<path d="M106.938 144.348H110.438V112.691H106.938V144.348Z" fill="#282828" stroke="#282828" stroke-width="1.12" stroke-miterlimit="10" stroke-linecap="round" stroke-linejoin="round"/>
<path d="M1.38672 130.27H4.88752V98.6125H1.38672V130.27Z" fill="#282828" stroke="#282828" stroke-width="1.12" stroke-miterlimit="10" stroke-linecap="round" stroke-linejoin="round"/>
<path d="M22.4641 27.6814C22.6145 27.6814 22.6881 27.7566 22.6881 27.9054C22.6881 28.0158 22.6513 28.0814 22.5761 28.099C22.2433 28.1822 21.9521 28.3822 21.7025 28.6974C21.5057 28.947 21.3905 29.2062 21.3585 29.4766H22.0145C22.3313 29.4766 22.5985 29.5854 22.8145 29.803C23.0305 30.0206 23.1377 30.2862 23.1377 30.5982V31.0478C23.1377 31.3614 23.0289 31.6254 22.8097 31.843C22.5905 32.0606 22.3265 32.1694 22.0161 32.1694C21.7025 32.1694 21.4385 32.0606 21.2209 31.8446C21.0033 31.6286 20.8945 31.3646 20.8945 31.0542V29.7006C20.8945 29.1934 21.0641 28.747 21.4017 28.3646C21.6641 28.067 21.9521 27.8574 22.2625 27.7326C22.3489 27.699 22.4177 27.6814 22.4641 27.6814ZM21.3425 29.9278V31.051C21.3425 31.2398 21.4081 31.3982 21.5377 31.5294C21.6673 31.6606 21.8273 31.7246 22.0161 31.7246C22.2049 31.7246 22.3633 31.659 22.4945 31.5278C22.6241 31.3966 22.6897 31.2382 22.6897 31.051V30.6014C22.6897 30.4126 22.6241 30.2542 22.4929 30.123C22.3617 29.9934 22.2033 29.9278 22.0161 29.9278H21.3425Z" fill="#282828"/>
<path d="M24.2152 31.7229C24.3656 31.7229 24.4392 31.7965 24.4392 31.9437C24.4392 31.9645 24.3624 32.2829 24.2072 32.8989C24.18 33.0125 24.108 33.0685 23.9896 33.0685C23.8392 33.0685 23.7656 32.9933 23.7656 32.8445C23.7656 32.7421 23.8424 32.4253 23.9976 31.8925C24.0296 31.7789 24.1016 31.7229 24.2152 31.7229Z" fill="#282828"/>
<path d="M26.3716 27.6814C26.682 27.6814 26.9476 27.7902 27.1652 28.0094C27.3828 28.2286 27.4932 28.4926 27.4932 28.803C27.4932 29.0158 27.426 29.2318 27.2884 29.4494L25.874 31.7214H27.2692C27.4196 31.7214 27.4932 31.7966 27.4932 31.9454C27.4932 32.0958 27.418 32.1694 27.2692 32.1694H25.474C25.3236 32.1694 25.25 32.0942 25.25 31.9454C25.25 31.9006 25.2628 31.8574 25.2868 31.8158L26.9332 29.1726C27.0084 29.0526 27.0452 28.9294 27.0452 28.8014C27.0452 28.6158 26.9796 28.4574 26.8484 28.3246C26.7172 28.1934 26.5588 28.1278 26.3716 28.1278C26.1172 28.1278 25.8836 28.3166 25.6676 28.6926C25.6276 28.7646 25.562 28.8014 25.474 28.8014C25.3236 28.8014 25.25 28.7262 25.25 28.5774C25.25 28.5438 25.2564 28.5134 25.2708 28.4862C25.5476 27.9502 25.9156 27.6814 26.3716 27.6814Z" fill="#282828"/>
<path d="M29.4771 29.9278H29.0275C28.8771 29.9278 28.8035 29.8526 28.8035 29.7038C28.8035 29.555 28.8787 29.4798 29.0275 29.4798H29.4771C29.6659 29.4798 29.8242 29.4142 29.9554 29.2846C30.085 29.155 30.1506 28.995 30.1506 28.8062C30.1506 28.6206 30.085 28.4622 29.9538 28.3294C29.8226 28.1982 29.6643 28.1326 29.4771 28.1326H28.5795C28.4291 28.1326 28.3555 28.0574 28.3555 27.9086C28.3555 27.7598 28.4307 27.6846 28.5795 27.6846H29.4771C29.7874 27.6846 30.053 27.795 30.2706 28.0142C30.4882 28.2334 30.5986 28.499 30.5986 28.8062C30.5986 29.1774 30.4482 29.4782 30.149 29.7038C30.4482 29.931 30.5986 30.2302 30.5986 30.6014V31.051C30.5986 31.3614 30.4882 31.627 30.269 31.8446C30.0482 32.0638 29.7842 32.1726 29.4771 32.1726H28.5795C28.4291 32.1726 28.3555 32.0974 28.3555 31.9486C28.3555 31.7982 28.4307 31.7246 28.5795 31.7246H29.4771C29.6659 31.7246 29.8242 31.659 29.9554 31.5294C30.085 31.3998 30.1506 31.2398 30.1506 31.051V30.6014C30.1506 30.4158 30.085 30.2574 29.9538 30.1246C29.821 29.9934 29.6627 29.9278 29.4771 29.9278Z" fill="#282828"/>
<path d="M21.1133 66.7791V64.9823C21.1133 64.8335 21.1885 64.7583 21.3373 64.7583H22.9085C23.0589 64.7583 23.1325 64.8335 23.1325 64.9823C23.1325 65.1327 23.0573 65.2063 22.9085 65.2063H21.5613V66.5535H22.2349C22.5453 66.5535 22.8109 66.6639 23.0285 66.8831C23.2477 67.1039 23.3565 67.3679 23.3565 67.6751V68.1247C23.3565 68.4351 23.2461 68.7007 23.0269 68.9183C22.8061 69.1375 22.5421 69.2463 22.2349 69.2463H21.3373C21.1869 69.2463 21.1133 69.1711 21.1133 69.0223C21.1133 68.8735 21.1885 68.7983 21.3373 68.7983H22.2349C22.4237 68.7983 22.5821 68.7327 22.7133 68.6031C22.8429 68.4719 22.9085 68.3135 22.9085 68.1247V67.6751C22.9085 67.4895 22.8429 67.3311 22.7117 67.1983C22.5805 67.0671 22.4221 67.0015 22.2349 67.0015H21.3373C21.1885 67.0031 21.1133 66.9279 21.1133 66.7791Z" fill="#282828"/>
<path d="M24.4379 68.7983C24.5883 68.7983 24.6619 68.8719 24.6619 69.0191C24.6619 69.0399 24.5851 69.3583 24.4299 69.9744C24.4027 70.088 24.3307 70.144 24.2123 70.144C24.0619 70.144 23.9883 70.0688 23.9883 69.92C23.9883 69.8175 24.0651 69.5007 24.2203 68.9679C24.2507 68.8559 24.3243 68.7983 24.4379 68.7983Z" fill="#282828"/>
<path d="M25.9119 69.2478C25.8527 69.2478 25.8015 69.2254 25.7551 69.1806C25.7103 69.1358 25.6863 69.083 25.6863 69.0238C25.6863 68.9198 25.7231 68.8542 25.7983 68.8302C25.9615 68.7758 26.0975 68.7134 26.2063 68.643C26.6895 68.3294 26.9599 67.9326 27.0159 67.4526H26.3599C26.0495 67.4526 25.7839 67.3438 25.5663 67.1246C25.3471 66.9054 25.2383 66.6414 25.2383 66.331V65.8814C25.2383 65.571 25.3471 65.3054 25.5663 65.0878C25.7855 64.8686 26.0495 64.7598 26.3599 64.7598C26.6735 64.7598 26.9375 64.8686 27.1551 65.0846C27.3727 65.3006 27.4815 65.5646 27.4815 65.875V67.2286C27.4815 67.9902 27.1263 68.5934 26.4175 69.035C26.1887 69.1758 26.0207 69.2478 25.9119 69.2478ZM27.0335 67.003V65.8814C27.0335 65.6958 26.9679 65.5374 26.8367 65.4046C26.7055 65.2734 26.5471 65.2078 26.3599 65.2078C26.1743 65.2078 26.0159 65.2734 25.8831 65.4046C25.7503 65.5358 25.6863 65.6942 25.6863 65.8814V66.331C25.6863 66.5198 25.7519 66.6782 25.8815 66.8094C26.0111 66.939 26.1711 67.0046 26.3599 67.0046H27.0335V67.003Z" fill="#282828"/>
<path d="M28.3516 66.7791V64.9823C28.3516 64.8335 28.4268 64.7583 28.5756 64.7583H30.1468C30.2972 64.7583 30.3708 64.8335 30.3708 64.9823C30.3708 65.1327 30.2956 65.2063 30.1468 65.2063H28.7996V66.5535H29.4732C29.7836 66.5535 30.0492 66.6639 30.2668 66.8831C30.486 67.1039 30.5948 67.3679 30.5948 67.6751V68.1247C30.5948 68.4351 30.4844 68.7007 30.2652 68.9183C30.0444 69.1375 29.7804 69.2463 29.4732 69.2463H28.5756C28.4252 69.2463 28.3516 69.1711 28.3516 69.0223C28.3516 68.8735 28.4268 68.7983 28.5756 68.7983H29.4732C29.662 68.7983 29.8204 68.7327 29.9516 68.6031C30.0812 68.4719 30.1468 68.3135 30.1468 68.1247V67.6751C30.1468 67.4895 30.0812 67.3311 29.95 67.1983C29.8188 67.0671 29.6604 67.0015 29.4732 67.0015H28.5756C28.4268 67.0031 28.3516 66.9279 28.3516 66.7791Z" fill="#282828"/>
<path d="M92.1593 28.4513L91.6441 28.9681C91.6009 29.0097 91.5481 29.0321 91.4873 29.0321C91.3369 29.0321 91.2617 28.9569 91.2617 28.8081C91.2617 28.7473 91.2825 28.6945 91.3257 28.6513L92.2041 27.7745C92.2633 27.7153 92.3225 27.6865 92.3849 27.6865C92.5337 27.6865 92.6089 27.7617 92.6089 27.9105V31.9521C92.6089 32.1025 92.5337 32.1761 92.3849 32.1761C92.2345 32.1761 92.1609 32.1009 92.1609 31.9521V28.4513H92.1593Z" fill="#282828"/>
<path d="M94.6138 29.9263H94.1642C94.0138 29.9263 93.9402 29.8511 93.9402 29.7023C93.9402 29.5535 94.0154 29.4783 94.1642 29.4783H94.6138C94.8026 29.4783 94.961 29.4127 95.0922 29.2831C95.2234 29.1535 95.2874 28.9935 95.2874 28.8047C95.2874 28.6191 95.2218 28.4607 95.0906 28.3279C94.9594 28.1951 94.801 28.1311 94.6138 28.1311H93.7162C93.5658 28.1311 93.4922 28.0559 93.4922 27.9071C93.4922 27.7583 93.5674 27.6831 93.7162 27.6831H94.6138C94.9242 27.6831 95.1898 27.7935 95.4074 28.0127C95.6266 28.2319 95.7354 28.4975 95.7354 28.8047C95.7354 29.1759 95.5866 29.4767 95.2858 29.7023C95.585 29.9295 95.7354 30.2287 95.7354 30.5999V31.0495C95.7354 31.3599 95.625 31.6255 95.4058 31.8431C95.185 32.0623 94.921 32.1711 94.6138 32.1711H93.7162C93.5658 32.1711 93.4922 32.0959 93.4922 31.9471C93.4922 31.7967 93.5674 31.7231 93.7162 31.7231H94.6138C94.8026 31.7231 94.961 31.6575 95.0922 31.5279C95.2234 31.3983 95.2874 31.2383 95.2874 31.0495V30.5999C95.2874 30.4143 95.2218 30.2559 95.0906 30.1231C94.9594 29.9935 94.801 29.9263 94.6138 29.9263Z" fill="#282828"/>
<path d="M96.7543 31.7231C96.9047 31.7231 96.9783 31.7967 96.9783 31.9439C96.9783 31.9647 96.9015 32.2831 96.7463 32.8991C96.7191 33.0127 96.6471 33.0687 96.5287 33.0687C96.3783 33.0687 96.3047 32.9935 96.3047 32.8447C96.3047 32.7423 96.3815 32.4255 96.5367 31.8927C96.5687 31.7791 96.6407 31.7231 96.7543 31.7231Z" fill="#282828"/>
<path d="M98.981 29.9263H98.5314C98.381 29.9263 98.3074 29.8511 98.3074 29.7023C98.3074 29.5535 98.3826 29.4783 98.5314 29.4783H98.981C99.1698 29.4783 99.3282 29.4127 99.4594 29.2831C99.589 29.1535 99.6546 28.9935 99.6546 28.8047C99.6546 28.6191 99.589 28.4607 99.4578 28.3279C99.3266 28.1967 99.1682 28.1311 98.981 28.1311H98.0834C97.933 28.1311 97.8594 28.0559 97.8594 27.9071C97.8594 27.7583 97.9346 27.6831 98.0834 27.6831H98.981C99.2914 27.6831 99.557 27.7935 99.7746 28.0127C99.9938 28.2319 100.103 28.4975 100.103 28.8047C100.103 29.1759 99.9522 29.4767 99.653 29.7023C99.9522 29.9295 100.103 30.2287 100.103 30.5999V31.0495C100.103 31.3599 99.9922 31.6255 99.773 31.8431C99.5538 32.0607 99.2882 32.1711 98.981 32.1711H98.0834C97.933 32.1711 97.8594 32.0959 97.8594 31.9471C97.8594 31.7967 97.9346 31.7231 98.0834 31.7231H98.981C99.1698 31.7231 99.3282 31.6575 99.4594 31.5279C99.589 31.3983 99.6546 31.2383 99.6546 31.0495V30.5999C99.6546 30.4143 99.589 30.2559 99.4578 30.1231C99.325 29.9935 99.1666 29.9263 98.981 29.9263Z" fill="#282828"/>
<path d="M101.582 32.1727C101.523 32.1727 101.47 32.1503 101.425 32.1039C101.381 32.0591 101.358 32.0063 101.358 31.9471C101.358 31.8431 101.395 31.7775 101.47 31.7535C101.633 31.6991 101.769 31.6367 101.878 31.5663C102.361 31.2527 102.632 30.8559 102.688 30.3759H102.032C101.721 30.3759 101.456 30.2671 101.238 30.0479C101.019 29.8287 100.91 29.5647 100.91 29.2543V28.8047C100.91 28.4943 101.019 28.2287 101.238 28.0111C101.457 27.7919 101.721 27.6831 102.032 27.6831C102.345 27.6831 102.609 27.7919 102.827 28.0079C103.045 28.2239 103.153 28.4879 103.153 28.7983V30.1519C103.153 30.9135 102.798 31.5151 102.089 31.9583C101.861 32.1007 101.691 32.1727 101.582 32.1727ZM102.705 29.9263V28.8031C102.705 28.6175 102.64 28.4591 102.509 28.3263C102.377 28.1951 102.219 28.1295 102.032 28.1295C101.845 28.1295 101.688 28.1951 101.555 28.3263C101.424 28.4575 101.358 28.6159 101.358 28.8031V29.2527C101.358 29.4415 101.424 29.5999 101.553 29.7311C101.683 29.8623 101.843 29.9263 102.032 29.9263H102.705Z" fill="#282828"/>
<path d="M22.0278 113.987H21.5782C21.4278 113.987 21.3542 113.912 21.3542 113.763C21.3542 113.613 21.4294 113.539 21.5782 113.539H22.0278C22.2166 113.539 22.3751 113.474 22.5063 113.344C22.6359 113.215 22.7015 113.055 22.7015 112.866C22.7015 112.68 22.6359 112.522 22.5047 112.389C22.3735 112.258 22.215 112.192 22.0278 112.192H21.1302C20.9798 112.192 20.9062 112.117 20.9062 111.968C20.9062 111.819 20.9814 111.744 21.1302 111.744H22.0278C22.3382 111.744 22.6039 111.855 22.8215 112.074C23.0407 112.295 23.1495 112.559 23.1495 112.866C23.1495 113.237 22.9991 113.538 22.6999 113.763C22.9991 113.991 23.1495 114.29 23.1495 114.661V115.111C23.1495 115.421 23.0391 115.687 22.8199 115.904C22.5991 116.123 22.335 116.232 22.0278 116.232H21.1302C20.9798 116.232 20.9062 116.157 20.9062 116.008C20.9062 115.859 20.9814 115.784 21.1302 115.784H22.0278C22.2166 115.784 22.3751 115.719 22.5063 115.589C22.6359 115.458 22.7015 115.299 22.7015 115.111V114.661C22.7015 114.475 22.6359 114.317 22.5047 114.184C22.3719 114.053 22.2134 113.987 22.0278 113.987Z" fill="#282828"/>
<path d="M24.2191 115.781C24.3695 115.781 24.4431 115.854 24.4431 116.002C24.4431 116.022 24.3663 116.341 24.2111 116.957C24.1839 117.07 24.1119 117.126 23.9935 117.126C23.8431 117.126 23.7695 117.051 23.7695 116.902C23.7695 116.8 23.8463 116.483 24.0015 115.95C24.0319 115.838 24.1055 115.781 24.2191 115.781Z" fill="#282828"/>
<path d="M25.2422 113.762V111.965C25.2422 111.816 25.3174 111.741 25.4662 111.741H27.039C27.1894 111.741 27.263 111.816 27.263 111.965C27.263 112.115 27.1878 112.189 27.039 112.189H25.6918V113.536H26.3654C26.6758 113.536 26.9414 113.646 27.159 113.866C27.3782 114.086 27.487 114.35 27.487 114.658V115.107C27.487 115.418 27.3766 115.683 27.1574 115.901C26.9366 116.12 26.6726 116.229 26.3654 116.229H25.4678C25.3174 116.229 25.2438 116.154 25.2438 116.005C25.2438 115.856 25.319 115.781 25.4678 115.781H26.3654C26.5542 115.781 26.7126 115.715 26.8438 115.586C26.9734 115.454 27.039 115.296 27.039 115.107V114.658C27.039 114.472 26.9734 114.314 26.8422 114.181C26.711 114.05 26.5526 113.984 26.3654 113.984H25.4678C25.3174 113.986 25.2422 113.91 25.2422 113.762Z" fill="#282828"/>
<path d="M28.8546 112.507L28.3394 113.022C28.2962 113.064 28.2434 113.086 28.1826 113.086C28.0322 113.086 27.957 113.011 27.957 112.862C27.957 112.802 27.9778 112.749 28.021 112.706L28.8978 111.829C28.957 111.77 29.0162 111.741 29.0786 111.741C29.229 111.741 29.3026 111.816 29.3026 111.965V116.006C29.3026 116.157 29.2274 116.23 29.0786 116.23C28.9282 116.23 28.8546 116.155 28.8546 116.006V112.507Z" fill="#282828"/>
<path d="M59.2852 134.365C59.2852 134.339 59.2868 134.32 59.2916 134.304L60.1892 131.162C60.2212 131.053 60.2932 130.999 60.4068 130.999C60.5572 130.999 60.6308 131.074 60.6308 131.224C60.6308 131.245 60.6276 131.266 60.6228 131.288L59.8036 134.141H60.8548V133.467C60.8548 133.317 60.93 133.243 61.0788 133.243C61.2292 133.243 61.3028 133.319 61.3028 133.467V134.141H61.7524C61.9028 134.141 61.9764 134.216 61.9764 134.365C61.9764 134.514 61.9012 134.589 61.7524 134.589H61.3028V135.263C61.3028 135.413 61.2276 135.487 61.0788 135.487C60.9284 135.487 60.8548 135.411 60.8548 135.263V134.589H59.5076C59.3603 134.589 59.2852 134.514 59.2852 134.365Z" fill="#282828"/>
<path d="M62.7504 135.035C62.9008 135.035 62.9744 135.109 62.9744 135.256C62.9744 135.277 62.8976 135.595 62.7424 136.211C62.7152 136.325 62.6432 136.381 62.5248 136.381C62.3744 136.381 62.3008 136.306 62.3008 136.157C62.3008 136.054 62.3776 135.738 62.5328 135.205C62.5648 135.093 62.6368 135.035 62.7504 135.035Z" fill="#282828"/>
<path d="M64.279 135.485C64.2199 135.485 64.1687 135.462 64.1223 135.418C64.0775 135.373 64.0535 135.32 64.0535 135.261C64.0535 135.157 64.0903 135.091 64.1655 135.067C64.3287 135.013 64.4646 134.95 64.5734 134.88C65.0566 134.566 65.327 134.17 65.383 133.69H64.727C64.4167 133.69 64.1511 133.581 63.9335 133.362C63.7143 133.142 63.6055 132.878 63.6055 132.568V132.118C63.6055 131.808 63.7143 131.542 63.9335 131.325C64.1527 131.106 64.4167 130.997 64.727 130.997C65.0406 130.997 65.3046 131.106 65.5222 131.322C65.7398 131.538 65.8486 131.802 65.8486 132.112V133.466C65.8486 134.227 65.4934 134.83 64.7846 135.272C64.5558 135.413 64.3878 135.485 64.279 135.485ZM65.4006 133.24V132.118C65.4006 131.933 65.335 131.774 65.2038 131.642C65.0726 131.51 64.9142 131.445 64.727 131.445C64.5415 131.445 64.383 131.51 64.2503 131.642C64.1175 131.773 64.0535 131.931 64.0535 132.118V132.568C64.0535 132.757 64.1191 132.915 64.2486 133.046C64.3782 133.176 64.5383 133.242 64.727 133.242H65.4006V133.24Z" fill="#282828"/>
<path d="M67.7661 130.995C68.0765 130.995 68.3421 131.104 68.5597 131.323C68.7789 131.542 68.8878 131.806 68.8878 132.117C68.8878 132.33 68.8206 132.546 68.6829 132.763L67.2685 135.035H68.6638C68.8142 135.035 68.8878 135.11 68.8878 135.259C68.8878 135.408 68.8126 135.483 68.6638 135.483H66.8685C66.7181 135.483 66.6445 135.408 66.6445 135.259C66.6445 135.214 66.6573 135.171 66.6813 135.13L68.3278 132.486C68.403 132.366 68.4397 132.243 68.4397 132.115C68.4397 131.93 68.3741 131.771 68.2429 131.638C68.1117 131.507 67.9533 131.442 67.7661 131.442C67.5117 131.442 67.2781 131.63 67.0621 132.006C67.0221 132.078 66.9565 132.115 66.8685 132.115C66.7181 132.115 66.6445 132.04 66.6445 131.891C66.6445 131.858 66.6509 131.827 66.6653 131.8C66.9421 131.264 67.3101 130.995 67.7661 130.995Z" fill="#282828"/>
<path d="M95.9146 111.741C96.225 111.741 96.4906 111.85 96.7082 112.069C96.9274 112.288 97.0361 112.552 97.0361 112.862C97.0361 113.075 96.969 113.291 96.8314 113.509L95.417 115.781H96.8122C96.9626 115.781 97.0361 115.856 97.0361 116.005C97.0361 116.154 96.961 116.229 96.8122 116.229H95.017C94.8666 116.229 94.793 116.154 94.793 116.005C94.793 115.96 94.8058 115.917 94.8314 115.875L96.4778 113.232C96.553 113.112 96.5898 112.989 96.5898 112.861C96.5898 112.675 96.5242 112.517 96.393 112.384C96.2618 112.253 96.1034 112.187 95.9162 112.187C95.6618 112.187 95.4282 112.376 95.2122 112.752C95.1722 112.824 95.1066 112.861 95.0186 112.861C94.8682 112.861 94.7946 112.786 94.7946 112.637C94.7946 112.603 94.801 112.573 94.8154 112.546C95.0906 112.01 95.4586 111.741 95.9146 111.741Z" fill="#282828"/>
<path d="M98.2582 115.781C98.4087 115.781 98.4823 115.854 98.4823 116.002C98.4823 116.022 98.4055 116.341 98.2502 116.957C98.223 117.07 98.151 117.126 98.0326 117.126C97.8822 117.126 97.8086 117.051 97.8086 116.902C97.8086 116.8 97.8854 116.483 98.0406 115.95C98.0726 115.838 98.1446 115.781 98.2582 115.781Z" fill="#282828"/>
<path d="M100.745 111.741C100.894 111.741 100.969 111.816 100.969 111.965C100.969 112.077 100.933 112.141 100.857 112.158C100.525 112.242 100.233 112.442 99.9838 112.757C99.787 113.006 99.6718 113.266 99.6398 113.536H100.296C100.613 113.536 100.88 113.645 101.096 113.862C101.312 114.08 101.419 114.346 101.419 114.658V115.107C101.419 115.421 101.31 115.685 101.091 115.902C100.872 116.12 100.608 116.229 100.297 116.229C99.9838 116.229 99.7198 116.12 99.5022 115.904C99.2846 115.688 99.1758 115.424 99.1758 115.114V113.76C99.1758 113.253 99.3454 112.806 99.683 112.422C99.9454 112.125 100.233 111.915 100.544 111.79C100.629 111.757 100.697 111.741 100.745 111.741ZM99.6222 113.986V115.109C99.6222 115.298 99.6878 115.456 99.8174 115.587C99.947 115.717 100.107 115.782 100.296 115.782C100.485 115.782 100.643 115.717 100.774 115.586C100.904 115.454 100.969 115.296 100.969 115.109V114.659C100.969 114.47 100.904 114.312 100.773 114.181C100.641 114.051 100.483 113.986 100.296 113.986H99.6222Z" fill="#282828"/>
<path d="M102.702 112.507L102.187 113.022C102.144 113.064 102.091 113.086 102.03 113.086C101.88 113.086 101.805 113.011 101.805 112.862C101.805 112.802 101.825 112.749 101.869 112.706L102.747 111.829C102.806 111.77 102.866 111.741 102.928 111.741C103.077 111.741 103.152 111.816 103.152 111.965V116.006C103.152 116.157 103.077 116.23 102.928 116.23C102.778 116.23 102.704 116.155 102.704 116.006V112.507H102.702Z" fill="#282828"/>
</svg>
