<svg width="160" height="160" viewBox="0 0 160 160" fill="none" xmlns="http://www.w3.org/2000/svg">
<g clip-path="url(#clip0_286_18124)">
<path d="M107.5 66.304H119.335C119.335 67.0832 119.255 71.2832 115.854 74.6592C112.465 78.0224 108.282 78.08 107.5 78.0768" stroke="#282828" stroke-width="0.96" stroke-miterlimit="10" stroke-linecap="round" stroke-linejoin="round"/>
<path d="M96.2964 81.304V93.1392C95.5172 93.1392 91.3171 93.0592 87.9411 89.6576C84.5779 86.2688 84.5203 82.0864 84.5235 81.304" stroke="#282828" stroke-width="0.96" stroke-miterlimit="10" stroke-linecap="round" stroke-linejoin="round"/>
<path d="M52.3707 54.0258H46.4219C46.4251 53.6274 46.4859 51.5298 48.1947 49.8482C49.8907 48.1778 51.9691 48.1394 52.3723 48.1394C51.9515 48.133 49.8811 48.053 48.1947 46.3666C46.5083 44.6802 46.4299 42.6098 46.4219 42.189H52.3707" stroke="#282828" stroke-width="0.96" stroke-miterlimit="10" stroke-linecap="round" stroke-linejoin="round"/>
<path d="M30.2227 53.709H39.7795C39.7283 52.4482 39.4307 49.9666 37.6915 47.7602C37.1443 47.0658 36.5875 46.5682 36.1731 46.2418C33.9667 44.501 31.4851 44.2034 30.2243 44.1538" stroke="#282828" stroke-width="0.96" stroke-miterlimit="10" stroke-linecap="round" stroke-linejoin="round"/>
<path d="M135.031 138.075H153.641V114.848" stroke="#282828" stroke-width="0.96" stroke-miterlimit="10" stroke-linecap="round" stroke-linejoin="round"/>
<path d="M153.64 136.936H134.523" stroke="#282828" stroke-width="0.96" stroke-miterlimit="10" stroke-linecap="round" stroke-linejoin="round"/>
<path d="M152.504 114.405V138.075" stroke="#282828" stroke-width="0.96" stroke-miterlimit="10" stroke-linecap="round" stroke-linejoin="round"/>
<path d="M157.557 141.922L153.641 138.075" stroke="#282828" stroke-width="0.96" stroke-miterlimit="10" stroke-linecap="round" stroke-linejoin="round"/>
<path d="M152.502 114.405H153.641V115.355H157.558V141.922H135.475V138.077L134.524 138.075V136.936H133.828V133.899H149.527V113.266H152.502V114.405Z" stroke="#282828" stroke-width="0.96" stroke-miterlimit="10" stroke-linecap="round" stroke-linejoin="round"/>
<path d="M103.07 133.899H79.1484V136.938H103.07V133.899Z" stroke="#282828" stroke-width="0.96" stroke-miterlimit="10" stroke-linecap="round" stroke-linejoin="round"/>
<path d="M101.868 138.075H80.3516V141.922H101.868V138.075Z" stroke="#282828" stroke-width="0.96" stroke-miterlimit="10" stroke-linecap="round" stroke-linejoin="round"/>
<path d="M49.3996 133.899H25.4844V136.938H49.3996V133.899Z" stroke="#282828" stroke-width="0.96" stroke-miterlimit="10" stroke-linecap="round" stroke-linejoin="round"/>
<path d="M48.1979 138.075H26.6875V141.922H48.1979V138.075Z" stroke="#282828" stroke-width="0.96" stroke-miterlimit="10" stroke-linecap="round" stroke-linejoin="round"/>
<path d="M45.5373 23.2657C45.5549 22.1969 45.4493 20.5585 44.7773 18.7089C44.6141 18.2577 43.9549 16.5265 42.4349 14.7217C41.7197 13.8721 41.0669 13.3073 40.7901 13.0769C40.2589 12.6337 38.8829 11.5569 36.8029 10.7985C34.9645 10.1281 33.3357 9.98407 32.2461 9.97607C32.2461 14.4065 32.2461 18.8369 32.2461 23.2673" stroke="#282828" stroke-width="0.96" stroke-miterlimit="10" stroke-linecap="round" stroke-linejoin="round"/>
<path d="M93.7231 149.389V141.922H93.4062V149.389H93.7231Z" stroke="#282828" stroke-width="0.96" stroke-miterlimit="10" stroke-linecap="round" stroke-linejoin="round"/>
<path d="M97.7973 149.389V141.922H97.4805V149.389H97.7973Z" stroke="#282828" stroke-width="0.96" stroke-miterlimit="10" stroke-linecap="round" stroke-linejoin="round"/>
<path d="M89.6527 141.922H89.3359V149.706H101.867V141.922H101.552V149.389H89.6527V141.922Z" stroke="#282828" stroke-width="0.96" stroke-miterlimit="10" stroke-linecap="round" stroke-linejoin="round"/>
<path d="M40.0496 149.389V141.922H39.7344V149.389H40.0496Z" stroke="#282828" stroke-width="0.96" stroke-miterlimit="10" stroke-linecap="round" stroke-linejoin="round"/>
<path d="M44.1215 149.389V141.922H43.8047V149.389H44.1215Z" stroke="#282828" stroke-width="0.96" stroke-miterlimit="10" stroke-linecap="round" stroke-linejoin="round"/>
<path d="M35.9793 141.922H35.6641V149.706H48.1953V141.922H47.8785V149.389H35.9793V141.922Z" stroke="#282828" stroke-width="0.96" stroke-miterlimit="10" stroke-linecap="round" stroke-linejoin="round"/>
<path d="M53.5742 31.0512H57.7518V26.304H53.5742V31.0512Z" fill="white" stroke="#282828" stroke-width="0.56" stroke-miterlimit="10" stroke-linecap="round" stroke-linejoin="round"/>
<path d="M53.5742 26.304V31.0512L54.571 27.5456L57.7518 26.304H53.5742Z" fill="#282828"/>
<path d="M14.9688 26.304V35.2271H21.1719V26.304H14.9688Z" fill="white" stroke="#282828" stroke-width="0.96" stroke-miterlimit="10" stroke-linecap="round" stroke-linejoin="round"/>
<path d="M15.75 27H20.3868V30.7344H15.75V27Z" fill="white" stroke="#282828" stroke-width="0.96" stroke-miterlimit="10" stroke-linecap="round" stroke-linejoin="round"/>
<path d="M15.75 34.4688V31.4944H20.3868V34.4688H15.75Z" fill="white" stroke="#282828" stroke-width="0.96" stroke-miterlimit="10" stroke-linecap="round" stroke-linejoin="round"/>
<path d="M21.1719 26.304V35.2271H27.3095V26.304H21.1719Z" fill="white" stroke="#282828" stroke-width="0.96" stroke-miterlimit="10" stroke-linecap="round" stroke-linejoin="round"/>
<path d="M21.8906 27H26.5258V30.7344H21.8906V27Z" fill="white" stroke="#282828" stroke-width="0.96" stroke-miterlimit="10" stroke-linecap="round" stroke-linejoin="round"/>
<path d="M21.8906 34.4688V31.4944H26.5258V34.4688H21.8906Z" fill="white" stroke="#282828" stroke-width="0.96" stroke-miterlimit="10" stroke-linecap="round" stroke-linejoin="round"/>
<path d="M59.2109 32.5696H68.5773V26.304H59.2109V32.5696Z" fill="white" stroke="#282828" stroke-width="0.96" stroke-miterlimit="10" stroke-linecap="round" stroke-linejoin="round"/>
<path d="M60.0039 31.7776V27.0959H63.8951V31.7776H60.0039Z" fill="white" stroke="#282828" stroke-width="0.96" stroke-miterlimit="10" stroke-linecap="round" stroke-linejoin="round"/>
<path d="M67.7867 31.7775H64.6875V27.0959H67.7867V31.7775Z" fill="white" stroke="#282828" stroke-width="0.96" stroke-miterlimit="10" stroke-linecap="round" stroke-linejoin="round"/>
<path d="M60.1555 103.139H59.3555" stroke="#282828" stroke-width="0.96" stroke-linecap="round" stroke-linejoin="round"/>
<path d="M57.7688 103.139H4.59766" stroke="#282828" stroke-width="0.96" stroke-linecap="round" stroke-linejoin="round" stroke-dasharray="9.92 9.92"/>
<path d="M3.80391 103.139H3.00391" stroke="#282828" stroke-width="0.96" stroke-linecap="round" stroke-linejoin="round"/>
<path d="M60.1562 65.1648V65.9648" stroke="#282828" stroke-width="0.96" stroke-linecap="round" stroke-linejoin="round"/>
<path d="M60.1562 67.4463V78.5599" stroke="#282828" stroke-width="0.96" stroke-linecap="round" stroke-linejoin="round" stroke-dasharray="9.26 9.26"/>
<path d="M60.1562 79.3008V80.1008" stroke="#282828" stroke-width="0.96" stroke-linecap="round" stroke-linejoin="round"/>
<path d="M30.2188 65.1648H31.0188" stroke="#282828" stroke-width="0.96" stroke-linecap="round" stroke-linejoin="round"/>
<path d="M32.5977 65.1648H50.7785" stroke="#282828" stroke-width="0.96" stroke-linecap="round" stroke-linejoin="round" stroke-dasharray="9.88 9.88"/>
<path d="M51.5703 65.1648H52.3703" stroke="#282828" stroke-width="0.96" stroke-linecap="round" stroke-linejoin="round"/>
<path d="M107.499 118.962V98.0752H106.359V118.962H107.499Z" fill="#282828"/>
<path d="M107.499 80.1008V78.8992H106.359V80.1008H107.499Z" fill="#282828"/>
<path d="M134.587 53.2031H103.195V56.1775H106.36V65.4815H107.499V56.1775H134.587V53.2031Z" fill="#282828"/>
<path d="M104.526 80.1008H97.1211V81.304H104.526V80.1008Z" fill="#282828"/>
<path d="M60.1562 80.1008V109.974H61.3594V81.304H83.7018V80.1008H60.1562Z" fill="#282828"/>
<path d="M52.375 65.165V54.8481H53.5766V63.9618H71.8054V56.1777H73.007V65.165H52.375Z" fill="#282828"/>
<path d="M46.3594 23.2656V26.304H52.3722V41.368H53.5754V32.5712H59.209V26.304H71.8042V53.2032H74.7786V23.2672H46.3594V23.2656ZM57.7514 31.0512H53.5738V26.304H57.7514V31.0512Z" fill="#282828"/>
<path d="M30.2216 54.5312H29.0184V65.7344H3.00565V62.1904H0.03125V109.974H3.00565V67.2528H30.2216V54.5312Z" fill="#282828"/>
<path d="M31.4232 23.2656H11.9928L11.9944 32.2528H0.03125V35.2272H14.9688V26.304H29.0184V43.3296H30.2216V26.304H31.4232V23.2656Z" fill="#282828"/>
<path d="M103.195 56.1775H134.587V53.2031H103.195V56.1775Z" fill="#282828"/>
<g opacity="0.8">
<path opacity="0.8" d="M11.9922 85.7761C12.1266 85.7761 12.2338 85.9633 12.2338 86.1937V93.1281C12.2338 93.3585 12.125 93.5457 11.9922 93.5457" stroke="#282828" stroke-width="0.48" stroke-miterlimit="10" stroke-linecap="round" stroke-linejoin="round"/>
<path opacity="0.8" d="M11.9863 85.1697H3.00391V94.1521H11.9863V85.1697Z" stroke="#282828" stroke-width="0.48" stroke-miterlimit="10" stroke-linecap="round" stroke-linejoin="round"/>
<path opacity="0.8" d="M3.75391 92.7969V86.5249C3.75391 86.1121 4.08991 85.7761 4.50271 85.7761H10.4899C10.9027 85.7761 11.2387 86.1121 11.2387 86.5249V92.7969C11.2387 93.2097 10.9043 93.5457 10.4899 93.5457H4.50271C4.08991 93.5441 3.75391 93.2097 3.75391 92.7969Z" stroke="#282828" stroke-width="0.48" stroke-miterlimit="10" stroke-linecap="round" stroke-linejoin="round"/>
<path opacity="0.8" d="M5.78546 88.8898C5.09746 88.8898 4.53906 88.3314 4.53906 87.6434C4.53906 86.9554 5.09586 86.397 5.78546 86.397C6.47506 86.397 7.03186 86.9554 7.03186 87.6434C7.03186 88.333 6.47506 88.8898 5.78546 88.8898Z" stroke="#282828" stroke-width="0.48" stroke-miterlimit="10" stroke-linecap="round" stroke-linejoin="round"/>
<path opacity="0.8" d="M6.02866 92.9233C5.20626 92.9233 4.53906 92.2561 4.53906 91.4337C4.53906 90.6113 5.20626 89.9441 6.02866 89.9441C6.85266 89.9441 7.51826 90.6113 7.51826 91.4337C7.51826 92.2577 6.85266 92.9233 6.02866 92.9233Z" stroke="#282828" stroke-width="0.48" stroke-miterlimit="10" stroke-linecap="round" stroke-linejoin="round"/>
<path opacity="0.8" d="M9.20733 88.8898C8.51934 88.8898 7.96094 88.3314 7.96094 87.6434C7.96094 86.9554 8.51934 86.397 9.20733 86.397C9.89533 86.397 10.4537 86.9554 10.4537 87.6434C10.4537 88.333 9.89533 88.8898 9.20733 88.8898Z" stroke="#282828" stroke-width="0.48" stroke-miterlimit="10" stroke-linecap="round" stroke-linejoin="round"/>
<path opacity="0.8" d="M9.45844 92.4274C8.90964 92.4274 8.46484 91.9826 8.46484 91.4338C8.46484 90.885 8.90964 90.4402 9.45844 90.4402C10.0072 90.4402 10.4504 90.885 10.4504 91.4338C10.452 91.9826 10.0072 92.4274 9.45844 92.4274Z" stroke="#282828" stroke-width="0.48" stroke-miterlimit="10" stroke-linecap="round" stroke-linejoin="round"/>
</g>
<g opacity="0.8">
<path opacity="0.8" d="M3.00391 54.8144H7.88071C8.80871 54.8144 9.65031 54.0176 10.0359 52.7744L10.1575 52.3856C10.6087 50.9296 10.5991 49.2544 10.1287 47.8128C9.73511 46.6032 8.90471 45.832 7.99271 45.832H3.00391V54.8144Z" stroke="#282828" stroke-width="0.48" stroke-miterlimit="10" stroke-linecap="round" stroke-linejoin="round"/>
<path opacity="0.8" d="M4.75391 50.8688V54.0256H7.75391C8.4755 54.0256 9.1315 53.368 9.4323 52.344L9.5251 52.024C9.8771 50.824 9.8691 49.4432 9.5027 48.2544C9.1955 47.2576 8.5491 46.6208 7.8403 46.6208H4.75391V49.1728" stroke="#282828" stroke-width="0.48" stroke-miterlimit="10" stroke-linecap="round" stroke-linejoin="round"/>
<path opacity="0.8" d="M3.86951 49.7039L3.66951 49.6879C3.35111 49.6623 3.05031 49.9023 3.00871 50.2527C3.00551 50.2767 3.00391 50.2991 3.00391 50.3231C3.00391 50.3471 3.00551 50.3695 3.00871 50.3935C3.04871 50.7439 3.35111 50.9839 3.66951 50.9583L7.12391 50.6735C7.23431 50.6735 7.32231 50.5743 7.32231 50.4527V50.1935C7.32231 50.0719 7.23431 49.9727 7.12391 49.9727L5.34791 49.8255" stroke="#282828" stroke-width="0.48" stroke-miterlimit="10" stroke-linecap="round" stroke-linejoin="round"/>
<path opacity="0.8" d="M5.55465 49.0383L5.69225 49.2687C5.77705 49.4095 5.73065 49.5951 5.58985 49.6783L3.84905 50.7263C3.70665 50.8111 3.52265 50.7663 3.43785 50.6239L3.30025 50.3951C3.21545 50.2543 3.26186 50.0687 3.40265 49.9839L5.14345 48.9359C5.28425 48.8527 5.46985 48.8991 5.55465 49.0383Z" stroke="#282828" stroke-width="0.48" stroke-miterlimit="10" stroke-linecap="round" stroke-linejoin="round"/>
<path opacity="0.8" d="M8.53944 49.8735C8.78744 49.8735 8.98744 50.0751 8.98744 50.3231C8.98744 50.5695 8.78744 50.7711 8.53944 50.7711C8.29144 50.7711 8.08984 50.5711 8.08984 50.3231C8.09144 50.0751 8.29144 49.8735 8.53944 49.8735Z" stroke="#282828" stroke-width="0.48" stroke-miterlimit="10" stroke-linecap="round" stroke-linejoin="round"/>
</g>
<g opacity="0.8">
<path opacity="0.8" d="M4.28906 60.5422V61.635" stroke="#282828" stroke-width="0.48" stroke-miterlimit="10" stroke-linecap="round" stroke-linejoin="round"/>
<path opacity="0.8" d="M4.28906 62.1199V64.3791C4.28906 64.6879 4.55946 64.9375 4.89066 64.9375H22.3675C23.5595 64.9375 24.7115 64.5263 25.5947 63.7839C27.6907 62.0223 27.6907 58.9711 25.5947 57.2095C24.7115 56.4671 23.5611 56.0559 22.3675 56.0559H4.89066C4.55786 56.0559 4.28906 56.3055 4.28906 56.6143V59.2591" stroke="#282828" stroke-width="0.48" stroke-miterlimit="10" stroke-linecap="round" stroke-linejoin="round"/>
<path opacity="0.8" d="M28.4519 55.2559H3.00391V65.7343H28.4519V55.2559Z" stroke="#282828" stroke-width="0.48" stroke-miterlimit="10" stroke-linecap="round" stroke-linejoin="round"/>
<path opacity="0.8" d="M8.18919 60.4942C8.18919 60.7902 7.94919 61.0302 7.65319 61.0302C7.35719 61.0302 7.11719 60.7902 7.11719 60.4942C7.11719 60.1983 7.35719 59.9583 7.65319 59.9583C7.94919 59.9583 8.18919 60.1983 8.18919 60.4942Z" stroke="#282828" stroke-width="0.48" stroke-miterlimit="10" stroke-linecap="round" stroke-linejoin="round"/>
<path opacity="0.8" d="M3.00391 61.635V62.1198H3.79271H3.84711H5.09351C5.09351 62.1198 5.34951 62.1102 5.34951 61.8782C5.34951 61.6462 5.09351 61.635 5.09351 61.635H3.84711H3.79271H3.50311" stroke="#282828" stroke-width="0.48" stroke-miterlimit="10" stroke-linecap="round" stroke-linejoin="round"/>
<g opacity="0.8">
<path opacity="0.8" d="M3.68071 59.6223L3.52391 59.6095C3.27431 59.5887 3.03911 59.7775 3.00711 60.0511C3.00551 60.0703 3.00391 60.0879 3.00391 60.1071C3.00391 60.1263 3.00551 60.1439 3.00711 60.1631C3.03911 60.4383 3.27591 60.6255 3.52391 60.6063L6.22951 60.3823C6.31591 60.3823 6.38471 60.3055 6.38471 60.2095V60.0063C6.38471 59.9103 6.31431 59.8335 6.22951 59.8335L4.85831 59.7199" stroke="#282828" stroke-width="0.48" stroke-miterlimit="10" stroke-linecap="round" stroke-linejoin="round"/>
<path opacity="0.8" d="M4.94713 59.2094L4.99513 59.2894C5.07993 59.4302 5.03353 59.6158 4.89273 59.7006L3.80633 60.355C3.66553 60.4398 3.47993 60.3934 3.39513 60.2542L3.34713 60.1742C3.26233 60.035 3.30873 59.8494 3.44953 59.7646L4.53593 59.1102C4.67673 59.0238 4.86233 59.0686 4.94713 59.2094Z" stroke="#282828" stroke-width="0.48" stroke-miterlimit="10" stroke-linecap="round" stroke-linejoin="round"/>
<path opacity="0.8" d="M3.66682 59.6366C3.64602 59.2542 3.60762 58.7582 3.54042 58.6254C3.44602 58.4398 3.18362 58.523 3.18362 58.523H3.01562V61.6926H3.18362C3.18362 61.6926 3.44602 61.7742 3.54042 61.5886C3.60602 61.4574 3.64602 60.9742 3.66682 60.5934" stroke="#282828" stroke-width="0.48" stroke-miterlimit="10" stroke-linecap="round" stroke-linejoin="round"/>
</g>
<path opacity="0.8" d="M4.28906 62.3279C4.44746 62.6111 4.74986 62.8015 5.09706 62.8015C5.60746 62.8015 6.02346 62.3871 6.02346 61.8767C6.02346 61.3663 5.60906 60.9519 5.09706 60.9519C4.74986 60.9519 4.44746 61.1423 4.28906 61.4255" stroke="#282828" stroke-width="0.48" stroke-miterlimit="10" stroke-linecap="round" stroke-linejoin="round"/>
</g>
<g opacity="0.8">
<path opacity="0.8" d="M4.76562 43.6016H9.75283C10.2968 43.6016 10.8344 43.4656 11.316 43.1904C12.0024 42.7968 12.7352 42.0416 12.7352 40.608C12.7352 39.1728 12.0024 38.4176 11.316 38.024C10.8344 37.7488 10.2968 37.6128 9.75283 37.6128H4.76562" stroke="#282828" stroke-width="0.48" stroke-miterlimit="10" stroke-linecap="round" stroke-linejoin="round"/>
<path opacity="0.8" d="M6.47656 42.6736C6.47656 42.928 6.66696 43.1328 6.90376 43.1328H9.59017C10.0782 43.1328 10.5614 43.0176 10.995 42.7856C11.6126 42.4544 12.2702 41.8176 12.2702 40.608C12.2702 39.3985 11.6126 38.7617 10.995 38.4305C10.5614 38.1969 10.0782 38.0833 9.59017 38.0833H6.90376C6.66696 38.0833 6.47656 38.2881 6.47656 38.5425V42.6736Z" stroke="#282828" stroke-width="0.48" stroke-miterlimit="10" stroke-linecap="round" stroke-linejoin="round"/>
<path opacity="0.8" d="M9.54688 41.2144C9.54688 41.2896 9.60287 41.3504 9.67167 41.3504H10.4605C10.6045 41.3504 10.7469 41.3168 10.8733 41.248C11.0541 41.152 11.2477 40.9632 11.2477 40.6096C11.2477 40.2544 11.0541 40.0656 10.8733 39.9696C10.7453 39.9008 10.6029 39.8672 10.4605 39.8672H9.67167C9.60287 39.8672 9.54688 39.928 9.54688 40.0016V41.2144Z" stroke="#282828" stroke-width="0.48" stroke-miterlimit="10" stroke-linecap="round" stroke-linejoin="round"/>
<path opacity="0.8" d="M5.95856 41.5007C6.08656 41.5007 6.18896 41.6127 6.18896 41.7503C6.18896 41.8863 6.08656 41.9983 5.95856 41.9983C5.83056 41.9983 5.72656 41.8863 5.72656 41.7503C5.72656 41.6111 5.83056 41.5007 5.95856 41.5007Z" stroke="#282828" stroke-width="0.48" stroke-miterlimit="10" stroke-linecap="round" stroke-linejoin="round"/>
<path opacity="0.8" d="M5.95856 39.2175C6.08656 39.2175 6.18896 39.3295 6.18896 39.4671C6.18896 39.6031 6.08656 39.7151 5.95856 39.7151C5.83056 39.7151 5.72656 39.6031 5.72656 39.4671C5.72656 39.3279 5.83056 39.2175 5.95856 39.2175Z" stroke="#282828" stroke-width="0.48" stroke-miterlimit="10" stroke-linecap="round" stroke-linejoin="round"/>
<path opacity="0.8" d="M5.34951 37.9154V43.3042C5.34951 43.469 5.21511 43.6034 5.05031 43.6034H3.30311C3.13831 43.6034 3.00391 43.469 3.00391 43.3042V37.9154C3.00391 37.749 3.13831 37.6162 3.30311 37.6162H5.05031C5.21511 37.6162 5.34951 37.749 5.34951 37.9154Z" stroke="#282828" stroke-width="0.48" stroke-miterlimit="10" stroke-linecap="round" stroke-linejoin="round"/>
<path opacity="0.8" d="M4.17616 40.1584C4.42416 40.1584 4.62576 40.36 4.62576 40.608C4.62576 40.856 4.42576 41.0576 4.17616 41.0576C3.92816 41.0576 3.72656 40.856 3.72656 40.608C3.72656 40.36 3.92816 40.1584 4.17616 40.1584Z" stroke="#282828" stroke-width="0.48" stroke-miterlimit="10" stroke-linecap="round" stroke-linejoin="round"/>
</g>
<g opacity="0.8">
<path opacity="0.8" d="M17.9408 67.2544H5.96484V76.2368H17.9408V67.2544Z" stroke="#282828" stroke-width="0.48" stroke-miterlimit="10" stroke-linecap="round" stroke-linejoin="round"/>
<path opacity="0.8" d="M7.55579 75.5038H16.351C16.7638 75.5038 17.0998 75.1678 17.0998 74.755V68.7678C17.0998 68.355 16.7654 68.019 16.351 68.019H7.55579C7.14299 68.019 6.80859 68.3534 6.80859 68.7678V74.755C6.80859 75.1678 7.14299 75.5038 7.55579 75.5038Z" stroke="#282828" stroke-width="0.48" stroke-miterlimit="10" stroke-linecap="round" stroke-linejoin="round"/>
<path opacity="0.8" d="M13.3398 71.7616C13.3398 72.0576 13.5798 72.2976 13.8758 72.2976C14.1718 72.2976 14.4118 72.0576 14.4118 71.7616C14.4118 71.4656 14.1718 71.2256 13.8758 71.2256C13.5798 71.2256 13.3398 71.4656 13.3398 71.7616Z" stroke="#282828" stroke-width="0.48" stroke-miterlimit="10" stroke-linecap="round" stroke-linejoin="round"/>
<path opacity="0.8" d="M10.3265 74.2991H7.46094" stroke="#282828" stroke-width="0.48" stroke-miterlimit="10" stroke-linecap="round" stroke-linejoin="round"/>
<path opacity="0.8" d="M10.3265 73.5903H7.46094" stroke="#282828" stroke-width="0.48" stroke-miterlimit="10" stroke-linecap="round" stroke-linejoin="round"/>
<path opacity="0.8" d="M10.3265 72.8784H7.46094" stroke="#282828" stroke-width="0.48" stroke-miterlimit="10" stroke-linecap="round" stroke-linejoin="round"/>
<path opacity="0.8" d="M10.3265 72.168H7.46094" stroke="#282828" stroke-width="0.48" stroke-miterlimit="10" stroke-linecap="round" stroke-linejoin="round"/>
<path opacity="0.8" d="M10.3265 71.4575H7.46094" stroke="#282828" stroke-width="0.48" stroke-miterlimit="10" stroke-linecap="round" stroke-linejoin="round"/>
<path opacity="0.8" d="M10.3265 70.7471H7.46094" stroke="#282828" stroke-width="0.48" stroke-miterlimit="10" stroke-linecap="round" stroke-linejoin="round"/>
<path opacity="0.8" d="M10.3198 69.2192L10.1918 69.1104C10.0238 68.968 9.99339 68.7024 10.1454 68.512C10.155 68.4992 10.1662 68.4864 10.1774 68.4752C10.1886 68.4624 10.2014 68.4528 10.2142 68.4416C10.4046 68.2896 10.6702 68.3216 10.8126 68.4896L12.3614 70.3168C12.4158 70.3696 12.411 70.4608 12.3518 70.5216L12.2254 70.648C12.1646 70.7072 12.0734 70.712 12.0206 70.6576L11.1022 69.88" stroke="#282828" stroke-width="0.48" stroke-miterlimit="10" stroke-linecap="round" stroke-linejoin="round"/>
<path opacity="0.8" d="M10.8977 70.3136C11.0577 70.2752 11.1553 70.1104 11.1169 69.9504L10.8225 68.7664C10.7841 68.6064 10.6209 68.5088 10.4609 68.5488C10.3009 68.5888 10.2033 68.752 10.2433 68.912L10.5377 70.0944C10.5745 70.256 10.7361 70.3536 10.8977 70.3136Z" stroke="#282828" stroke-width="0.48" stroke-miterlimit="10" stroke-linecap="round" stroke-linejoin="round"/>
<path opacity="0.8" d="M10.9883 70.2752V74.4288C10.9883 74.8416 11.3227 75.1776 11.7355 75.1776H16.0475C16.4603 75.1776 16.7963 74.8416 16.7963 74.4288V69.0928C16.7963 68.68 16.4603 68.344 16.0475 68.344H11.7355C11.4347 68.344 11.1755 68.5216 11.0571 68.7776" stroke="#282828" stroke-width="0.48" stroke-miterlimit="10" stroke-linecap="round" stroke-linejoin="round"/>
</g>
<path d="M0.03125 62.1905H3.00565V35.2273H0.03125V62.1905Z" fill="#282828" stroke="#282828" stroke-width="1.12" stroke-miterlimit="10" stroke-linecap="round" stroke-linejoin="round"/>
<path d="M79.9073 138.075V136.936H79.1489V133.899H61.3601V109.975H58.3217V133.899H49.3985V136.936H48.6385V138.075H48.1953V144.405H64.0225V141.416H80.3505V138.075H79.9073Z" fill="#282828" stroke="#282828" stroke-width="1.12" stroke-miterlimit="10" stroke-linecap="round" stroke-linejoin="round"/>
<path d="M103.193 56.1775V53.2031H71.8008V56.1775H103.193Z" fill="#282828" stroke="#282828" stroke-width="1.12" stroke-miterlimit="10" stroke-linecap="round" stroke-linejoin="round"/>
<path d="M135.03 138.075V136.936H133.826V133.899H107.501V118.962H104.526V133.899H103.07V136.936H102.31V138.075H101.867V144.405H117.69V141.416L135.474 141.384V138.075H135.03Z" fill="#282828" stroke="#282828" stroke-width="1.12" stroke-miterlimit="10" stroke-linecap="round" stroke-linejoin="round"/>
<path d="M104.527 98.0755H107.502V80.1011H104.527V98.0755Z" fill="#282828" stroke="#282828" stroke-width="1.12" stroke-miterlimit="10" stroke-linecap="round" stroke-linejoin="round"/>
<path d="M160.029 53.2031H134.586V56.1775H149.524V113.266H152.498V114.405H153.637V115.354H157.048V98.0031H160.029V53.2031Z" fill="#282828" stroke="#282828" stroke-width="1.12" stroke-miterlimit="10" stroke-linecap="round" stroke-linejoin="round"/>
<path d="M26.244 138.075V136.936H25.484V133.899H3.00565V109.975H0.03125V144.405H10.2328V141.416H26.6872V138.075H26.244Z" fill="#282828" stroke="#282828" stroke-width="1.12" stroke-miterlimit="10" stroke-linecap="round" stroke-linejoin="round"/>
<path d="M0.03125 62.1905H3.00565V35.2273H0.03125V62.1905Z" fill="#282828" stroke="#282828" stroke-width="1.12" stroke-miterlimit="10" stroke-linecap="round" stroke-linejoin="round"/>
<path d="M103.193 56.1775V53.2031H71.8008V56.1775H103.193Z" fill="#282828" stroke="#282828" stroke-width="1.12" stroke-miterlimit="10" stroke-linecap="round" stroke-linejoin="round"/>
<path d="M38.227 34.0769H37.8462C37.7198 34.0769 37.6558 34.0129 37.6558 33.8865C37.6558 33.7601 37.7198 33.6961 37.8462 33.6961H38.227C38.387 33.6961 38.523 33.6401 38.6334 33.5297C38.7438 33.4193 38.7998 33.2833 38.7998 33.1233C38.7998 32.9649 38.7438 32.8305 38.6318 32.7185C38.5198 32.6065 38.3854 32.5505 38.227 32.5505H37.4638C37.3374 32.5505 37.2734 32.4865 37.2734 32.3601C37.2734 32.2337 37.3374 32.1697 37.4638 32.1697H38.227C38.491 32.1697 38.7166 32.2625 38.9022 32.4497C39.0878 32.6369 39.1806 32.8609 39.1806 33.1233C39.1806 33.4401 39.0542 33.6929 38.7998 33.8865C39.0542 34.0785 39.1806 34.3329 39.1806 34.6497V35.0305C39.1806 35.2945 39.0878 35.5201 38.9006 35.7057C38.7134 35.8913 38.4894 35.9841 38.227 35.9841H37.4638C37.3374 35.9841 37.2734 35.9201 37.2734 35.7937C37.2734 35.6673 37.3374 35.6033 37.4638 35.6033H38.227C38.387 35.6033 38.523 35.5473 38.6334 35.4369C38.7438 35.3265 38.7998 35.1905 38.7998 35.0305V34.6497C38.7998 34.4913 38.7438 34.3569 38.6318 34.2449C38.5198 34.1329 38.3854 34.0769 38.227 34.0769Z" fill="#282828"/>
<path d="M40.1129 35.6033C40.2393 35.6033 40.3033 35.6657 40.3033 35.7905C40.3033 35.8081 40.2377 36.0785 40.1065 36.6033C40.0841 36.6993 40.0217 36.7473 39.9209 36.7473C39.7945 36.7473 39.7305 36.6833 39.7305 36.5569C39.7305 36.4705 39.7961 36.2001 39.9273 35.7473C39.9545 35.6513 40.0169 35.6033 40.1129 35.6033Z" fill="#282828"/>
<path d="M41.8559 35.9841C41.5919 35.9841 41.3663 35.8913 41.1807 35.7057C40.9951 35.5201 40.9023 35.2945 40.9023 35.0305V34.6497C40.9023 34.3329 41.0287 34.0801 41.2831 33.8865C41.0287 33.6945 40.9023 33.4401 40.9023 33.1233C40.9023 32.8593 40.9951 32.6337 41.1807 32.4481C41.3663 32.2625 41.5919 32.1697 41.8559 32.1697C42.1199 32.1697 42.3455 32.2625 42.5311 32.4481C42.7167 32.6337 42.8095 32.8593 42.8095 33.1233C42.8095 33.4401 42.6831 33.6929 42.4287 33.8865C42.6111 34.0257 42.7279 34.1953 42.7759 34.3985C42.7983 34.5009 42.8111 34.7121 42.8111 35.0321C42.8111 35.2961 42.7183 35.5217 42.5327 35.7073C42.3471 35.8929 42.1199 35.9841 41.8559 35.9841ZM41.8559 33.6961C42.0159 33.6961 42.1519 33.6401 42.2623 33.5297C42.3727 33.4193 42.4287 33.2833 42.4287 33.1233C42.4287 32.9649 42.3727 32.8305 42.2607 32.7185C42.1487 32.6065 42.0143 32.5505 41.8559 32.5505C41.6959 32.5505 41.5599 32.6065 41.4495 32.7169C41.3391 32.8273 41.2831 32.9633 41.2831 33.1233C41.2831 33.2833 41.3391 33.4193 41.4495 33.5297C41.5599 33.6401 41.6959 33.6961 41.8559 33.6961ZM41.8559 35.6033C42.0159 35.6033 42.1519 35.5473 42.2623 35.4369C42.3727 35.3265 42.4287 35.1905 42.4287 35.0305V34.6497C42.4287 34.4913 42.3727 34.3569 42.2607 34.2449C42.1487 34.1329 42.0143 34.0769 41.8559 34.0769C41.6959 34.0769 41.5599 34.1329 41.4495 34.2433C41.3391 34.3537 41.2831 34.4897 41.2831 34.6497V35.0305C41.2831 35.1905 41.3391 35.3265 41.4495 35.4369C41.5599 35.5473 41.6959 35.6033 41.8559 35.6033Z" fill="#282828"/>
<path d="M43.5586 33.8865V32.3601C43.5586 32.2337 43.6226 32.1697 43.749 32.1697H45.085C45.2114 32.1697 45.2754 32.2337 45.2754 32.3601C45.2754 32.4865 45.2114 32.5505 45.085 32.5505H43.941V33.6945H44.5138C44.7778 33.6945 45.0034 33.7873 45.189 33.9745C45.3746 34.1617 45.4674 34.3857 45.4674 34.6481V35.0289C45.4674 35.2929 45.3746 35.5185 45.1874 35.7041C45.0002 35.8897 44.7762 35.9825 44.5138 35.9825H43.7506C43.6242 35.9825 43.5602 35.9185 43.5602 35.7921C43.5602 35.6657 43.6242 35.6017 43.7506 35.6017H44.5138C44.6738 35.6017 44.8098 35.5457 44.9202 35.4353C45.0306 35.3249 45.0866 35.1889 45.0866 35.0289V34.6481C45.0866 34.4897 45.0306 34.3553 44.9186 34.2433C44.8066 34.1313 44.6722 34.0753 44.5138 34.0753H43.7506C43.6226 34.0769 43.5586 34.0129 43.5586 33.8865Z" fill="#282828"/>
<path d="M17.6585 127.981H17.5161C17.3881 127.981 17.3257 127.917 17.3257 127.791C17.3257 127.664 17.3897 127.6 17.5161 127.6H17.7401L18.0393 126.266H16.7529C16.6249 126.266 16.5625 126.202 16.5625 126.075C16.5625 125.949 16.6265 125.885 16.7529 125.885H18.2793C18.4041 125.885 18.4681 125.947 18.4697 126.071C18.4697 126.082 18.4681 126.098 18.4633 126.117L18.1337 127.602H18.2777C18.4057 127.602 18.4681 127.666 18.4681 127.792C18.4681 127.919 18.4041 127.983 18.2761 127.983H18.0441L17.6985 129.549C17.6761 129.65 17.6153 129.699 17.5161 129.699C17.3865 129.699 17.3225 129.635 17.3225 129.509C17.3225 129.49 17.3241 129.475 17.3257 129.466L17.6585 127.981Z" fill="#282828"/>
<path d="M19.1402 129.315C19.2666 129.315 19.3306 129.378 19.3306 129.502C19.3306 129.52 19.265 129.79 19.1338 130.315C19.1114 130.411 19.049 130.459 18.9482 130.459C18.8218 130.459 18.7578 130.395 18.7578 130.269C18.7578 130.182 18.8234 129.912 18.9546 129.459C18.9818 129.363 19.0426 129.315 19.1402 129.315Z" fill="#282828"/>
<path d="M21.2781 125.882C21.4045 125.882 21.4685 125.946 21.4685 126.072C21.4685 126.166 21.4365 126.221 21.3725 126.237C21.0893 126.309 20.8413 126.478 20.6301 126.746C20.4621 126.957 20.3645 127.178 20.3389 127.408H20.8973C21.1677 127.408 21.3933 127.501 21.5773 127.685C21.7597 127.87 21.8525 128.096 21.8525 128.362V128.742C21.8525 129.008 21.7597 129.234 21.5741 129.419C21.3885 129.605 21.1629 129.696 20.8989 129.696C20.6333 129.696 20.4077 129.603 20.2221 129.421C20.0365 129.237 19.9453 129.013 19.9453 128.749V127.598C19.9453 127.166 20.0893 126.789 20.3757 126.462C20.5997 126.21 20.8429 126.03 21.1069 125.925C21.1805 125.896 21.2381 125.882 21.2781 125.882ZM20.3245 127.789V128.742C20.3245 128.902 20.3805 129.038 20.4909 129.149C20.6013 129.259 20.7373 129.315 20.8973 129.315C21.0573 129.315 21.1933 129.259 21.3037 129.147C21.4141 129.035 21.4701 128.901 21.4701 128.742V128.362C21.4701 128.202 21.4141 128.067 21.3021 127.955C21.1901 127.843 21.0557 127.789 20.8973 127.789H20.3245Z" fill="#282828"/>
<path d="M23.563 129.696C23.299 129.696 23.0734 129.603 22.8878 129.418C22.7022 129.232 22.6094 129.006 22.6094 128.742V128.362C22.6094 128.046 22.7358 127.792 22.9902 127.598C22.7358 127.406 22.6094 127.152 22.6094 126.835C22.6094 126.571 22.7022 126.346 22.8878 126.16C23.0734 125.974 23.299 125.882 23.563 125.882C23.827 125.882 24.0526 125.974 24.2382 126.16C24.4238 126.346 24.5166 126.571 24.5166 126.835C24.5166 127.152 24.3902 127.405 24.1358 127.598C24.3182 127.738 24.435 127.907 24.483 128.11C24.5054 128.213 24.5182 128.424 24.5182 128.744C24.5182 129.008 24.4254 129.234 24.2398 129.419C24.0542 129.605 23.827 129.696 23.563 129.696ZM23.563 127.406C23.723 127.406 23.859 127.35 23.9694 127.24C24.0798 127.13 24.1358 126.994 24.1358 126.834C24.1358 126.675 24.0798 126.541 23.9678 126.429C23.8558 126.317 23.7214 126.261 23.563 126.261C23.403 126.261 23.267 126.317 23.1566 126.427C23.0462 126.538 22.9902 126.674 22.9902 126.834C22.9902 126.994 23.0462 127.13 23.1566 127.24C23.267 127.352 23.403 127.406 23.563 127.406ZM23.563 129.315C23.723 129.315 23.859 129.259 23.9694 129.149C24.0798 129.038 24.1358 128.902 24.1358 128.742V128.362C24.1358 128.203 24.0798 128.069 23.9678 127.957C23.8558 127.845 23.7214 127.789 23.563 127.789C23.403 127.789 23.267 127.845 23.1566 127.955C23.0462 128.066 22.9902 128.202 22.9902 128.362V128.742C22.9902 128.902 23.0462 129.038 23.1566 129.149C23.267 129.259 23.403 129.315 23.563 129.315Z" fill="#282828"/>
<path d="M17.2466 46.9409H16.8658C16.7394 46.9409 16.6754 46.8769 16.6754 46.7505C16.6754 46.6241 16.7394 46.5601 16.8658 46.5601H17.2466C17.4066 46.5601 17.5426 46.5041 17.653 46.3937C17.7634 46.2833 17.8194 46.1473 17.8194 45.9873C17.8194 45.8289 17.7634 45.6945 17.6514 45.5825C17.5394 45.4705 17.405 45.4145 17.2466 45.4145H16.4834C16.357 45.4145 16.293 45.3505 16.293 45.2241C16.293 45.0977 16.357 45.0337 16.4834 45.0337H17.2466C17.5106 45.0337 17.7362 45.1265 17.9218 45.3137C18.1074 45.5009 18.2002 45.7249 18.2002 45.9873C18.2002 46.3041 18.0738 46.5569 17.8194 46.7505C18.0738 46.9425 18.2002 47.1969 18.2002 47.5137V47.8945C18.2002 48.1585 18.1074 48.3841 17.9202 48.5697C17.733 48.7553 17.509 48.8481 17.2466 48.8481H16.4834C16.357 48.8481 16.293 48.7841 16.293 48.6577C16.293 48.5313 16.357 48.4673 16.4834 48.4673H17.2466C17.4066 48.4673 17.5426 48.4113 17.653 48.3009C17.7634 48.1905 17.8194 48.0545 17.8194 47.8945V47.5137C17.8194 47.3553 17.7634 47.2209 17.6514 47.1089C17.5394 46.9969 17.405 46.9409 17.2466 46.9409Z" fill="#282828"/>
<path d="M19.1402 48.4673C19.2666 48.4673 19.3306 48.5297 19.3306 48.6545C19.3306 48.6721 19.265 48.9425 19.1338 49.4673C19.1114 49.5633 19.049 49.6113 18.9482 49.6113C18.8218 49.6113 18.7578 49.5473 18.7578 49.4209C18.7578 49.3345 18.8234 49.0641 18.9546 48.6113C18.9818 48.5153 19.0442 48.4673 19.1402 48.4673Z" fill="#282828"/>
<path d="M20.0391 46.7505V45.2241C20.0391 45.0977 20.1031 45.0337 20.2295 45.0337H21.5655C21.6919 45.0337 21.7559 45.0977 21.7559 45.2241C21.7559 45.3505 21.6919 45.4145 21.5655 45.4145H20.4215V46.5601H20.9943C21.2583 46.5601 21.4839 46.6529 21.6695 46.8401C21.8551 47.0273 21.9479 47.2513 21.9479 47.5137V47.8945C21.9479 48.1585 21.8551 48.3841 21.6679 48.5697C21.4807 48.7553 21.2567 48.8481 20.9943 48.8481H20.2311C20.1047 48.8481 20.0407 48.7841 20.0407 48.6577C20.0407 48.5313 20.1047 48.4673 20.2311 48.4673H20.9943C21.1543 48.4673 21.2903 48.4113 21.4007 48.3009C21.5111 48.1905 21.5671 48.0545 21.5671 47.8945V47.5137C21.5671 47.3553 21.5111 47.2209 21.3991 47.1089C21.2871 46.9969 21.1527 46.9409 20.9943 46.9409H20.2311C20.1031 46.9409 20.0391 46.8769 20.0391 46.7505Z" fill="#282828"/>
<path d="M23.5669 46.9409H23.1861C23.0597 46.9409 22.9957 46.8769 22.9957 46.7505C22.9957 46.6241 23.0597 46.5601 23.1861 46.5601H23.5669C23.7269 46.5601 23.8629 46.5041 23.9733 46.3937C24.0837 46.2833 24.1397 46.1473 24.1397 45.9873C24.1397 45.8289 24.0837 45.6945 23.9717 45.5825C23.8597 45.4705 23.7253 45.4145 23.5669 45.4145H22.8037C22.6773 45.4145 22.6133 45.3505 22.6133 45.2241C22.6133 45.0977 22.6773 45.0337 22.8037 45.0337H23.5669C23.8309 45.0337 24.0565 45.1265 24.2421 45.3137C24.4277 45.5009 24.5205 45.7249 24.5205 45.9873C24.5205 46.3041 24.3941 46.5569 24.1397 46.7505C24.3941 46.9425 24.5205 47.1969 24.5205 47.5137V47.8945C24.5205 48.1585 24.4277 48.3841 24.2405 48.5697C24.0533 48.7553 23.8293 48.8481 23.5669 48.8481H22.8037C22.6773 48.8481 22.6133 48.7841 22.6133 48.6577C22.6133 48.5313 22.6773 48.4673 22.8037 48.4673H23.5669C23.7269 48.4673 23.8629 48.4113 23.9733 48.3009C24.0837 48.1905 24.1397 48.0545 24.1397 47.8945V47.5137C24.1397 47.3553 24.0837 47.2209 23.9717 47.1089C23.8597 46.9969 23.7253 46.9409 23.5669 46.9409Z" fill="#282828"/>
<path d="M17.1689 100.044C17.1193 100.044 17.0745 100.025 17.0361 99.9866C16.9977 99.9482 16.9785 99.9034 16.9785 99.8538C16.9785 99.7658 17.0105 99.7098 17.0745 99.689C17.2137 99.6426 17.3289 99.5898 17.4217 99.5306C17.8329 99.265 18.0617 98.9274 18.1097 98.5194H17.5513C17.2873 98.5194 17.0617 98.4266 16.8761 98.241C16.6905 98.0554 16.5977 97.8298 16.5977 97.5658V97.185C16.5977 96.921 16.6905 96.6955 16.8761 96.5099C17.0617 96.3243 17.2873 96.2314 17.5513 96.2314C17.8169 96.2314 18.0425 96.3243 18.2281 96.5082C18.4137 96.6922 18.5049 96.9162 18.5049 97.1802V98.3306C18.5049 98.9786 18.2041 99.489 17.6009 99.865C17.4057 99.9834 17.2617 100.044 17.1689 100.044ZM18.1225 98.1354V97.1818C18.1225 97.0234 18.0665 96.889 17.9545 96.777C17.8425 96.665 17.7081 96.609 17.5497 96.609C17.3913 96.609 17.2569 96.665 17.1449 96.777C17.0329 96.889 16.9769 97.0234 16.9769 97.1818V97.5626C16.9769 97.7226 17.0329 97.8586 17.1433 97.969C17.2537 98.0794 17.3897 98.1354 17.5497 98.1354H18.1225Z" fill="#282828"/>
<path d="M19.2379 99.6562C19.3643 99.6562 19.4283 99.7187 19.4283 99.8435C19.4283 99.8611 19.3627 100.131 19.2315 100.656C19.2091 100.752 19.1467 100.8 19.0459 100.8C18.9195 100.8 18.8555 100.736 18.8555 100.61C18.8555 100.523 18.9211 100.253 19.0523 99.8003C19.0795 99.7043 19.1403 99.6562 19.2379 99.6562Z" fill="#282828"/>
<path d="M19.9141 99.0834C19.9141 99.0626 19.9157 99.045 19.9205 99.0306L20.6837 96.3601C20.7109 96.2673 20.7717 96.2209 20.8693 96.2209C20.9957 96.2209 21.0597 96.2849 21.0597 96.4129C21.0597 96.4305 21.0581 96.4481 21.0533 96.4673L20.3573 98.8914H21.2501V98.3186C21.2501 98.1922 21.3141 98.1282 21.4405 98.1282C21.5669 98.1282 21.6309 98.1922 21.6309 98.3186V98.8914H22.0117C22.1381 98.8914 22.2021 98.9554 22.2021 99.0818C22.2021 99.2082 22.1381 99.2722 22.0117 99.2722H21.6309V99.845C21.6309 99.9714 21.5669 100.035 21.4405 100.035C21.3141 100.035 21.2501 99.9714 21.2501 99.845V99.2722H20.1061C19.9765 99.2754 19.9141 99.2114 19.9141 99.0834Z" fill="#282828"/>
<path d="M22.6094 97.9394V96.4131C22.6094 96.2867 22.6734 96.2227 22.7998 96.2227H24.1358C24.2622 96.2227 24.3262 96.2867 24.3262 96.4131C24.3262 96.5395 24.2622 96.6035 24.1358 96.6035H22.9918V97.7474H23.5646C23.8286 97.7474 24.0542 97.8402 24.2398 98.0274C24.4254 98.2146 24.5182 98.4386 24.5182 98.701V99.0818C24.5182 99.3458 24.4254 99.5714 24.2382 99.757C24.051 99.9426 23.827 100.035 23.5646 100.035H22.8014C22.675 100.035 22.611 99.9714 22.611 99.845C22.611 99.7186 22.675 99.6546 22.8014 99.6546H23.5646C23.7246 99.6546 23.8606 99.5986 23.971 99.4882C24.0814 99.3778 24.1374 99.2418 24.1374 99.0818V98.701C24.1374 98.5426 24.0814 98.4082 23.9694 98.2962C23.8574 98.1842 23.723 98.1282 23.5646 98.1282H22.8014C22.6734 98.1298 22.6094 98.0674 22.6094 97.9394Z" fill="#282828"/>
<path d="M87.0547 75.6034C87.0547 75.5826 87.0563 75.565 87.0611 75.5506L87.8243 72.8802C87.8515 72.7874 87.9123 72.741 88.0099 72.741C88.1363 72.741 88.2003 72.805 88.2003 72.933C88.2003 72.9506 88.1987 72.9682 88.1939 72.9874L87.4979 75.4114H88.3907V74.8386C88.3907 74.7122 88.4547 74.6482 88.5811 74.6482C88.7075 74.6482 88.7715 74.7122 88.7715 74.8386V75.4114H89.1523C89.2787 75.4114 89.3427 75.4754 89.3427 75.6018C89.3427 75.7282 89.2787 75.7922 89.1523 75.7922H88.7715V76.365C88.7715 76.4914 88.7075 76.5554 88.5811 76.5554C88.4547 76.5554 88.3907 76.4914 88.3907 76.365V75.7922H87.2467C87.1187 75.7938 87.0547 75.7298 87.0547 75.6034Z" fill="#282828"/>
<path d="M90.0348 76.1746C90.1612 76.1746 90.2252 76.237 90.2252 76.3618C90.2252 76.3794 90.1596 76.6498 90.0283 77.1746C90.0059 77.2706 89.9436 77.3186 89.8427 77.3186C89.7163 77.3186 89.6523 77.2546 89.6523 77.1282C89.6523 77.0418 89.7179 76.7714 89.8491 76.3186C89.8763 76.2226 89.9388 76.1746 90.0348 76.1746Z" fill="#282828"/>
<path d="M90.7148 75.6034C90.7148 75.5826 90.7164 75.565 90.7212 75.5506L91.4844 72.8802C91.5116 72.7874 91.5724 72.741 91.67 72.741C91.7964 72.741 91.8604 72.805 91.8604 72.933C91.8604 72.9506 91.8588 72.9682 91.854 72.9874L91.158 75.4114H92.0508V74.8386C92.0508 74.7122 92.1148 74.6482 92.2412 74.6482C92.3676 74.6482 92.4316 74.7122 92.4316 74.8386V75.4114H92.8124C92.9388 75.4114 93.0028 75.4754 93.0028 75.6018C93.0028 75.7282 92.9388 75.7922 92.8124 75.7922H92.4316V76.365C92.4316 76.4914 92.3676 76.5554 92.2412 76.5554C92.1148 76.5554 92.0508 76.4914 92.0508 76.365V75.7922H90.9068C90.7788 75.7938 90.7148 75.7298 90.7148 75.6034Z" fill="#282828"/>
<path d="M94.4301 74.6499H94.0493C93.9229 74.6499 93.8589 74.5859 93.8589 74.4595C93.8589 74.3331 93.9229 74.2691 94.0493 74.2691H94.4301C94.5901 74.2691 94.7261 74.2131 94.8365 74.1027C94.9469 73.9923 95.0029 73.8563 95.0029 73.6963C95.0029 73.5379 94.9469 73.4035 94.8349 73.2915C94.7229 73.1795 94.5885 73.1235 94.4301 73.1235H93.667C93.5406 73.1235 93.4766 73.0595 93.4766 72.9331C93.4766 72.8067 93.5406 72.7427 93.667 72.7427H94.4301C94.6941 72.7427 94.9197 72.8355 95.1053 73.0227C95.2909 73.2099 95.3837 73.4339 95.3837 73.6963C95.3837 74.0131 95.2573 74.2659 95.0029 74.4595C95.2573 74.6515 95.3837 74.9059 95.3837 75.2227V75.6034C95.3837 75.8674 95.2909 76.093 95.1037 76.2786C94.9165 76.4642 94.6925 76.557 94.4301 76.557H93.667C93.5406 76.557 93.4766 76.493 93.4766 76.3666C93.4766 76.2402 93.5406 76.1762 93.667 76.1762H94.4301C94.5901 76.1762 94.7261 76.1202 94.8365 76.0098C94.9469 75.8994 95.0029 75.7634 95.0029 75.6034V75.2227C95.0029 75.0643 94.9469 74.9298 94.8349 74.8179C94.7229 74.7059 94.5885 74.6499 94.4301 74.6499Z" fill="#282828"/>
<path d="M58.202 45.0337C58.466 45.0337 58.6916 45.1265 58.8772 45.3121C59.0628 45.4977 59.1556 45.7233 59.1556 45.9873C59.1556 46.1681 59.098 46.3521 58.9828 46.5361L57.7812 48.4673H58.9668C59.0932 48.4673 59.1572 48.5313 59.1572 48.6577C59.1572 48.7841 59.0932 48.8481 58.9668 48.8481H57.4404C57.314 48.8481 57.25 48.7841 57.25 48.6577C57.25 48.6193 57.2612 48.5825 57.282 48.5473L58.6804 46.3009C58.7444 46.1985 58.7764 46.0945 58.7764 45.9857C58.7764 45.8273 58.7204 45.6929 58.6084 45.5809C58.4964 45.4689 58.362 45.4129 58.2036 45.4129C57.9876 45.4129 57.7876 45.5729 57.6052 45.8929C57.57 45.9553 57.5156 45.9857 57.4404 45.9857C57.314 45.9857 57.25 45.9217 57.25 45.7953C57.25 45.7665 57.2564 45.7409 57.2676 45.7169C57.5028 45.2609 57.8148 45.0337 58.202 45.0337Z" fill="#282828"/>
<path d="M60.2262 48.4673C60.3526 48.4673 60.4165 48.5297 60.4165 48.6545C60.4165 48.6721 60.3509 48.9425 60.2197 49.4673C60.1973 49.5633 60.1349 49.6113 60.0341 49.6113C59.9078 49.6113 59.8438 49.5473 59.8438 49.4209C59.8438 49.3345 59.9094 49.0641 60.0406 48.6113C60.0678 48.5153 60.1302 48.4673 60.2262 48.4673Z" fill="#282828"/>
<path d="M62.3641 45.0337C62.4905 45.0337 62.5545 45.0977 62.5545 45.2241C62.5545 45.3185 62.5225 45.3729 62.4585 45.3889C62.1753 45.4609 61.9272 45.6305 61.716 45.8977C61.548 46.1105 61.4505 46.3297 61.4249 46.5601H61.9833C62.2537 46.5601 62.4793 46.6529 62.6632 46.8369C62.8456 47.0225 62.9384 47.2465 62.9384 47.5137V47.8945C62.9384 48.1601 62.8456 48.3857 62.66 48.5713C62.4744 48.7569 62.2489 48.8481 61.9849 48.8481C61.7193 48.8481 61.4937 48.7569 61.3081 48.5713C61.1225 48.3873 61.0312 48.1633 61.0312 47.8993V46.7489C61.0312 46.3169 61.1753 45.9393 61.4616 45.6129C61.6856 45.3601 61.9289 45.1809 62.1929 45.0753C62.2649 45.0481 62.3225 45.0337 62.3641 45.0337ZM61.4089 46.9409V47.8945C61.4089 48.0545 61.4648 48.1905 61.5752 48.3009C61.6856 48.4113 61.8216 48.4673 61.9816 48.4673C62.1416 48.4673 62.2777 48.4113 62.3881 48.2993C62.4984 48.1873 62.5545 48.0529 62.5545 47.8945V47.5137C62.5545 47.3537 62.4984 47.2177 62.3864 47.1073C62.2744 46.9969 62.14 46.9409 61.9816 46.9409H61.4089Z" fill="#282828"/>
<path d="M63.6016 46.7505V45.2241C63.6016 45.0977 63.6656 45.0337 63.792 45.0337H65.128C65.2544 45.0337 65.3183 45.0977 65.3183 45.2241C65.3183 45.3505 65.2544 45.4145 65.128 45.4145H63.984V46.5601H64.5568C64.8208 46.5601 65.0464 46.6529 65.2319 46.8401C65.4175 47.0273 65.5103 47.2513 65.5103 47.5137V47.8945C65.5103 48.1585 65.4175 48.3841 65.2303 48.5697C65.0431 48.7553 64.8192 48.8481 64.5568 48.8481H63.7936C63.6672 48.8481 63.6032 48.7841 63.6032 48.6577C63.6032 48.5313 63.6672 48.4673 63.7936 48.4673H64.5568C64.7168 48.4673 64.8528 48.4113 64.9632 48.3009C65.0736 48.1905 65.1295 48.0545 65.1295 47.8945V47.5137C65.1295 47.3553 65.0736 47.2209 64.9616 47.1089C64.8496 46.9969 64.7152 46.9409 64.5568 46.9409H63.7936C63.6656 46.9409 63.6016 46.8769 63.6016 46.7505Z" fill="#282828"/>
<path d="M137.962 126.535L137.524 126.973C137.487 127.01 137.442 127.028 137.391 127.028C137.263 127.028 137.199 126.964 137.199 126.837C137.199 126.784 137.217 126.741 137.254 126.704L137.999 125.959C138.049 125.909 138.1 125.884 138.153 125.884C138.279 125.884 138.343 125.948 138.343 126.074V129.508C138.343 129.634 138.279 129.698 138.153 129.698C138.026 129.698 137.962 129.634 137.962 129.508V126.535Z" fill="#282828"/>
<path d="M139.125 128.743C139.125 128.722 139.127 128.704 139.131 128.69L139.895 126.019C139.922 125.927 139.983 125.88 140.08 125.88C140.207 125.88 140.271 125.944 140.271 126.072C140.271 126.09 140.269 126.107 140.264 126.127L139.568 128.551H140.461V127.978C140.461 127.851 140.525 127.787 140.651 127.787C140.778 127.787 140.842 127.851 140.842 127.978V128.551H141.223C141.349 128.551 141.413 128.615 141.413 128.741C141.413 128.867 141.349 128.931 141.223 128.931H140.842V129.504C140.842 129.631 140.778 129.695 140.651 129.695C140.525 129.695 140.461 129.631 140.461 129.504V128.931H139.317C139.187 128.933 139.125 128.871 139.125 128.743Z" fill="#282828"/>
<path d="M142.101 129.315C142.228 129.315 142.292 129.378 142.292 129.502C142.292 129.52 142.226 129.79 142.095 130.315C142.072 130.411 142.01 130.459 141.909 130.459C141.783 130.459 141.719 130.395 141.719 130.269C141.719 130.182 141.784 129.912 141.916 129.459C141.944 129.363 142.005 129.315 142.101 129.315Z" fill="#282828"/>
<path d="M144.241 125.882C144.367 125.882 144.431 125.946 144.431 126.072C144.431 126.166 144.399 126.221 144.335 126.237C144.052 126.309 143.804 126.478 143.593 126.746C143.425 126.957 143.327 127.178 143.301 127.408H143.86C144.13 127.408 144.356 127.501 144.538 127.685C144.721 127.87 144.813 128.096 144.813 128.362V128.742C144.813 129.008 144.721 129.234 144.535 129.419C144.349 129.605 144.124 129.696 143.86 129.696C143.594 129.696 143.369 129.603 143.183 129.421C142.997 129.237 142.906 129.013 142.906 128.749V127.598C142.906 127.166 143.05 126.789 143.337 126.462C143.561 126.21 143.804 126.03 144.068 125.925C144.143 125.896 144.201 125.882 144.241 125.882ZM143.287 127.789V128.742C143.287 128.902 143.343 129.038 143.453 129.149C143.564 129.259 143.7 129.315 143.86 129.315C144.02 129.315 144.154 129.259 144.266 129.147C144.378 129.035 144.433 128.901 144.433 128.742V128.362C144.433 128.202 144.377 128.067 144.265 127.955C144.153 127.843 144.018 127.789 143.86 127.789H143.287Z" fill="#282828"/>
<path d="M145.939 126.533L145.501 126.971C145.464 127.008 145.419 127.026 145.368 127.026C145.24 127.026 145.176 126.962 145.176 126.835C145.176 126.782 145.193 126.739 145.23 126.702L145.976 125.957C146.025 125.907 146.077 125.882 146.129 125.882C146.256 125.882 146.32 125.946 146.32 126.072V129.506C146.32 129.632 146.256 129.696 146.129 129.696C146.003 129.696 145.939 129.632 145.939 129.506V126.533Z" fill="#282828"/>
<path d="M85.6187 126.535L85.1803 126.973C85.1435 127.01 85.0987 127.028 85.0475 127.028C84.9195 127.028 84.8555 126.964 84.8555 126.837C84.8555 126.784 84.8731 126.741 84.9099 126.704L85.6555 125.959C85.7051 125.909 85.7563 125.884 85.8091 125.884C85.9355 125.884 85.9995 125.948 85.9995 126.074V129.508C85.9995 129.634 85.9355 129.698 85.8091 129.698C85.6827 129.698 85.6187 129.634 85.6187 129.508V126.535Z" fill="#282828"/>
<path d="M88.6885 127.789C88.6885 128.243 88.6324 128.637 88.5204 128.968C88.3572 129.453 88.0949 129.696 87.7349 129.696C87.3749 129.696 87.1125 129.455 86.9493 128.971C86.8373 128.64 86.7812 128.247 86.7812 127.789C86.7812 127.333 86.8373 126.938 86.9493 126.607C87.1125 126.123 87.3749 125.882 87.7349 125.882C88.0949 125.882 88.3572 126.125 88.5204 126.61C88.6324 126.941 88.6885 127.335 88.6885 127.789ZM88.3061 127.789C88.3061 127.474 88.2725 127.176 88.2053 126.896C88.1029 126.474 87.9461 126.263 87.7349 126.263C87.5253 126.263 87.3685 126.474 87.2661 126.898C87.1973 127.183 87.1621 127.48 87.1621 127.787C87.1621 128.101 87.1957 128.399 87.2629 128.68C87.3653 129.103 87.5221 129.314 87.7333 129.314C87.9444 129.314 88.1028 129.103 88.2036 128.68C88.2724 128.4 88.3061 128.103 88.3061 127.789Z" fill="#282828"/>
<path d="M89.5269 129.315C89.6533 129.315 89.7173 129.378 89.7173 129.503C89.7173 129.52 89.6517 129.791 89.5205 130.315C89.4981 130.411 89.4357 130.46 89.3349 130.46C89.2085 130.46 89.1445 130.395 89.1445 130.269C89.1445 130.183 89.2101 129.912 89.3413 129.459C89.3685 129.363 89.4309 129.315 89.5269 129.315Z" fill="#282828"/>
<path d="M91.3833 127.789H91.0025C90.8761 127.789 90.8121 127.725 90.8121 127.599C90.8121 127.472 90.8761 127.408 91.0025 127.408H91.3833C91.5433 127.408 91.6793 127.352 91.7897 127.242C91.9 127.131 91.9561 126.995 91.9561 126.835C91.9561 126.677 91.9001 126.543 91.7881 126.431C91.6761 126.319 91.5417 126.263 91.3833 126.263H90.6201C90.4937 126.263 90.4297 126.199 90.4297 126.072C90.4297 125.946 90.4937 125.882 90.6201 125.882H91.3833C91.6473 125.882 91.8729 125.975 92.0585 126.162C92.244 126.349 92.3368 126.573 92.3368 126.835C92.3368 127.152 92.2104 127.405 91.9561 127.599C92.2104 127.791 92.3368 128.045 92.3368 128.362V128.743C92.3368 129.007 92.244 129.232 92.0569 129.418C91.8697 129.603 91.6457 129.696 91.3833 129.696H90.6201C90.4937 129.696 90.4297 129.632 90.4297 129.506C90.4297 129.379 90.4937 129.315 90.6201 129.315H91.3833C91.5433 129.315 91.6793 129.259 91.7897 129.149C91.9 129.039 91.9561 128.903 91.9561 128.743V128.362C91.9561 128.203 91.9001 128.069 91.7881 127.957C91.6761 127.845 91.5401 127.789 91.3833 127.789Z" fill="#282828"/>
<path d="M93.0938 128.743C93.0938 128.722 93.0953 128.704 93.1001 128.69L93.8634 126.019C93.8906 125.927 93.9513 125.88 94.049 125.88C94.1754 125.88 94.2394 125.944 94.2394 126.072C94.2394 126.09 94.2378 126.107 94.233 126.127L93.537 128.551H94.4298V127.978C94.4298 127.851 94.4938 127.787 94.6202 127.787C94.7466 127.787 94.8106 127.851 94.8106 127.978V128.551H95.1914C95.3178 128.551 95.3818 128.615 95.3818 128.741C95.3818 128.867 95.3178 128.931 95.1914 128.931H94.8106V129.504C94.8106 129.631 94.7466 129.695 94.6202 129.695C94.4938 129.695 94.4298 129.631 94.4298 129.504V128.931H93.2858C93.1578 128.933 93.0938 128.871 93.0938 128.743Z" fill="#282828"/>
</g>
<defs>
<clipPath id="clip0_286_18124">
<rect width="160" height="160" fill="white"/>
</clipPath>
</defs>
</svg>
