<svg width="24" height="27" viewBox="0 0 24 27" fill="none" xmlns="http://www.w3.org/2000/svg">
<path d="M5.64079 16.2524L3.84572 15L0.445465 17.3724C0.167728 17.5662 0 17.8987 0 18.2557C0 18.6126 0.167727 18.9452 0.445466 19.139L11.4709 26.8315C11.7929 27.0562 12.2071 27.0562 12.5291 26.8315L23.5545 19.139C23.8323 18.9452 24 18.6126 24 18.2557C24 17.8987 23.8323 17.5662 23.5545 17.3724L20.1543 15L18.3592 16.2524L21.2304 18.2557L12 24.6958L2.76959 18.2557L5.64079 16.2524Z" fill="black"/>
<path d="M5.64079 11.2524L3.84572 10L0.445465 12.3724C0.167728 12.5662 0 12.8987 0 13.2557C0 13.6126 0.167727 13.9452 0.445466 14.139L11.4709 21.8315C11.7929 22.0562 12.2071 22.0562 12.5291 21.8315L23.5545 14.139C23.8323 13.9452 24 13.6126 24 13.2557C24 12.8987 23.8323 12.5662 23.5545 12.3724L20.1543 10L18.3592 11.2524L21.2304 13.2557L12 19.6958L2.76959 13.2557L5.64079 11.2524Z" fill="black"/>
<path fill-rule="evenodd" clip-rule="evenodd" d="M0.445466 7.64138C0.167728 7.82974 6.16087e-07 8.15303 0 8.5C7.39308e-07 8.84697 0.167728 9.17026 0.445466 9.35862L11.4709 16.8362C11.7929 17.0546 12.2071 17.0546 12.5291 16.8362L23.5545 9.35862C23.8323 9.17026 24 8.84697 24 8.5C24 8.15303 23.8323 7.82974 23.5545 7.64138L12.5291 0.163785C12.2071 -0.0545951 11.7929 -0.0545951 11.4709 0.163785L0.445466 7.64138ZM21.2304 8.5L12 14.7602L2.76959 8.5L12 2.23984L21.2304 8.5Z" fill="black"/>
</svg>
