<svg width="24" height="27" viewBox="0 0 24 27" fill="none" xmlns="http://www.w3.org/2000/svg">
<mask id="path-1-inside-1_476_22495" fill="white">
<path fill-rule="evenodd" clip-rule="evenodd" d="M17.5634 9.25119C17.8449 8.55604 18 7.79613 18 7C18 3.68629 15.3137 1 12 1C8.68629 1 6 3.68629 6 7C6 7.79613 6.15506 8.55604 6.43662 9.25119C4.93407 10.7056 4 12.7437 4 15C4 19.4183 7.58172 23 12 23C16.4183 23 20 19.4183 20 15C20 12.7437 19.0659 10.7056 17.5634 9.25119Z"/>
</mask>
<path d="M17.5634 9.25119L15.7097 8.50036L15.2034 9.75031L16.1724 10.6882L17.5634 9.25119ZM6.43662 9.25119L7.82761 10.6882L8.79661 9.75031L8.29033 8.50036L6.43662 9.25119ZM16 7C16 7.53443 15.8963 8.03969 15.7097 8.50036L19.4171 10.002C19.7936 9.07239 20 8.05783 20 7H16ZM12 3C14.2091 3 16 4.79086 16 7H20C20 2.58172 16.4183 -1 12 -1V3ZM8 7C8 4.79086 9.79086 3 12 3V-1C7.58172 -1 4 2.58172 4 7H8ZM8.29033 8.50036C8.10374 8.03969 8 7.53443 8 7H4C4 8.05783 4.20637 9.07239 4.5829 10.002L8.29033 8.50036ZM6 15C6 13.3074 6.69821 11.7814 7.82761 10.6882L5.04563 7.81413C3.16993 9.62969 2 12.18 2 15H6ZM12 21C8.68629 21 6 18.3137 6 15H2C2 20.5228 6.47715 25 12 25V21ZM18 15C18 18.3137 15.3137 21 12 21V25C17.5228 25 22 20.5228 22 15H18ZM16.1724 10.6882C17.3018 11.7814 18 13.3074 18 15H22C22 12.18 20.8301 9.62969 18.9544 7.81413L16.1724 10.6882Z" fill="black" mask="url(#path-1-inside-1_476_22495)"/>
<rect x="11" y="8" width="2" height="18" rx="1" fill="black"/>
<rect x="15.0117" y="12.9629" width="2" height="5.49531" rx="1" transform="rotate(45 15.0117 12.9629)" fill="black"/>
<rect x="13.6055" y="6.27856" width="2" height="3.68713" rx="1" transform="rotate(45 13.6055 6.27856)" fill="black"/>
<rect width="2" height="5.43632" rx="1" transform="matrix(-0.707107 0.707107 0.707107 0.707107 9.34375 14.2151)" fill="black"/>
<rect width="2" height="4.4526" rx="1" transform="matrix(-0.707107 0.707107 0.707107 0.707107 10.1094 5.69556)" fill="black"/>
</svg>
