<svg width="24" height="24" viewBox="0 0 24 24" fill="none" xmlns="http://www.w3.org/2000/svg">
<path fill-rule="evenodd" clip-rule="evenodd" d="M12.417 4.07974C12.2967 4.02841 12.1642 4 12.0251 4C11.7978 4 11.5883 4.0758 11.4204 4.20349C11.3811 4.23336 11.3441 4.26606 11.3097 4.3013L8.29289 7.31807C7.90237 7.7086 7.90237 8.34176 8.29289 8.73229C8.68342 9.12281 9.31658 9.12281 9.70711 8.73229L11.0251 7.41431V11.8995C11.0251 12.4518 11.4728 12.8995 12.0251 12.8995C12.5774 12.8995 13.0251 12.4518 13.0251 11.8995V7.41419L14.3432 8.73229C14.7337 9.12281 15.3669 9.12281 15.7574 8.73229C16.1479 8.34176 16.1479 7.7086 15.7574 7.31807L12.7323 4.29293C12.6389 4.19953 12.5316 4.12846 12.417 4.07974Z" fill="black"/>
<path fill-rule="evenodd" clip-rule="evenodd" d="M11.2945 19.683C11.477 19.8781 11.7367 20 12.0249 20C12.0333 20 12.0417 19.9999 12.0501 19.9997C12.2978 19.9937 12.5437 19.8961 12.7327 19.7071L15.7579 16.6819C16.1484 16.2914 16.1484 15.6583 15.7579 15.2677C15.3674 14.8772 14.7342 14.8772 14.3437 15.2677L13.0249 16.5865L13.0249 12.1005C13.0249 11.5482 12.5771 11.1005 12.0249 11.1005C11.4726 11.1005 11.0249 11.5482 11.0249 12.1005L11.0249 16.585L9.7076 15.2677C9.31707 14.8772 8.68391 14.8772 8.29338 15.2677C7.90286 15.6583 7.90286 16.2914 8.29338 16.6819L11.2945 19.683Z" fill="black"/>
<path d="M18 2H21C21.5523 2 22 2.44772 22 3V6" stroke="black" stroke-width="2" stroke-linecap="round" stroke-linejoin="round"/>
<path d="M6 2H3C2.44772 2 2 2.44772 2 3V6" stroke="black" stroke-width="2" stroke-linecap="round" stroke-linejoin="round"/>
<path d="M18 22H21C21.5523 22 22 21.5523 22 21V18" stroke="black" stroke-width="2" stroke-linecap="round" stroke-linejoin="round"/>
<path d="M6 22L3 22C2.44772 22 2 21.5523 2 21L2 18" stroke="black" stroke-width="2" stroke-linecap="round" stroke-linejoin="round"/>
</svg>
