<svg width="26" height="24" viewBox="0 0 26 24" fill="none" xmlns="http://www.w3.org/2000/svg">
<path fill-rule="evenodd" clip-rule="evenodd" d="M13 4C9.82643 4 7.51876 4.85157 6.36716 5.39649C6.16677 5.49131 6 5.72394 6 6.07037V10.0505C6.50834 10.5693 6.8565 11.2456 6.96447 11.9994C6.97626 11.9998 6.98811 12 7 12H12H14H19C19.0119 12 19.0237 11.9998 19.0355 11.9994C19.1435 11.2456 19.4917 10.5693 20 10.0505V6.07037C20 5.72394 19.8332 5.49131 19.6328 5.39649C18.4812 4.85157 16.1736 4 13 4ZM22 9.03544V6.07037C22 5.07938 21.4968 4.06588 20.4883 3.58867C19.1355 2.94854 16.5348 2 13 2C9.46515 2 6.86452 2.94854 5.51173 3.58867C4.50322 4.06588 4 5.07938 4 6.07037V9.03544C3.8367 9.01209 3.66976 9 3.5 9C1.567 9 0 10.567 0 12.5C0 13.8968 0.817584 15.1012 2 15.6629V19C2 20.1046 2.89543 21 4 21H6C7.10457 21 8 20.1046 8 19H12H14H18C18 20.1046 18.8954 21 20 21H22C23.1046 21 24 20.1046 24 19V15.6629C25.1824 15.1012 26 13.8968 26 12.5C26 10.567 24.433 9 22.5 9C22.3302 9 22.1633 9.01209 22 9.03544ZM2 12.5C2 11.6716 2.67157 11 3.5 11C4.32843 11 5 11.6716 5 12.5C5 12.604 4.98956 12.7046 4.96998 12.8011C4.91028 13.0952 4.98581 13.4005 5.17574 13.6329C5.36566 13.8652 5.64989 14 5.94999 14H6H12H14H20H20.05C20.3501 14 20.6343 13.8652 20.8243 13.6329C21.0142 13.4005 21.0897 13.0952 21.03 12.8011C21.0104 12.7046 21 12.604 21 12.5C21 11.6716 21.6716 11 22.5 11C23.3284 11 24 11.6716 24 12.5C24 13.2245 23.4853 13.8311 22.8011 13.97C22.335 14.0646 22 14.4744 22 14.95V19H20V18C20 17.4477 19.5523 17 19 17H14H12H7C6.44772 17 6 17.4477 6 18V19H4V14.95C4 14.4744 3.66503 14.0646 3.19893 13.97C2.51468 13.8311 2 13.2245 2 12.5Z" fill="black"/>
</svg>
