<svg width="24" height="24" viewBox="0 0 24 24" fill="none" xmlns="http://www.w3.org/2000/svg">
<rect x="1" y="1" width="22" height="22" rx="1" stroke="black" stroke-width="2" stroke-linecap="round" stroke-linejoin="round"/>
<path fill-rule="evenodd" clip-rule="evenodd" d="M12.9921 10.4357C12.6016 10.8262 12.6016 11.4594 12.9921 11.8499C13.3826 12.2404 14.0158 12.2404 14.4063 11.8499L14.8408 11.4155V15.4003C14.8408 15.9526 15.2885 16.4003 15.8408 16.4003C16.3931 16.4003 16.8408 15.9526 16.8408 15.4003V11.413L17.2777 11.8499C17.6683 12.2404 18.3014 12.2404 18.692 11.8499C19.0825 11.4594 19.0825 10.8262 18.692 10.4357L16.5491 8.29289C16.3463 8.0901 16.0781 7.99261 15.8124 8.00044C15.5326 8.00823 15.2816 8.13092 15.1048 8.32301L12.9921 10.4357Z" fill="black"/>
<path fill-rule="evenodd" clip-rule="evenodd" d="M5.29289 13.9647C4.90237 13.5742 4.90237 12.941 5.29289 12.5505C5.68342 12.1599 6.31658 12.1599 6.70711 12.5505L7.14155 12.9849V9.00006C7.14155 8.44778 7.58927 8.00006 8.14155 8.00006C8.69383 8.00006 9.14155 8.44778 9.14155 9.00006V12.9874L9.57852 12.5505C9.96904 12.1599 10.6022 12.1599 10.9927 12.5505C11.3833 12.941 11.3833 13.5742 10.9927 13.9647L8.84992 16.1075C8.64712 16.3103 8.37889 16.4078 8.11319 16.4C7.83342 16.3922 7.58238 16.2695 7.40558 16.0774L5.29289 13.9647Z" fill="black"/>
</svg>
