<svg width="24" height="24" viewBox="0 0 24 24" fill="none" xmlns="http://www.w3.org/2000/svg">
<path d="M18 1H22C22.5523 1 23 1.44772 23 2V6" stroke="black" stroke-width="2" stroke-linecap="round" stroke-linejoin="round"/>
<path d="M18 23H22C22.5523 23 23 22.5523 23 22V18" stroke="black" stroke-width="2" stroke-linecap="round" stroke-linejoin="round"/>
<path d="M6 1H2C1.44772 1 1 1.44772 1 2V6" stroke="black" stroke-width="2" stroke-linecap="round" stroke-linejoin="round"/>
<path d="M6 23L2 23C1.44772 23 1 22.5523 1 22L1 18" stroke="black" stroke-width="2" stroke-linecap="round" stroke-linejoin="round"/>
<circle cx="12" cy="12" r="8" stroke="black" stroke-width="2"/>
<path d="M16 14C15.5 15.1046 13.5 16 12 16C10.5 16 9 15.5 8 14" stroke="black" stroke-width="2" stroke-linecap="round" stroke-linejoin="round"/>
<circle cx="9" cy="10" r="1" fill="black"/>
<circle cx="15" cy="10" r="1" fill="black"/>
</svg>
