<svg width="200" height="59" viewBox="0 0 200 59" fill="none" xmlns="http://www.w3.org/2000/svg">
<path d="M25.5053 59L25.1299 58.8785C24.7112 58.7426 14.7271 55.4752 8.55472 50.7849C4.59861 47.782 0.483685 42.7843 0.310424 42.577L0 42.1909V6.51345L0.620849 6.10591C1.00347 5.85567 10.078 0 25.3032 0C40.2613 0 50.2094 5.82707 50.6208 6.07731L51.2994 6.4777V42.2338L50.9457 42.627C50.7003 42.8987 44.8744 49.3263 38.2616 53.845C33.5186 57.0839 26.2056 58.8427 25.8952 58.9142L25.5053 59ZM2.7866 41.2042C3.8045 42.4054 7.1542 46.2376 10.2584 48.5971C15.4057 52.508 23.7583 55.4895 25.6208 56.1258C27.1513 55.7254 32.9411 54.1167 36.6734 51.5642C42.1167 47.8463 47.1556 42.6127 48.5056 41.1613V8.0721C46.08 6.81374 37.3159 2.75982 25.3032 2.75982C13.0956 2.75982 5.01733 6.77799 2.7866 8.03636V41.2042Z" fill="white"/>
<path d="M34.7458 35.2912L29.0932 23.3082C28.6384 22.3572 28.3424 21.4921 28.3424 20.8629C28.3424 20.6556 28.3713 20.4768 28.4651 20.3553V20.1479H21.874V20.3553C22.1484 20.6556 22.2639 21.0703 22.2639 21.5207C22.2639 22.4716 21.7224 23.6656 21.3615 24.5022C21.3615 24.5022 19.5206 28.6061 18.315 31.2802C17.4559 30.7511 16.7773 30.0933 16.3658 29.2711L16.1781 29.1924L14.0123 33.5538C14.395 33.7754 15.2107 34.3832 16.6546 34.9766L16.5174 35.2912C14.6549 39.4953 13.5648 40.9824 12.814 41.6402V41.8475H18.7698V41.6402C18.5893 41.4043 18.5316 41.0754 18.5316 40.7465C18.5316 39.7598 19.1019 38.5086 19.5278 37.6149L20.3075 36.0133C21.6502 36.2493 23.2457 36.4066 25.1371 36.4066C27.144 36.4066 28.8911 36.1992 30.3927 35.8346L31.2662 37.6149C31.6849 38.48 32.2624 39.7312 32.2624 40.6821C32.2624 41.0396 32.1686 41.3685 31.9881 41.633V41.8404H38.3698V41.633C37.6118 40.868 36.7383 39.4667 34.7458 35.2912ZM25.1804 24.9169L28.6456 32.4098C27.7649 32.5886 26.6964 32.6958 25.4403 32.7244H24.3141C23.4045 32.703 22.5382 32.6243 21.7369 32.4885L25.1804 24.9169ZM24.6606 32.7387C24.7256 32.7387 24.7978 32.7459 24.8628 32.7459C24.8483 32.7459 24.8339 32.7459 24.8195 32.7459C24.7617 32.7459 24.7112 32.7387 24.6606 32.7387Z" fill="white"/>
<path d="M19.5567 26.3184C20.1198 25.0672 21.116 22.8007 21.2676 22.2144C19.7733 22.0214 18.8131 21.4351 18.8131 20.2697C18.8131 18.3464 20.9139 16.8521 25.8013 16.8521C29.6563 16.8521 33.0421 18.1248 34.2044 19.8908H34.421L36.4568 15.9512C35.2656 15.5151 31.4395 13.1914 25.989 13.1914C19.9104 13.1914 14.3589 15.3649 14.3589 20.5771C14.3589 24.2092 16.6257 25.7893 19.5567 26.3184Z" fill="white"/>
<path d="M29.8945 22.4502C29.9523 22.586 30.0173 22.7362 30.0967 22.8935L35.1645 33.6253C36.565 32.4027 37.2725 30.8583 37.2725 29.1495C37.2653 24.3306 33.5835 22.6933 29.8945 22.4502Z" fill="white"/>
<path d="M70.8993 17.0235L69.6648 19.3901L69.4482 19.2757C69.4482 19.0755 69.3833 18.9182 69.2533 18.8038C68.9068 18.4964 68.3942 18.239 67.7156 18.0388C67.037 17.8386 66.3512 17.7385 65.6582 17.7385C65.0662 17.7385 64.5392 17.8171 64.0844 17.9816C63.4274 18.2175 63.0954 18.5607 63.0954 19.004C63.0954 19.2971 63.2542 19.5116 63.5718 19.6332C63.8895 19.7547 64.5031 19.8548 65.4127 19.9263L66.8566 20.0336C68.1199 20.1337 69.0801 20.3696 69.7442 20.7557C70.1124 20.9702 70.4156 21.2633 70.6538 21.628C70.9498 22.0784 71.1014 22.5932 71.1014 23.158C71.1014 24.1947 70.6322 25.0098 69.6937 25.6104C68.7985 26.1824 67.5785 26.4755 66.048 26.4755C64.5031 26.4755 63.0087 26.1538 61.5721 25.5031C61.471 25.4602 61.3916 25.4388 61.3267 25.4388C61.2039 25.4388 61.0884 25.5103 60.9874 25.6533L60.7563 25.5603L61.8103 23.0722L62.0414 23.1652C62.0414 23.2009 62.0414 23.2224 62.0414 23.2367C62.0414 23.394 62.0991 23.5298 62.2218 23.637C62.525 23.9016 63.052 24.1375 63.8028 24.3306C64.5536 24.5236 65.2972 24.6237 66.0263 24.6237C66.6761 24.6237 67.2536 24.5379 67.7662 24.3663C68.4015 24.159 68.7191 23.8301 68.7191 23.3654C68.7191 22.9936 68.5025 22.7362 68.0622 22.5932C67.7662 22.4931 67.2392 22.4144 66.4812 22.3501L65.0445 22.2357C64.2721 22.1785 63.6801 22.0998 63.2686 21.9997C62.8571 21.8996 62.5034 21.7638 62.2002 21.5708C61.8103 21.3277 61.5071 20.9988 61.2833 20.5841C61.0668 20.1694 60.9513 19.7118 60.9513 19.2113C60.9513 18.096 61.4349 17.2523 62.3951 16.666C63.2758 16.1369 64.3587 15.8652 65.6582 15.8652C66.3584 15.8652 67.0154 15.9439 67.6218 16.094C68.2282 16.2442 68.9573 16.5159 69.7948 16.9091C70.0474 17.0235 70.2207 17.0807 70.3145 17.0807C70.4156 17.0807 70.5383 17.0163 70.6899 16.8805L70.8993 17.0235Z" fill="white"/>
<path d="M78.4071 17.9531V25.3388C78.4071 25.5247 78.4504 25.6677 78.5371 25.7678C78.6237 25.8679 78.7753 25.9537 78.9919 26.018V26.2754H75.3678V26.018C75.5844 25.9608 75.736 25.8822 75.8226 25.7821C75.9093 25.682 75.9526 25.5318 75.9526 25.346V17.9531H72.9277C72.7328 17.9531 72.5812 17.996 72.4802 18.0818C72.3791 18.1676 72.2997 18.3177 72.2347 18.5322H71.9893V15.5293H72.2347C72.2925 15.7438 72.3647 15.8939 72.4657 15.9797C72.5668 16.0655 72.7112 16.1084 72.9133 16.1084H81.4175C81.6124 16.1084 81.764 16.0655 81.8651 15.9797C81.9662 15.8939 82.0456 15.7438 82.1105 15.5293H82.356V18.5322H82.1105C82.0528 18.3177 81.9662 18.1676 81.8651 18.0818C81.764 17.996 81.6196 17.9531 81.4175 17.9531H78.4071Z" fill="white"/>
<path d="M86.4567 22.0999V25.3388C86.4567 25.5247 86.5001 25.6677 86.5867 25.7678C86.6733 25.8679 86.8249 25.9465 87.0415 26.018V26.2754H83.4175V26.018C83.6341 25.9608 83.7857 25.8822 83.8723 25.7821C83.9589 25.682 84.0022 25.5318 84.0022 25.3459V17.0379C84.0022 16.852 83.9589 16.709 83.8723 16.6089C83.7857 16.5088 83.6341 16.4301 83.4175 16.3658V16.1084H90.1385C91.012 16.1084 91.6762 16.1513 92.1382 16.2371C92.593 16.3229 93.0045 16.4802 93.3655 16.7161C94.1018 17.1952 94.47 17.9745 94.47 19.0541C94.47 19.8763 94.239 20.5198 93.7842 20.9845C93.3294 21.4493 92.593 21.7782 91.5824 21.9855L93.5243 24.6667C93.8781 25.16 94.1596 25.4961 94.369 25.6748C94.5783 25.8536 94.8165 25.9679 95.0909 26.0108V26.2682H90.781V26.0108C91.0987 25.9251 91.2575 25.7892 91.2575 25.6033C91.2575 25.4746 91.1564 25.2673 90.9615 24.9956L88.9113 22.0928H86.4567V22.0999ZM86.4567 20.2553H90.153C90.7161 20.2553 91.1276 20.1981 91.4019 20.0765C91.7773 19.9121 91.9722 19.5903 91.9722 19.1042C91.9722 18.6752 91.8422 18.3749 91.5751 18.2033C91.308 18.0317 90.8388 17.9459 90.1602 17.9459H86.464V20.2553H86.4567Z" fill="white"/>
<path d="M104.533 23.7302H99.819L99.2848 24.8385C99.1549 25.103 99.0899 25.3103 99.0899 25.4676C99.0899 25.7608 99.2848 25.9395 99.6747 26.0182V26.2756H95.9062V26.0182C96.1373 25.9824 96.3105 25.9109 96.426 25.8108C96.5415 25.7107 96.6715 25.5034 96.8231 25.2031L100.57 17.6958C100.707 17.4098 100.779 17.1667 100.779 16.9522C100.779 16.702 100.606 16.509 100.267 16.3731V16.1157H104.252V16.3731C103.912 16.509 103.746 16.7092 103.746 16.988C103.746 17.1882 103.826 17.4313 103.977 17.7244L107.861 25.01C108.078 25.4033 108.244 25.6607 108.367 25.7822C108.489 25.8966 108.677 25.9824 108.922 26.0325V26.2899H104.735V26.0325C105.132 25.9681 105.327 25.7822 105.327 25.4819C105.327 25.296 105.248 25.0601 105.096 24.7884L104.533 23.7302ZM103.79 22.3074L102.108 19.04L100.512 22.3074H103.79Z" fill="white"/>
<path d="M114.272 21.6423L112.814 22.8149V25.3388C112.814 25.5247 112.857 25.6677 112.944 25.7678C113.03 25.8679 113.182 25.9465 113.398 26.018V26.2754H109.774V26.018C109.991 25.9608 110.143 25.8822 110.229 25.7821C110.316 25.682 110.359 25.5318 110.359 25.3459V17.0379C110.359 16.852 110.316 16.709 110.229 16.6089C110.143 16.5088 109.991 16.4301 109.774 16.3658V16.1084H113.398V16.3658C113.182 16.423 113.023 16.5088 112.944 16.6089C112.857 16.709 112.814 16.852 112.814 17.0379V20.3697L116.676 17.3239C116.965 17.1022 117.109 16.902 117.109 16.7376C117.109 16.5588 116.929 16.4373 116.582 16.3729V16.1155H121.195V16.3729C120.964 16.4087 120.769 16.4802 120.61 16.5803C120.452 16.6804 120.069 16.995 119.455 17.5241L116.005 20.2624L119.802 24.588C120.293 25.1457 120.639 25.5104 120.849 25.682C121.058 25.8536 121.303 25.9608 121.578 26.0251V26.2825H117.087V26.0251C117.427 25.9465 117.593 25.825 117.593 25.6677C117.593 25.6105 117.571 25.5533 117.535 25.4889C117.499 25.4317 117.355 25.2673 117.109 24.9884L114.272 21.6423Z" fill="white"/>
<path d="M131.396 21.8425H125.664V25.3316C125.664 25.5175 125.707 25.6605 125.794 25.7606C125.88 25.8607 126.032 25.9465 126.249 26.0108V26.2682H122.625V26.0108C122.841 25.9536 122.993 25.875 123.079 25.7749C123.166 25.6748 123.209 25.5247 123.209 25.3388V17.0379C123.209 16.852 123.166 16.709 123.079 16.6089C122.993 16.5088 122.841 16.4301 122.625 16.3658V16.1084H126.249V16.3658C126.032 16.423 125.873 16.5088 125.794 16.6089C125.707 16.709 125.664 16.852 125.664 17.0379V20.005H131.396V17.0379C131.396 16.852 131.352 16.709 131.273 16.6089C131.194 16.5159 131.035 16.4301 130.811 16.3658V16.1084H134.435V16.3658C134.218 16.423 134.06 16.5088 133.98 16.6089C133.901 16.709 133.85 16.852 133.85 17.0379V25.3388C133.85 25.5247 133.894 25.6677 133.98 25.7678C134.067 25.8679 134.218 25.9536 134.435 26.018V26.2754H130.811V26.018C131.028 25.9608 131.179 25.8822 131.266 25.7821C131.352 25.682 131.396 25.5318 131.396 25.3459V21.8425Z" fill="white"/>
<path d="M142.001 15.894C143.633 15.894 144.99 16.3087 146.08 17.131C147.379 18.1248 148.029 19.5047 148.029 21.2778C148.029 22.9437 147.379 24.2664 146.08 25.2603C145.004 26.0825 143.654 26.4972 142.023 26.4972C140.391 26.4972 139.041 26.0825 137.966 25.2603C136.659 24.2664 136.002 22.9151 136.002 21.1992C136.002 19.4618 136.652 18.1105 137.966 17.1381C139.041 16.323 140.391 15.9083 142.001 15.894ZM142.016 17.8173C140.954 17.8173 140.095 18.1534 139.431 18.8255C138.81 19.4546 138.507 20.2411 138.507 21.192C138.507 22.1358 138.817 22.9223 139.431 23.5515C140.095 24.2307 140.962 24.5667 142.023 24.5667C143.084 24.5667 143.943 24.2307 144.607 23.5515C145.228 22.9294 145.531 22.1573 145.531 21.2421C145.531 20.2411 145.221 19.4403 144.607 18.8326C143.936 18.1605 143.07 17.8245 142.016 17.8173Z" fill="white"/>
<path d="M154.216 23.0507L156.707 17.6812C156.851 17.3737 156.923 17.1449 156.923 16.9948C156.923 16.6945 156.728 16.4872 156.331 16.3656V16.1082H160.295V16.3656C160.049 16.4443 159.876 16.5444 159.76 16.6588C159.652 16.7732 159.508 17.0091 159.342 17.3666L155.746 24.8524C155.617 25.117 155.552 25.3243 155.552 25.4601C155.552 25.7604 155.754 25.9535 156.158 26.0321V26.2752H152.137V26.025C152.534 25.9463 152.729 25.7533 152.729 25.453C152.729 25.3171 152.664 25.1098 152.534 24.8453L148.939 17.3594C148.766 16.9948 148.628 16.7589 148.52 16.6445C148.412 16.5301 148.231 16.4371 147.986 16.3585V16.1011H152.094V16.3585C151.704 16.48 151.509 16.6874 151.509 16.9876C151.509 17.1235 151.588 17.3523 151.74 17.674L154.216 23.0507Z" fill="white"/>
<path d="M170.611 17.0235L169.376 19.3901L169.16 19.2757C169.16 19.0755 169.095 18.9182 168.965 18.8038C168.618 18.4964 168.106 18.239 167.427 18.0388C166.748 17.8386 166.063 17.7385 165.37 17.7385C164.778 17.7385 164.251 17.8171 163.796 17.9816C163.139 18.2175 162.807 18.5607 162.807 19.004C162.807 19.2971 162.966 19.5116 163.283 19.6332C163.601 19.7547 164.215 19.8548 165.124 19.9263L166.568 20.0336C167.831 20.1337 168.791 20.3696 169.456 20.7557C169.824 20.9702 170.127 21.2633 170.365 21.628C170.661 22.0784 170.813 22.5932 170.813 23.158C170.813 24.1947 170.344 25.0098 169.405 25.6104C168.51 26.1824 167.29 26.4755 165.759 26.4755C164.215 26.4755 162.72 26.1538 161.284 25.5031C161.182 25.4602 161.103 25.4388 161.038 25.4388C160.915 25.4388 160.8 25.5103 160.699 25.6533L160.468 25.5603L161.522 23.0722L161.753 23.1652C161.753 23.2009 161.753 23.2224 161.753 23.2367C161.753 23.394 161.811 23.5298 161.933 23.637C162.236 23.9016 162.763 24.1375 163.514 24.3306C164.265 24.5236 165.009 24.6237 165.738 24.6237C166.387 24.6237 166.965 24.5379 167.478 24.3663C168.113 24.159 168.431 23.8301 168.431 23.3654C168.431 22.9936 168.214 22.7362 167.774 22.5932C167.478 22.4931 166.951 22.4144 166.193 22.3501L164.756 22.2357C163.984 22.1785 163.392 22.0998 162.98 21.9997C162.569 21.8996 162.215 21.7638 161.912 21.5708C161.522 21.3277 161.219 20.9988 160.995 20.5841C160.778 20.1694 160.663 19.7118 160.663 19.2113C160.663 18.096 161.146 17.2523 162.107 16.666C162.987 16.1369 164.07 15.8652 165.37 15.8652C166.07 15.8652 166.727 15.9439 167.333 16.094C167.94 16.2442 168.669 16.5159 169.506 16.9091C169.759 17.0235 169.932 17.0807 170.026 17.0807C170.12 17.0807 170.25 17.0163 170.401 16.8805L170.611 17.0235Z" fill="white"/>
<path d="M176.79 21.6423L175.332 22.8149V25.3388C175.332 25.5247 175.375 25.6677 175.462 25.7678C175.548 25.8679 175.7 25.9465 175.916 26.018V26.2754H172.292V26.018C172.509 25.9608 172.661 25.8822 172.747 25.7821C172.834 25.682 172.877 25.5318 172.877 25.3459V17.0379C172.877 16.852 172.834 16.709 172.747 16.6089C172.661 16.5088 172.509 16.4301 172.292 16.3658V16.1084H175.916V16.3658C175.7 16.423 175.541 16.5088 175.462 16.6089C175.382 16.709 175.332 16.852 175.332 17.0379V20.3697L179.194 17.3239C179.483 17.1022 179.627 16.902 179.627 16.7376C179.627 16.5588 179.447 16.4373 179.1 16.3729V16.1155H183.713V16.3729C183.482 16.4087 183.287 16.4802 183.128 16.5803C182.97 16.6804 182.587 16.995 181.973 17.5241L178.523 20.2624L182.32 24.588C182.811 25.1457 183.157 25.5104 183.367 25.682C183.576 25.8536 183.821 25.9608 184.096 26.0251V26.2825H179.605V26.0251C179.945 25.9465 180.111 25.825 180.111 25.6677C180.111 25.6105 180.089 25.5533 180.053 25.4889C180.017 25.4317 179.873 25.2673 179.627 24.9884L176.79 21.6423Z" fill="white"/>
<path d="M191.084 21.8137V25.3457C191.084 25.5316 191.127 25.6746 191.214 25.7747C191.301 25.8748 191.452 25.9606 191.669 26.025V26.2681H188.045V26.025C188.261 25.9678 188.42 25.882 188.5 25.7819C188.586 25.6818 188.63 25.5316 188.63 25.3386V21.8066L185.59 17.6669C185.251 17.2021 184.977 16.8804 184.767 16.7088C184.565 16.5372 184.32 16.4228 184.038 16.3585V16.1011H188.658V16.3585C188.261 16.4586 188.059 16.6445 188.059 16.909C188.059 17.0448 188.204 17.3094 188.492 17.7098L189.979 19.7546L191.431 17.7098C191.719 17.3022 191.864 17.0377 191.864 16.9018C191.864 16.6516 191.669 16.4657 191.279 16.3585L191.272 16.1011H195.668V16.3585C195.387 16.4157 195.141 16.5372 194.939 16.7088C194.737 16.8804 194.463 17.2021 194.116 17.6669L191.084 21.8137Z" fill="white"/>
<path d="M199.408 17.0379V25.3388C199.408 25.5247 199.451 25.6677 199.538 25.7678C199.624 25.8679 199.776 25.9536 199.993 26.018V26.2754H196.369V26.018C196.585 25.9608 196.737 25.8822 196.823 25.7821C196.91 25.682 196.953 25.5318 196.953 25.3459V17.0379C196.953 16.852 196.91 16.709 196.823 16.6089C196.737 16.5088 196.585 16.4301 196.369 16.3658V16.1084H199.993V16.3658C199.776 16.423 199.617 16.5088 199.538 16.6089C199.458 16.709 199.408 16.8448 199.408 17.0379Z" fill="white"/>
<path d="M68.972 39.2453C68.1779 40.1748 66.8785 40.5394 65.6584 40.5394C62.9801 40.5394 60.7422 38.7734 60.7422 36.5785C60.7422 34.3477 63.0234 32.5889 66.0772 32.5889C67.4199 32.5889 68.9143 32.9321 69.8528 33.454V34.934C68.6833 34.1833 67.1528 33.933 66.1638 33.933C64.0558 33.933 62.6047 35.0841 62.6047 36.5928C62.6047 38.0299 63.9331 39.2096 65.7884 39.2096C67.1456 39.2096 68.5461 38.5804 68.6905 36.6928H68.7194C68.7194 36.6785 68.7338 36.6714 70.5242 36.6928V40.4393H68.9793V39.2453H68.972Z" fill="white"/>
<path d="M72.2352 34.1904C72.8705 34.1046 73.4481 34.0688 74.0256 34.0688C76.509 34.0688 77.5125 35.127 77.5125 36.4354C77.5125 37.2862 77.0504 38.0799 75.8665 38.4588L78.2777 40.4321H75.982L74.105 38.7877H73.9895V40.4321H72.228V34.1904H72.2352ZM73.9967 35.3272V37.5365H74.17C75.3106 37.5365 75.7293 37.0646 75.7293 36.4211C75.7293 35.8134 75.3251 35.3272 74.0978 35.3272H73.9967Z" fill="white"/>
<path d="M83.2587 34.0688C85.6266 34.0688 87.5397 35.5203 87.5397 37.3077C87.5397 39.0951 85.6194 40.5466 83.2587 40.5466C80.9269 40.5466 78.9922 39.1023 78.9922 37.3077C78.9922 35.5131 80.9269 34.0688 83.2587 34.0688ZM83.2587 39.281C84.6304 39.281 85.7493 38.3945 85.7493 37.3077C85.7493 36.2138 84.6231 35.3272 83.2587 35.3272C81.9015 35.3272 80.7753 36.2138 80.7753 37.3077C80.7825 38.3945 81.9087 39.281 83.2587 39.281Z" fill="white"/>
<path d="M96.3328 34.1763V37.8012C96.3328 39.46 94.9756 40.5396 92.8026 40.5396C90.6369 40.5396 89.2725 39.46 89.2725 37.8012V34.1763H91.0339V37.8012C91.0339 38.7092 91.6692 39.2812 92.8099 39.2812C93.936 39.2812 94.5858 38.6949 94.5858 37.7869V34.1763H96.3328Z" fill="white"/>
<path d="M98.6284 34.1761C99.206 34.1117 99.7979 34.0688 100.419 34.0688C102.909 34.0688 103.906 35.127 103.906 36.4354C103.906 37.7367 102.924 38.7877 100.404 38.7877H100.39V40.4321H98.6284V34.1761ZM100.39 35.3272V37.5293H100.578C101.704 37.5293 102.123 37.0646 102.123 36.4283C102.123 35.8205 101.718 35.3344 100.491 35.3344H100.39V35.3272Z" fill="white"/>
</svg>
