<svg width="45" height="60" viewBox="0 0 45 60" fill="none" xmlns="http://www.w3.org/2000/svg">
<path d="M35.8674 15.3336L42.5912 11.3555C43.8096 10.6363 43.9921 9.77458 43.5295 9.19147C41.9527 7.20889 40.0763 5.48548 37.9653 4.07305C37.3659 3.67136 36.545 3.89164 36.1866 4.5201L32.121 11.7377C31.8083 12.2949 31.9842 12.9687 32.4794 13.3575C33.1244 13.8628 33.7173 14.42 34.2516 15.0355C34.6685 15.5085 35.3266 15.651 35.8674 15.3336Z" fill="black"/>
<path d="M29.7874 35.6388C28.758 36.1053 27.6569 36.4422 26.5037 36.6301C25.8717 36.7337 25.3896 37.2456 25.4026 37.887C25.4612 42.1696 25.6567 57.3305 25.6762 58.4254C25.6762 58.4513 25.7023 58.4643 25.7219 58.4449C28.1391 56.0735 32.4913 51.7067 36.6742 47.126C36.6807 47.1196 36.6872 47.1001 36.6807 47.0937L29.8265 35.6517C29.82 35.6388 29.8005 35.6323 29.7874 35.6388Z" fill="black"/>
<path d="M19.409 11.5172C20.1192 11.2321 20.862 11.0053 21.6243 10.8498C22.2302 10.7267 22.6798 10.2279 22.6732 9.61236C22.6472 7.66218 22.5951 3.52209 22.5625 1.37106C22.556 0.638936 21.9109 0.0558255 21.1747 0.146532C18.6793 0.464003 16.2947 1.15078 14.0925 2.1615C13.4279 2.46602 13.1934 3.29533 13.5713 3.92379L17.8323 11.0183C18.1516 11.5625 18.8227 11.7504 19.409 11.5172Z" fill="black"/>
<path d="M26.1665 10.6943C26.9679 10.8044 27.7432 10.9794 28.486 11.2191C29.0724 11.4135 29.7174 11.1997 30.0236 10.6619L34.0827 3.45725C34.4476 2.80935 34.1804 1.98004 33.4898 1.70144C31.2225 0.787904 28.7922 0.204794 26.2447 0.00394473C25.5215 -0.0543663 24.909 0.541702 24.9221 1.26735C24.9481 3.38598 25.0068 7.49367 25.0328 9.46977C25.0394 10.1112 25.5345 10.6101 26.1665 10.6943Z" fill="black"/>
<path d="M10.0993 25.0391L1.24486 25.1558C0.521657 25.1622 -0.071242 25.7842 0.0069425 26.4969C0.280588 29.2181 1.0038 31.9263 1.84428 33.8441C2.00716 34.1551 2.30687 34.33 2.51536 34.3948C2.83462 34.492 3.23857 34.5114 3.63601 34.3948L11.4414 29.7753C11.9757 29.4578 12.1712 28.8099 11.9561 28.2268C11.702 27.5465 11.5001 26.8338 11.3567 26.1017C11.2395 25.4927 10.7247 25.0327 10.0993 25.0391Z" fill="black"/>
<path d="M14.0149 15.5084C14.484 14.9253 15.0053 14.3875 15.5656 13.8951C16.0347 13.4869 16.1715 12.8261 15.8523 12.2948L11.8909 5.67323C11.1742 4.4811 10.3337 4.29321 9.74735 4.7273C7.76668 6.19803 6.02707 7.95384 4.57415 9.9429C4.13762 10.539 4.34611 11.3812 4.99113 11.7441L11.8192 15.5472C12.9464 16.1692 13.6175 16.0008 14.0149 15.5084Z" fill="black"/>
<path d="M11.3121 21.5984C11.4293 20.8663 11.6052 20.1471 11.8398 19.4603C12.0418 18.8772 11.8268 18.2293 11.286 17.9313L3.78028 13.7459C3.14829 13.396 2.32735 13.6357 2.02765 14.2966C1.03079 16.5254 0.359709 18.9291 0.0665172 21.4559C-0.0181827 22.1945 0.587747 22.8294 1.3305 22.8165C3.59134 22.7841 8.02831 22.7322 10.0807 22.6998C10.7192 22.6934 11.2143 22.2139 11.3121 21.5984Z" fill="black"/>
<path d="M43.9431 36.1115C41.9299 34.9907 37.9164 32.7554 36.0921 31.7382C35.5448 31.4337 34.8933 31.5957 34.4893 32.0751C33.9681 32.7036 33.3882 33.2802 32.7563 33.7985C32.2676 34.2067 32.1112 34.887 32.437 35.4312L37.4473 43.8021C37.8904 44.5407 38.9198 44.625 39.4866 43.9771C41.3174 41.8649 43.0049 39.7981 44.3406 37.9451C44.7771 37.3296 44.6012 36.4808 43.9431 36.1115Z" fill="black"/>
<path d="M21.9676 36.6106C20.8274 36.4033 19.7394 36.0405 18.7164 35.561C18.7099 35.561 18.7034 35.561 18.6969 35.5675L11.973 47.5148C11.9665 47.5278 11.9665 47.5407 11.9795 47.5472C16.7814 53.0479 21.7265 58.1533 23.3033 59.7666C23.3228 59.786 23.3424 59.7731 23.3424 59.7471C23.3293 58.6068 23.1078 42.1826 23.0557 37.8157C23.0426 37.2002 22.5801 36.7208 21.9676 36.6106Z" fill="black"/>
<path d="M15.8251 33.7141C15.2517 33.2347 14.7175 32.7034 14.2353 32.1332C13.8249 31.6473 13.1473 31.4983 12.6 31.8222L4.84667 36.4094C4.22119 36.7787 4.03225 37.595 4.44923 38.1911C5.76534 40.0635 7.4007 42.1368 9.15333 44.2425C9.72017 44.9228 10.7887 44.8321 11.2187 44.0675C12.5609 41.6833 15.0628 37.2452 16.1443 35.3144C16.4506 34.7702 16.2942 34.1093 15.8251 33.7141Z" fill="black"/>
</svg>
