<svg width="160" height="160" viewBox="0 0 160 160" fill="none" xmlns="http://www.w3.org/2000/svg">
<rect width="160" height="160" rx="80" fill="white"/>
<path d="M98.2077 61.6011L108.557 55.478C110.432 54.371 110.713 53.0447 110.001 52.1472C107.574 49.0956 104.686 46.4429 101.437 44.2689C100.514 43.6506 99.2507 43.9897 98.6991 44.957L92.4413 56.0664C91.96 56.924 92.2307 57.9611 92.9929 58.5595C93.9857 59.3373 94.8983 60.195 95.7206 61.1424C96.3625 61.8704 97.3753 62.0897 98.2077 61.6011Z" fill="#FEC62E"/>
<path d="M88.8511 92.855C87.2666 93.573 85.5718 94.0916 83.7968 94.3808C82.824 94.5403 82.0819 95.3282 82.102 96.3154C82.1922 102.907 82.4931 126.243 82.5232 127.928C82.5232 127.968 82.5633 127.988 82.5934 127.958C86.3139 124.308 93.013 117.587 99.4512 110.536C99.4613 110.526 99.4713 110.496 99.4613 110.486L88.9113 92.8749C88.9013 92.855 88.8712 92.845 88.8511 92.855Z" fill="#FEC62E"/>
<path d="M72.8759 55.7273C73.969 55.2885 75.1122 54.9395 76.2855 54.7001C77.2182 54.5106 77.9102 53.7428 77.9001 52.7954C77.86 49.7936 77.7798 43.4212 77.7296 40.1103C77.7196 38.9834 76.7268 38.0859 75.5936 38.2255C71.7527 38.7142 68.0822 39.7713 64.6926 41.327C63.6697 41.7957 63.3087 43.0722 63.8903 44.0395L70.449 54.9594C70.9404 55.7971 71.9733 56.0863 72.8759 55.7273Z" fill="#FEC62E"/>
<path d="M83.2746 54.4607C84.5081 54.6302 85.7015 54.8995 86.8448 55.2685C87.7474 55.5677 88.7402 55.2386 89.2115 54.4108L95.4593 43.3214C96.0209 42.3242 95.6097 41.0477 94.5467 40.6189C91.0568 39.2127 87.3161 38.3152 83.395 38.0061C82.2818 37.9163 81.3391 38.8338 81.3592 39.9507C81.3993 43.2117 81.4896 49.5343 81.5297 52.5759C81.5397 53.5632 82.3019 54.3311 83.2746 54.4607Z" fill="#FEC62E"/>
<path d="M58.5448 76.5399L44.9161 76.7194C43.8029 76.7294 42.8903 77.6867 43.0107 78.7837C43.4319 82.9722 44.545 87.1407 45.8387 90.0925C46.0894 90.5712 46.5507 90.8405 46.8717 90.9402C47.363 91.0898 47.9848 91.1197 48.5966 90.9402L60.6107 83.8298C61.433 83.3411 61.7339 82.3439 61.4029 81.4464C61.0118 80.3993 60.7009 79.3023 60.4803 78.1754C60.2998 77.238 59.5075 76.5299 58.5448 76.5399Z" fill="#FEC62E"/>
<path d="M64.5715 61.8704C65.2935 60.9729 66.0958 60.1452 66.9582 59.3873C67.6803 58.759 67.8909 57.7418 67.3995 56.9241L61.3022 46.7322C60.199 44.8972 58.9054 44.608 58.0028 45.2762C54.9541 47.5399 52.2765 50.2425 50.0402 53.304C49.3683 54.2215 49.6892 55.5179 50.682 56.0764L61.1918 61.9303C62.9268 62.8876 63.9597 62.6283 64.5715 61.8704Z" fill="#FEC62E"/>
<path d="M60.4097 71.2445C60.5903 70.1176 60.861 69.0106 61.2221 67.9536C61.5329 67.056 61.202 66.0588 60.3696 65.6L48.8168 59.1578C47.8441 58.6193 46.5805 58.9883 46.1191 60.0055C44.5848 63.436 43.5519 67.1358 43.1006 71.0251C42.9702 72.1619 43.9029 73.1393 45.0461 73.1193C48.526 73.0694 55.3554 72.9897 58.5144 72.9398C59.4972 72.9298 60.2593 72.1919 60.4097 71.2445Z" fill="#FEC62E"/>
<path d="M110.633 93.5829C107.534 91.8576 101.357 88.4171 98.5489 86.8514C97.7065 86.3827 96.7037 86.632 96.0819 87.37C95.2797 88.3373 94.3871 89.2249 93.4144 90.0227C92.6622 90.6509 92.4215 91.6981 92.923 92.5358L100.635 105.42C101.317 106.557 102.901 106.687 103.774 105.689C106.592 102.438 109.189 99.2572 111.245 96.4051C111.917 95.4577 111.646 94.1513 110.633 93.5829Z" fill="#FEC62E"/>
<path d="M76.8166 94.3509C75.0616 94.0318 73.3868 93.4733 71.8123 92.7354C71.8023 92.7354 71.7923 92.7353 71.7823 92.7453L61.4329 111.135C61.4228 111.155 61.4228 111.175 61.4429 111.184C68.8339 119.651 76.4455 127.509 78.8724 129.993C78.9025 130.023 78.9326 130.003 78.9326 129.963C78.9125 128.208 78.5715 102.927 78.4913 96.2058C78.4712 95.2584 77.7592 94.5204 76.8166 94.3509Z" fill="#FEC62E"/>
<path d="M67.3598 89.893C66.4773 89.1551 65.655 88.3373 64.9128 87.4597C64.2811 86.7118 63.2381 86.4824 62.3957 86.9811L50.4618 94.0416C49.4991 94.61 49.2082 95.8666 49.8501 96.784C51.8758 99.6661 54.393 102.857 57.0906 106.098C57.9631 107.145 59.6078 107.006 60.2697 105.829C62.3355 102.159 66.1865 95.328 67.8512 92.3562C68.3225 91.5186 68.0818 90.5014 67.3598 89.893Z" fill="#FEC62E"/>
</svg>
