<svg width="17" height="21" viewBox="0 0 17 21" fill="none" xmlns="http://www.w3.org/2000/svg">
<path d="M14.8126 11.52C13.8272 13.38 9.49952 18.84 9.30632 19.08V19.08C8.94164 19.5493 8.23302 19.5606 7.85731 19.1V19.1C7.39363 18.52 3.25912 13.36 2.35107 11.5C1.53963 9.84 1.40438 7.84 1.98398 6C2.58291 4.14 3.80008 2.64 5.46161 1.78C6.44694 1.26 7.49023 1 8.59147 1C11.2577 1 13.6534 2.52 14.8512 4.98C15.0719 5.43701 15.246 5.90386 15.3729 6.37488" stroke="black" stroke-width="2" stroke-linecap="round"/>
<path d="M6.00781 8.00499C6.00781 6.57011 7.17192 5.40601 8.60681 5.40601C10.0417 5.40601 11.2058 6.57011 11.2058 8.00499C11.2058 9.43988 10.0417 10.604 8.60681 10.604C7.17192 10.604 6.00781 9.43988 6.00781 8.00499Z" stroke="black" stroke-width="2"/>
</svg>
