<svg viewBox="0 0 18 19" fill="none" xmlns="http://www.w3.org/2000/svg">
<path d="M3.85714 17H3C1.89543 17 1 16.1046 1 15V3C1 1.89543 1.89543 1 3 1H15C16.1046 1 17 1.89543 17 3V15C17 16.1046 16.1046 17 15 17H14.1429" stroke="black" stroke-width="2" stroke-linecap="round" stroke-linejoin="round"/>
<path d="M9 19L6 15L12 15L9 19Z" fill="black"/>
<line x1="9" y1="15" x2="9" y2="11" stroke="black" stroke-width="2"/>
<path d="M3.89 4.8V9H4.718V7.62H5.456C5.858 7.62 6.2 7.482 6.476 7.212C6.752 6.942 6.89 6.606 6.89 6.21C6.89 5.814 6.752 5.478 6.476 5.208C6.2 4.938 5.858 4.8 5.456 4.8H3.89ZM4.718 6.846V5.574H5.456C5.81 5.574 6.068 5.844 6.068 6.21C6.068 6.57 5.81 6.846 5.456 6.846H4.718ZM7.42906 4.8V9H9.09706C9.67306 9 10.1531 8.796 10.5371 8.394C10.9271 7.992 11.1191 7.494 11.1191 6.9C11.1191 6.306 10.9271 5.808 10.5371 5.406C10.1531 5.004 9.67306 4.8 9.09706 4.8H7.42906ZM8.25706 8.208V5.592H9.09706C9.46306 5.592 9.75706 5.712 9.98506 5.958C10.2131 6.198 10.3271 6.51 10.3271 6.9C10.3271 7.29 10.2131 7.602 9.98506 7.848C9.75706 8.088 9.46306 8.208 9.09706 8.208H8.25706ZM14.2144 4.8H11.7064V9H12.5344V7.38H14.1664V6.588H12.5344V5.592H14.2144V4.8Z" fill="black"/>
</svg>
