<svg width="21" height="20" viewBox="0 0 21 20" fill="none" xmlns="http://www.w3.org/2000/svg">
<path d="M12.9165 12.8907L13.8705 11.9409C14.2543 11.5586 14.9258 11.6542 15.4055 12.1321L17.7822 14.5L18.5713 15.2863C19.051 15.7642 19.147 16.4332 18.7632 16.8156C18.3971 17.1803 18.3128 17.263 18 17.5741C17.821 17.7521 17.5672 18.005 17.1429 18.4283C13.4014 22.1559 -2.23603 6.57629 1.60138 2.84865C2.67103 1.78126 2.55016 1.90497 3.12577 1.23591C3.50951 0.853588 4.27699 0.949168 4.75667 1.42707L7.92253 4.58123C8.40221 5.05914 8.40221 5.7282 8.01847 6.11052L6.20627 8.01C6.8315 8.63292 9.37476 11.3147 10 11.9409" stroke-width="2" stroke-linecap="round" stroke-linejoin="round"/>
</svg>
