<svg width="44" height="44" viewBox="0 0 44 44" fill="none" xmlns="http://www.w3.org/2000/svg">
<circle cx="22" cy="22" r="22"/>
<path d="M16.7432 15.2991C16.3444 14.9003 15.6979 14.9003 15.2991 15.2991C14.9003 15.6979 14.9003 16.3444 15.2991 16.7432L20.556 22.0001L15.2992 27.2568C14.9005 27.6556 14.9005 28.3021 15.2992 28.7009C15.698 29.0997 16.3446 29.0997 16.7434 28.7009L22.0001 23.4442L27.2568 28.7009C27.6556 29.0997 28.3021 29.0997 28.7009 28.7009C29.0997 28.3021 29.0997 27.6556 28.7009 27.2568L23.4442 22.0001L28.7011 16.7432C29.0998 16.3444 29.0998 15.6979 28.7011 15.2991C28.3023 14.9003 27.6557 14.9003 27.2569 15.2991L22.0001 20.556L16.7432 15.2991Z" fill="black"/>
</svg>
