<svg width="24" height="30" viewBox="0 0 24 30" fill="none" xmlns="http://www.w3.org/2000/svg">
<path fill-rule="evenodd" clip-rule="evenodd" d="M0.912053 7.20283C0.631765 7.38793 0.463128 7.70138 0.463122 8.03728L0.462891 21.9626C0.462879 22.6513 0.887683 23.3635 1.46836 23.7133L10.9684 29.4358C11.6032 29.8183 12.3975 29.8183 13.0324 29.4358L22.5323 23.7133C23.113 23.3635 23.5377 22.6514 23.5377 21.9627L23.5377 8.03738C23.5377 7.70149 23.369 7.38803 23.0887 7.20293L12.5514 0.244155C12.2172 0.0234337 11.7835 0.0234322 11.4493 0.244153L0.912053 7.20283ZM21.5377 19.6403L21.5377 8.57538L13.0004 2.93739L13.0004 14.0374C13.0004 14.0595 12.9997 14.0814 12.9983 14.1031C13.0289 14.1207 13.0591 14.1392 13.0889 14.1586L21.5377 19.6403ZM11.0025 14.1031C11.0011 14.0814 11.0004 14.0595 11.0004 14.0374L11.0004 2.93738L2.46311 8.57529L2.46293 19.6403L10.9118 14.1586C10.9417 14.1392 10.9719 14.1207 11.0025 14.1031ZM2.50034 22.0001L12.0004 15.8364L21.5003 22.0001L12.0004 27.7227L2.50034 22.0001Z" fill="black"/>
<path d="M5 19L5 10.8929L8.5 8.5L8.5 16.5" stroke="black" stroke-width="2" stroke-linecap="round" stroke-linejoin="round"/>
</svg>
