<svg width="24" height="24" viewBox="0 0 24 24" fill="none" xmlns="http://www.w3.org/2000/svg">
<path d="M14 3.95407C14 3.2466 14.7145 2.76284 15.3714 3.02559L21.3714 5.42559C21.751 5.57745 22 5.94516 22 6.35407V20.0459C22 20.7534 21.2855 21.2372 20.6286 20.9744L14.6286 18.5744C14.249 18.4225 14 18.0548 14 17.6459V3.95407Z" fill="white" stroke="black" stroke-width="2" stroke-linecap="round" stroke-linejoin="round"/>
<path d="M8 3.95407C8 3.2466 8.71453 2.76284 9.37139 3.02559L15.3714 5.42559C15.751 5.57745 16 5.94516 16 6.35407V20.0459C16 20.7534 15.2855 21.2372 14.6286 20.9744L8.62861 18.5744C8.24895 18.4225 8 18.0548 8 17.6459V3.95407Z" fill="white" stroke="black" stroke-width="2" stroke-linecap="round" stroke-linejoin="round"/>
<path d="M2 3.95407C2 3.2466 2.71453 2.76284 3.37139 3.02559L9.37139 5.42559C9.75105 5.57745 10 5.94516 10 6.35407V20.0459C10 20.7534 9.28547 21.2372 8.62861 20.9744L2.62861 18.5744C2.24895 18.4225 2 18.0548 2 17.6459V3.95407Z" fill="white" stroke="black" stroke-width="2" stroke-linecap="round" stroke-linejoin="round"/>
</svg>
