<svg width="20" height="19" viewBox="0 0 20 19" fill="none" xmlns="http://www.w3.org/2000/svg">
<path d="M10.9014 1.56697C10.7349 1.22042 10.3845 1 10 1C9.61553 1 9.26511 1.22042 9.09862 1.56697L7.01865 5.89653L2.25825 6.53679C1.87721 6.58804 1.5593 6.8532 1.44049 7.21885C1.32168 7.5845 1.42303 7.98588 1.70117 8.25131L5.17608 11.5674L4.31396 16.2926C4.24495 16.6709 4.39889 17.0552 4.70993 17.2812C5.02097 17.5071 5.43403 17.5348 5.77242 17.3523L10 15.0722L14.2276 17.3523C14.566 17.5348 14.979 17.5071 15.2901 17.2812C15.6011 17.0552 15.755 16.6709 15.686 16.2926L14.8239 11.5674L18.2988 8.25131C18.577 7.98588 18.6783 7.5845 18.5595 7.21885C18.4407 6.8532 18.1228 6.58804 17.7417 6.53679L12.9813 5.89653L10.9014 1.56697Z" stroke="white" stroke-width="2" stroke-linejoin="round"/>
</svg>
