<svg width="48" height="48" viewBox="0 0 48 48" fill="none" xmlns="http://www.w3.org/2000/svg">
<circle cx="24" cy="24" r="24" />
<path d="M24.9014 15.567C24.7349 15.2204 24.3845 15 24 15C23.6155 15 23.2651 15.2204 23.0986 15.567L21.0187 19.8965L16.2583 20.5368C15.8772 20.588 15.5593 20.8532 15.4405 21.2188C15.3217 21.5845 15.423 21.9859 15.7012 22.2513L19.1761 25.5674L18.314 30.2926C18.245 30.6709 18.3989 31.0552 18.7099 31.2812C19.021 31.5071 19.434 31.5348 19.7724 31.3523L24 29.0722L28.2276 31.3523C28.566 31.5348 28.979 31.5071 29.2901 31.2812C29.6011 31.0552 29.755 30.6709 29.686 30.2926L28.8239 25.5674L32.2988 22.2513C32.577 21.9859 32.6783 21.5845 32.5595 21.2188C32.4407 20.8532 32.1228 20.588 31.7417 20.5368L26.9813 19.8965L24.9014 15.567Z" stroke="black" stroke-width="2" stroke-linejoin="round"/>
</svg>
