<svg width="280" height="187" viewBox="0 0 280 187" fill="none" xmlns="http://www.w3.org/2000/svg">
<g clip-path="url(#clip0_327_19465)">
<path d="M139.752 102.672L139.1 102.462C138.372 102.227 121.024 96.571 110.298 88.4522C103.424 83.2542 96.2741 74.6032 95.973 74.2443L95.4336 73.576V11.8187L96.5124 11.1132C97.1772 10.6801 112.945 0.543945 139.401 0.543945C165.392 0.543945 182.678 10.6306 183.393 11.0637L184.572 11.7568V73.6502L183.958 74.3309C183.531 74.8012 173.408 85.9274 161.917 93.7492C153.676 99.3556 140.969 102.4 140.429 102.524L139.752 102.672ZM100.276 71.868C102.044 73.9472 107.865 80.5809 113.259 84.665C122.203 91.4348 136.716 96.5957 139.953 97.6972C142.612 97.0041 152.672 94.2195 159.158 89.8012C168.616 83.3655 177.372 74.3062 179.718 71.7938V14.5167C175.503 12.3385 160.274 5.32116 139.401 5.32116C118.189 5.32116 104.152 12.2766 100.276 14.4548V71.868V71.868Z" fill="black"/>
<path d="M155.797 61.6318L145.974 40.8892C145.184 39.2432 144.67 37.7457 144.67 36.6566C144.67 36.2977 144.72 35.9882 144.883 35.7779V35.4189H133.43V35.7779C133.907 36.2977 134.108 37.0155 134.108 37.7952C134.108 39.4412 133.167 41.508 132.54 42.9561C132.54 42.9561 129.341 50.06 127.246 54.6887C125.753 53.7729 124.574 52.6342 123.859 51.211L123.533 51.0749L119.77 58.6243C120.435 59.008 121.852 60.06 124.361 61.0872L124.123 61.6318C120.886 68.909 118.992 71.4832 117.688 72.6218V72.9807H128.036V72.6218C127.723 72.2134 127.622 71.6441 127.622 71.0748C127.622 69.3669 128.613 67.201 129.354 65.654L130.708 62.8817C133.042 63.2902 135.814 63.5624 139.1 63.5624C142.588 63.5624 145.623 63.2035 148.232 62.5723L149.75 65.654C150.478 67.1515 151.481 69.3174 151.481 70.9634C151.481 71.5822 151.318 72.1515 151.005 72.6095V72.9684H162.094V72.6095C160.777 71.2852 159.259 68.8595 155.797 61.6318ZM139.176 43.6739L145.197 56.6441C143.666 56.9535 141.81 57.1392 139.627 57.1887H137.67C136.09 57.1516 134.584 57.0154 133.192 56.7803L139.176 43.6739ZM138.272 57.2134C138.385 57.2134 138.511 57.2258 138.624 57.2258C138.599 57.2258 138.573 57.2258 138.548 57.2258C138.448 57.2258 138.36 57.2134 138.272 57.2134Z" fill="black"/>
<path d="M129.399 46.1002C130.377 43.9343 132.108 40.0111 132.372 38.9962C129.775 38.6621 128.107 37.6472 128.107 35.6299C128.107 32.3007 131.757 29.7141 140.25 29.7141C146.948 29.7141 152.831 31.917 154.851 34.9739H155.227L158.765 28.1547C156.695 27.3997 150.047 23.3774 140.576 23.3774C130.014 23.3774 120.367 27.1398 120.367 36.1621C120.367 42.4492 124.306 45.1843 129.399 46.1002Z" fill="black"/>
<path d="M147.371 39.4043C147.471 39.6394 147.584 39.8993 147.722 40.1716L156.528 58.7483C158.962 56.632 160.191 53.9587 160.191 51.0008C160.179 42.6592 153.781 39.8251 147.371 39.4043Z" fill="black"/>
<path d="M20.0594 139.66L17.5738 144.407L17.1377 144.177C17.1377 143.776 17.0069 143.46 16.7452 143.231C16.0475 142.614 15.0155 142.098 13.6491 141.696C12.2828 141.295 10.9019 141.094 9.50645 141.094C8.31452 141.094 7.25341 141.252 6.33767 141.581C5.01492 142.055 4.34628 142.743 4.34628 143.632C4.34628 144.22 4.66606 144.65 5.30563 144.894C5.9452 145.138 7.18074 145.339 9.01224 145.482L11.9194 145.697C14.4631 145.898 16.3964 146.371 17.7337 147.146C18.475 147.576 19.0855 148.164 19.5652 148.895C20.1611 149.799 20.4664 150.831 20.4664 151.964C20.4664 154.044 19.5215 155.679 17.6319 156.883C15.8295 158.031 13.3729 158.619 10.2914 158.619C7.18074 158.619 4.17185 157.973 1.27925 156.668C1.07575 156.582 0.91585 156.539 0.785029 156.539C0.537922 156.539 0.30536 156.683 0.101861 156.969L-0.363281 156.783L1.75893 151.792L2.22407 151.979C2.22407 152.05 2.22407 152.093 2.22407 152.122C2.22407 152.438 2.34036 152.71 2.58746 152.925C3.19796 153.456 4.25906 153.929 5.77077 154.316C7.28249 154.703 8.77967 154.904 10.2478 154.904C11.556 154.904 12.7188 154.732 13.7509 154.388C15.03 153.972 15.6696 153.312 15.6696 152.38C15.6696 151.634 15.2335 151.118 14.3468 150.831C13.7509 150.631 12.6898 150.473 11.1635 150.344L8.27092 150.114C6.7156 150 5.52367 149.842 4.69514 149.641C3.8666 149.44 3.15436 149.168 2.54386 148.781C1.75893 148.293 1.14843 147.633 0.697818 146.802C0.261748 145.97 0.0291777 145.052 0.0291777 144.048C0.0291777 141.811 1.00307 140.119 2.93632 138.943C4.70967 137.881 6.89002 137.336 9.50645 137.336C10.9164 137.336 12.2392 137.494 13.4602 137.795C14.6812 138.097 16.1493 138.641 17.8354 139.43C18.3442 139.66 18.693 139.774 18.882 139.774C19.0855 139.774 19.3326 139.645 19.6378 139.373L20.0594 139.66Z" fill="black"/>
<path d="M35.18 141.524V156.339C35.18 156.711 35.2673 156.998 35.4417 157.199C35.6161 157.4 35.9214 157.572 36.3574 157.701V158.217H29.0605V157.701C29.4966 157.586 29.8018 157.429 29.9763 157.228C30.1507 157.027 30.2379 156.726 30.2379 156.353V141.524H24.1474C23.755 141.524 23.4497 141.61 23.2462 141.782C23.0427 141.954 22.8828 142.256 22.752 142.686H22.2578V136.663H22.752C22.8683 137.093 23.0137 137.394 23.2172 137.566C23.4207 137.738 23.7114 137.824 24.1184 137.824H41.2414C41.6339 137.824 41.9392 137.738 42.1427 137.566C42.3462 137.394 42.506 137.093 42.6369 136.663H43.1311V142.686H42.6369C42.5206 142.256 42.3462 141.954 42.1427 141.782C41.9392 141.61 41.6484 141.524 41.2414 141.524H35.18Z" fill="black"/>
<path d="M51.3812 149.842V156.339C51.3812 156.711 51.4684 156.998 51.6429 157.199C51.8173 157.4 52.1226 157.558 52.5586 157.701V158.217H45.2617V157.701C45.6978 157.586 46.003 157.428 46.1775 157.228C46.3519 157.027 46.4391 156.726 46.4391 156.353V139.689C46.4391 139.316 46.3519 139.029 46.1775 138.828C46.003 138.627 45.6978 138.47 45.2617 138.34V137.824H58.7944C60.5532 137.824 61.8905 137.91 62.8208 138.082C63.7365 138.254 64.5651 138.57 65.2919 139.043C66.7745 140.004 67.5158 141.567 67.5158 143.733C67.5158 145.382 67.0507 146.673 66.1349 147.605C65.2192 148.537 63.7366 149.197 61.7016 149.613L65.6117 154.991C66.3239 155.98 66.8908 156.654 67.3123 157.013C67.7339 157.371 68.2135 157.601 68.7659 157.687V158.203H60.0881V157.687C60.7277 157.515 61.0475 157.242 61.0475 156.869C61.0475 156.611 60.844 156.195 60.4515 155.65L56.3234 149.828H51.3812V149.842ZM51.3812 146.142H58.8235C59.9573 146.142 60.7858 146.027 61.3382 145.784C62.094 145.454 62.4865 144.808 62.4865 143.833C62.4865 142.973 62.2248 142.37 61.687 142.026C61.1492 141.682 60.2044 141.51 58.838 141.51H51.3958V146.142H51.3812Z" fill="black"/>
<path d="M87.7764 153.112H78.2846L77.2089 155.335C76.9473 155.866 76.8165 156.282 76.8165 156.597C76.8165 157.185 77.209 157.544 77.9939 157.701V158.218H70.4062V157.701C70.8714 157.63 71.2203 157.486 71.4528 157.285C71.6854 157.085 71.947 156.669 72.2523 156.066L79.7963 141.008C80.0725 140.435 80.2178 139.947 80.2178 139.517C80.2178 139.015 79.869 138.628 79.1858 138.355V137.839H87.2095V138.355C86.5263 138.628 86.192 139.029 86.192 139.588C86.192 139.99 86.3519 140.478 86.6571 141.066L94.4773 155.679C94.9134 156.468 95.2477 156.984 95.4948 157.228C95.7419 157.457 96.1199 157.63 96.6141 157.73V158.246H88.1834V157.73C88.9829 157.601 89.3753 157.228 89.3753 156.626C89.3753 156.253 89.2154 155.78 88.9102 155.235L87.7764 153.112ZM86.2792 150.258L82.8924 143.704L79.68 150.258H86.2792Z" fill="black"/>
<path d="M107.392 148.924L104.455 151.276V156.339C104.455 156.711 104.543 156.998 104.717 157.199C104.892 157.4 105.197 157.558 105.633 157.701V158.217H98.3359V157.701C98.772 157.586 99.0773 157.429 99.2517 157.228C99.4261 157.027 99.5133 156.726 99.5133 156.353V139.689C99.5133 139.316 99.4261 139.029 99.2517 138.828C99.0773 138.627 98.772 138.47 98.3359 138.34V137.824H105.633V138.34C105.197 138.455 104.877 138.627 104.717 138.828C104.543 139.029 104.455 139.316 104.455 139.689V146.372L112.232 140.262C112.813 139.818 113.104 139.416 113.104 139.086C113.104 138.728 112.741 138.484 112.043 138.355V137.839H121.331V138.355C120.866 138.427 120.474 138.57 120.154 138.771C119.834 138.972 119.064 139.603 117.828 140.664L110.88 146.156L118.526 154.833C119.514 155.951 120.212 156.683 120.634 157.027C121.055 157.371 121.549 157.586 122.102 157.715V158.232H113.061V157.715C113.744 157.558 114.078 157.314 114.078 156.998C114.078 156.884 114.034 156.769 113.962 156.64C113.889 156.525 113.598 156.195 113.104 155.636L107.392 148.924Z" fill="black"/>
<path d="M141.868 149.326H130.327V156.324C130.327 156.697 130.414 156.984 130.588 157.185C130.763 157.385 131.068 157.558 131.504 157.687V158.203H124.207V157.687C124.643 157.572 124.948 157.414 125.123 157.213C125.297 157.013 125.384 156.711 125.384 156.339V139.689C125.384 139.316 125.297 139.029 125.123 138.828C124.948 138.627 124.643 138.47 124.207 138.34V137.824H131.504V138.34C131.068 138.455 130.748 138.627 130.588 138.828C130.414 139.029 130.327 139.316 130.327 139.689V145.64H141.868V139.689C141.868 139.316 141.781 139.029 141.621 138.828C141.461 138.642 141.141 138.47 140.69 138.34V137.824H147.987V138.34C147.551 138.455 147.232 138.627 147.072 138.828C146.912 139.029 146.81 139.316 146.81 139.689V156.339C146.81 156.711 146.897 156.998 147.072 157.199C147.246 157.4 147.551 157.572 147.987 157.701V158.217H140.69V157.701C141.127 157.586 141.432 157.428 141.606 157.228C141.781 157.027 141.868 156.726 141.868 156.353V149.326V149.326Z" fill="black"/>
<path d="M163.224 137.394C166.509 137.394 169.241 138.226 171.436 139.875C174.053 141.868 175.361 144.636 175.361 148.193C175.361 151.534 174.053 154.187 171.436 156.181C169.27 157.83 166.552 158.662 163.267 158.662C159.982 158.662 157.264 157.83 155.098 156.181C152.467 154.187 151.145 151.477 151.145 148.035C151.145 144.55 152.453 141.84 155.098 139.889C157.264 138.255 159.982 137.423 163.224 137.394ZM163.253 141.252C161.116 141.252 159.386 141.926 158.049 143.274C156.799 144.536 156.188 146.113 156.188 148.021C156.188 149.914 156.813 151.491 158.049 152.753C159.386 154.116 161.131 154.79 163.267 154.79C165.404 154.79 167.134 154.116 168.471 152.753C169.721 151.506 170.332 149.957 170.332 148.121C170.332 146.113 169.707 144.507 168.471 143.288C167.119 141.94 165.375 141.266 163.253 141.252Z" fill="black"/>
<path d="M187.822 151.749L192.836 140.978C193.127 140.362 193.273 139.903 193.273 139.602C193.273 138.999 192.88 138.584 192.081 138.34V137.823H200.061V138.34C199.566 138.497 199.218 138.698 198.985 138.928C198.767 139.157 198.476 139.63 198.142 140.347L190.903 155.363C190.642 155.893 190.511 156.309 190.511 156.582C190.511 157.184 190.918 157.571 191.732 157.729V158.216H183.635V157.715C184.435 157.557 184.827 157.17 184.827 156.567C184.827 156.295 184.696 155.879 184.435 155.348L177.196 140.333C176.847 139.602 176.571 139.128 176.353 138.899C176.135 138.67 175.772 138.483 175.277 138.325V137.809H183.548V138.325C182.763 138.569 182.371 138.985 182.371 139.587C182.371 139.86 182.531 140.319 182.836 140.964L187.822 151.749Z" fill="black"/>
<path d="M220.825 139.66L218.339 144.407L217.903 144.177C217.903 143.776 217.773 143.46 217.511 143.231C216.813 142.614 215.781 142.098 214.415 141.696C213.048 141.295 211.668 141.094 210.272 141.094C209.08 141.094 208.019 141.252 207.103 141.581C205.781 142.055 205.112 142.743 205.112 143.632C205.112 144.22 205.432 144.65 206.071 144.894C206.711 145.138 207.946 145.339 209.778 145.482L212.685 145.697C215.229 145.898 217.162 146.371 218.499 147.146C219.241 147.576 219.851 148.164 220.331 148.895C220.927 149.799 221.232 150.831 221.232 151.964C221.232 154.044 220.287 155.679 218.398 156.883C216.595 158.031 214.139 158.619 211.057 158.619C207.946 158.619 204.938 157.973 202.045 156.668C201.841 156.582 201.682 156.539 201.551 156.539C201.304 156.539 201.071 156.683 200.867 156.969L200.402 156.783L202.525 151.792L202.99 151.979C202.99 152.05 202.99 152.093 202.99 152.122C202.99 152.438 203.106 152.71 203.353 152.925C203.964 153.456 205.025 153.929 206.536 154.316C208.048 154.703 209.545 154.904 211.013 154.904C212.322 154.904 213.485 154.732 214.517 154.388C215.796 153.972 216.435 153.312 216.435 152.38C216.435 151.634 215.999 151.118 215.113 150.831C214.517 150.631 213.455 150.473 211.929 150.344L209.037 150.114C207.481 150 206.289 149.842 205.461 149.641C204.632 149.44 203.92 149.168 203.309 148.781C202.525 148.293 201.914 147.633 201.463 146.802C201.027 145.97 200.795 145.052 200.795 144.048C200.795 141.811 201.769 140.119 203.702 138.943C205.475 137.881 207.656 137.336 210.272 137.336C211.682 137.336 213.005 137.494 214.226 137.795C215.447 138.097 216.915 138.641 218.601 139.43C219.11 139.66 219.459 139.774 219.648 139.774C219.837 139.774 220.098 139.645 220.404 139.373L220.825 139.66Z" fill="black"/>
<path d="M233.267 148.924L230.33 151.276V156.339C230.33 156.711 230.418 156.998 230.592 157.199C230.767 157.4 231.072 157.558 231.508 157.701V158.217H224.211V157.701C224.647 157.586 224.952 157.429 225.127 157.228C225.301 157.027 225.388 156.726 225.388 156.353V139.689C225.388 139.316 225.301 139.029 225.127 138.828C224.952 138.627 224.647 138.47 224.211 138.34V137.824H231.508V138.34C231.072 138.455 230.752 138.627 230.592 138.828C230.432 139.029 230.33 139.316 230.33 139.689V146.372L238.107 140.262C238.688 139.818 238.979 139.416 238.979 139.086C238.979 138.728 238.616 138.484 237.918 138.355V137.839H247.206V138.355C246.741 138.427 246.349 138.57 246.029 138.771C245.709 138.972 244.939 139.603 243.703 140.664L236.755 146.156L244.401 154.833C245.389 155.951 246.087 156.683 246.509 157.027C246.93 157.371 247.424 157.586 247.977 157.715V158.232H238.936V157.715C239.619 157.558 239.953 157.314 239.953 156.998C239.953 156.884 239.909 156.769 239.837 156.64C239.764 156.525 239.473 156.195 238.979 155.636L233.267 148.924Z" fill="black"/>
<path d="M262.046 149.268V156.353C262.046 156.725 262.133 157.012 262.308 157.213C262.482 157.414 262.788 157.586 263.224 157.715V158.203H255.927V157.715C256.363 157.6 256.683 157.428 256.842 157.227C257.017 157.027 257.104 156.725 257.104 156.338V149.254L250.985 140.95C250.301 140.018 249.749 139.373 249.327 139.029C248.92 138.684 248.426 138.455 247.859 138.326V137.81H257.162V138.326C256.363 138.527 255.956 138.899 255.956 139.43C255.956 139.703 256.247 140.233 256.828 141.036L259.822 145.138L262.744 141.036C263.325 140.219 263.616 139.688 263.616 139.416C263.616 138.914 263.224 138.541 262.439 138.326L262.424 137.81H271.276V138.326C270.71 138.441 270.215 138.684 269.808 139.029C269.401 139.373 268.849 140.018 268.151 140.95L262.046 149.268Z" fill="black"/>
<path d="M278.815 139.689V156.339C278.815 156.711 278.902 156.998 279.076 157.199C279.251 157.4 279.556 157.572 279.992 157.701V158.217H272.695V157.701C273.131 157.586 273.437 157.428 273.611 157.228C273.786 157.027 273.873 156.726 273.873 156.353V139.689C273.873 139.316 273.786 139.029 273.611 138.828C273.437 138.627 273.131 138.47 272.695 138.34V137.824H279.992V138.34C279.556 138.455 279.236 138.627 279.076 138.828C278.917 139.029 278.815 139.301 278.815 139.689Z" fill="black"/>
<path d="M113.051 182.592C111.452 184.456 108.836 185.188 106.379 185.188C100.987 185.188 96.4805 181.646 96.4805 177.243C96.4805 172.768 101.074 169.24 107.222 169.24C109.926 169.24 112.935 169.929 114.824 170.976V173.944C112.47 172.439 109.388 171.937 107.397 171.937C103.152 171.937 100.231 174.246 100.231 177.272C100.231 180.154 102.905 182.52 106.641 182.52C109.374 182.52 112.194 181.258 112.484 177.472H112.542C112.542 177.444 112.571 177.429 116.176 177.472V184.987H113.066V182.592H113.051Z" fill="black"/>
<path d="M119.62 172.453C120.899 172.28 122.062 172.209 123.225 172.209C128.225 172.209 130.246 174.331 130.246 176.956C130.246 178.662 129.315 180.254 126.931 181.014L131.786 184.972H127.164L123.385 181.674H123.152V184.972H119.605V172.453H119.62ZM123.167 174.733V179.164H123.516C125.812 179.164 126.655 178.218 126.655 176.927C126.655 175.708 125.841 174.733 123.37 174.733H123.167Z" fill="black"/>
<path d="M141.817 172.209C146.585 172.209 150.437 175.12 150.437 178.705C150.437 182.291 146.57 185.202 141.817 185.202C137.122 185.202 133.227 182.305 133.227 178.705C133.227 175.106 137.122 172.209 141.817 172.209ZM141.817 182.663C144.579 182.663 146.832 180.885 146.832 178.705C146.832 176.511 144.564 174.733 141.817 174.733C139.084 174.733 136.817 176.511 136.817 178.705C136.831 180.885 139.099 182.663 141.817 182.663Z" fill="black"/>
<path d="M168.146 172.425V179.695C168.146 183.023 165.413 185.188 161.038 185.188C156.677 185.188 153.93 183.023 153.93 179.695V172.425H157.476V179.695C157.476 181.517 158.756 182.664 161.052 182.664C163.32 182.664 164.628 181.488 164.628 179.667V172.425H168.146Z" fill="black"/>
<path d="M172.766 172.424C173.928 172.295 175.12 172.209 176.37 172.209C181.385 172.209 183.391 174.331 183.391 176.956C183.391 179.566 181.414 181.674 176.341 181.674H176.312V184.972H172.766V172.424ZM176.312 174.733V179.15H176.69C178.958 179.15 179.801 178.218 179.801 176.941C179.801 175.722 178.987 174.747 176.516 174.747H176.312V174.733Z" fill="black"/>
</g>
<defs>
<clipPath id="clip0_327_19465">
<rect width="280" height="187" fill="white"/>
</clipPath>
</defs>
</svg>
