<svg width="48" height="48" viewBox="0 0 48 48" fill="none" xmlns="http://www.w3.org/2000/svg">
<circle cx="24" cy="24" r="24" fill="#FEC62E"/>
<path d="M31.6827 28.9668L27.9376 27.0311C27.4116 26.7576 26.7593 26.9049 26.4016 27.3677L25.034 29.1351C23.6875 28.4197 22.6775 27.7254 21.4993 26.5472C20.2369 25.2848 19.5636 24.2538 18.8903 22.9493L20.6367 21.5817C21.0995 21.224 21.2468 20.5718 20.9733 20.0458L19.0376 16.3217C18.701 15.6694 17.8594 15.459 17.2492 15.8588L14.8717 17.4579C14.3246 17.8366 14.009 18.4678 14.0511 19.12C14.0932 19.7933 14.1773 20.6559 14.3457 21.2451C15.04 23.9172 16.7022 26.6734 19.0586 29.0089C21.3941 31.3443 24.1504 33.0065 26.8224 33.7218C27.4116 33.8691 28.2742 33.9533 28.9685 34.0164C29.6418 34.0585 30.2941 33.7429 30.6517 33.1748L32.2087 30.7552C32.5453 30.124 32.3139 29.3034 31.6827 28.9668Z" fill="white"/>
<path d="M24.1083 21.8552C24.5712 21.9814 25.0341 22.2339 25.3918 22.6127C25.7705 22.9914 26.023 23.4332 26.1492 23.8961C26.2544 24.2748 26.6121 24.5273 27.0119 24.5063H27.096C27.6431 24.4852 28.0428 23.9592 27.8956 23.4332C27.6852 22.6758 27.2854 21.9394 26.6752 21.3503C26.0651 20.7401 25.3497 20.3403 24.5923 20.1299C24.0663 19.9826 23.5403 20.3824 23.5192 20.9294V21.0136C23.4771 21.3923 23.7296 21.75 24.1083 21.8552Z" fill="white"/>
<path d="M24.3607 18.8255C25.5179 19.0359 26.633 19.583 27.5167 20.4667C28.4214 21.3714 28.9684 22.4655 29.1578 23.6227C29.242 24.0435 29.6207 24.3591 30.0625 24.338H30.1256C30.6517 24.317 31.0304 23.8331 30.9252 23.3281C30.6517 21.8132 29.9363 20.3615 28.7791 19.1832C27.6008 18.005 26.1701 17.2896 24.6342 17.0371C24.1292 16.953 23.6453 17.3317 23.6243 17.8367V17.8998C23.6243 18.3627 23.9399 18.7414 24.3607 18.8255Z" fill="white"/>
<path d="M33.9971 23.2017C33.6815 20.9504 32.6716 18.7833 30.9463 17.058C29.221 15.3327 27.0539 14.3228 24.8026 14.0072C24.2976 13.9441 23.8347 14.3018 23.8137 14.8278V14.9119C23.7926 15.3748 24.1293 15.7535 24.5711 15.8167C26.4437 16.0691 28.2321 16.9318 29.6628 18.3625C31.0936 19.7932 31.9352 21.6027 32.2087 23.4542C32.2718 23.8961 32.6505 24.2327 33.1134 24.2117H33.1976C33.6815 24.1696 34.0602 23.7067 33.9971 23.2017Z" fill="white"/>
</svg>
