<svg width="48" height="48" viewBox="0 0 48 48" fill="none" xmlns="http://www.w3.org/2000/svg">
<circle cx="24" cy="24" r="24" fill="#67BFC4"/>
<path d="M28.4884 21.4921L28.0472 21.2569V27.4519C28.0472 30.8969 25.2439 33.7001 21.7989 33.7001C18.3539 33.7001 15.5508 30.8969 15.5508 27.4519C15.5508 24.0069 18.3539 21.2036 21.7989 21.2036C21.9568 21.2036 22.0849 21.3317 22.0849 21.4895V24.6276C22.0849 24.7856 21.9569 24.9136 21.7989 24.9136C20.3991 24.9136 19.2608 26.0519 19.2608 27.4519C19.2608 28.8517 20.3991 29.9901 21.7989 29.9901C23.1987 29.9901 24.3372 28.8517 24.3372 27.4519V14.586C24.3372 14.4281 24.4653 14.3 24.6232 14.3H27.7613C27.9193 14.3 28.0472 14.428 28.0472 14.586C28.0472 16.851 29.8895 18.6932 32.1545 18.6932C32.3124 18.6932 32.4404 18.8213 32.4404 18.9791V22.1173C32.4404 22.2752 32.3124 22.4032 32.1545 22.4032C30.8599 22.4032 29.6107 22.0906 28.4884 21.4921Z" fill="white"/>
</svg>
