<svg width="24" height="24" viewBox="0 0 24 24" fill="none" xmlns="http://www.w3.org/2000/svg">
<path d="M24 11.5575L23.9481 11.0889H16.4675C17.7143 9.89154 18.4416 8.2256 18.4416 6.45553C18.4416 3.07158 15.7922 0.208243 12.4156 0C12.1558 0 11.8442 0 11.5844 0H11.1169V7.49675C9.92208 6.24729 8.25974 5.51844 6.44156 5.51844C3.06493 5.51844 0.207792 8.17354 0 11.5575C0 11.7137 0 11.8178 0 11.974C0 12.1302 0 12.2343 0 12.3905L0.0519482 12.859H7.53247C6.28572 14.0564 5.55844 15.7223 5.55844 17.5445C5.55844 20.9284 8.20779 23.7918 11.5844 24C11.7403 24 11.8442 24 12 24C12.1558 24 12.2597 24 12.4156 24L12.8831 23.9479V16.4512C14.0779 17.7007 15.7403 18.4295 17.5065 18.4295C20.8831 18.4295 23.7403 15.7744 23.9481 12.3905C23.9481 12.2343 23.9481 12.1302 23.9481 11.974C23.9481 11.8178 24 11.7137 24 11.5575ZM1.87013 11.0889C2.28571 8.95445 4.20779 7.34056 6.44156 7.34056C8.67532 7.34056 10.5974 8.95445 11.013 11.0889H1.87013ZM11.1169 22.1258C8.98701 21.7093 7.32468 19.7831 7.32468 17.5445C7.32468 15.3059 8.93507 13.3796 11.0649 12.9631V22.1258H11.1169ZM12.8831 1.82213C15.013 2.23861 16.6234 4.16486 16.6234 6.40347C16.6234 8.64208 15.013 10.5683 12.8831 10.9848V1.82213ZM17.5584 16.6074C15.3247 16.6074 13.4026 14.9935 12.987 12.859H22.1299C21.7143 14.9935 19.7922 16.6074 17.5584 16.6074Z" fill="black"/>
</svg>
