<svg width="48" height="48" viewBox="0 0 48 48" fill="none" xmlns="http://www.w3.org/2000/svg">
<circle cx="24" cy="24" r="24" fill="#7C42AD"/>
<g clip-path="url(#clip0_1557_20999)">
<path d="M32.8124 15.3392C32.2171 14.7908 29.8077 13.0424 24.4358 13.0189C24.4358 13.0189 18.103 12.6392 15.0187 15.4705C13.303 17.1861 12.6983 19.7033 12.6327 22.8205C12.5671 25.9377 12.4874 31.7783 18.1171 33.3627H18.1218L18.1171 35.7814C18.1171 35.7814 18.0796 36.7611 18.7265 36.958C19.5046 37.2017 19.964 36.4564 20.7093 35.6549C21.1171 35.2142 21.6796 34.5674 22.1062 34.0752C25.9593 34.3986 28.9171 33.658 29.2546 33.5502C30.0327 33.2971 34.4343 32.7346 35.1468 26.8939C35.8874 20.8658 34.7905 17.0596 32.8124 15.3392ZM33.464 26.4533C32.8593 31.3283 29.2921 31.6377 28.6358 31.8486C28.3546 31.9377 25.753 32.5846 22.4858 32.3736C22.4858 32.3736 20.0483 35.3127 19.289 36.0767C19.0405 36.3252 18.7687 36.3017 18.7733 35.8096C18.7733 35.4861 18.7921 31.7924 18.7921 31.7924C18.7874 31.7924 18.7874 31.7924 18.7921 31.7924C14.0202 30.4705 14.3015 25.4971 14.353 22.8955C14.4046 20.2939 14.8968 18.1611 16.3499 16.7267C18.9608 14.3596 24.3374 14.7111 24.3374 14.7111C28.8796 14.7299 31.0546 16.0986 31.5608 16.558C33.2343 17.9924 34.0874 21.4236 33.464 26.4533ZM26.9483 22.6658C26.9671 23.0689 26.3624 23.0971 26.3437 22.6939C26.2921 21.6627 25.8093 21.1611 24.8155 21.1049C24.4124 21.0814 24.4499 20.4767 24.8483 20.5002C26.1562 20.5705 26.8827 21.3205 26.9483 22.6658ZM27.8999 23.1955C27.9468 21.208 26.7046 19.6517 24.3468 19.4783C23.9483 19.4502 23.9905 18.8455 24.389 18.8736C27.1077 19.0705 28.5562 20.9408 28.5046 23.2096C28.4999 23.6127 27.8905 23.5939 27.8999 23.1955ZM30.103 23.8236C30.1077 24.2267 29.4983 24.2314 29.4983 23.8283C29.4702 20.008 26.9249 17.9267 23.8358 17.9033C23.4374 17.8986 23.4374 17.2986 23.8358 17.2986C27.2905 17.3221 30.0702 19.708 30.103 23.8236ZM29.5733 28.4221V28.4314C29.0671 29.3221 28.1202 30.3064 27.1452 29.9924L27.1358 29.9783C26.1468 29.7017 23.8171 28.5017 22.3452 27.3299C21.5858 26.7299 20.8921 26.0221 20.3577 25.3424C19.8749 24.7377 19.3874 24.0205 18.914 23.158C17.9155 21.3533 17.6952 20.5471 17.6952 20.5471C17.3812 19.5721 18.3608 18.6252 19.2562 18.1189H19.2655C19.6968 17.8939 20.1093 17.9689 20.3858 18.3017C20.3858 18.3017 20.9671 18.9955 21.2155 19.3377C21.4499 19.6564 21.764 20.1674 21.928 20.4533C22.214 20.9642 22.0358 21.4846 21.7546 21.7002L21.1921 22.1502C20.9062 22.3799 20.9437 22.8064 20.9437 22.8064C20.9437 22.8064 21.778 25.9611 24.8952 26.758C24.8952 26.758 25.3218 26.7955 25.5515 26.5096L26.0015 25.9471C26.2171 25.6658 26.7374 25.4877 27.2483 25.7736C27.9374 26.1627 28.814 26.7674 29.3952 27.3158C29.7233 27.583 29.7983 27.9908 29.5733 28.4221Z" fill="white"/>
</g>
<defs>
<clipPath id="clip0_1557_20999">
<rect width="24" height="24" fill="white" transform="translate(12 13)"/>
</clipPath>
</defs>
</svg>
