<svg width="24" height="24" viewBox="0 0 24 24" fill="none" xmlns="http://www.w3.org/2000/svg">
<path d="M12.8163 0.301995C12.3412 -0.103327 11.6575 -0.097994 11.1837 0.301995C10.8489 0.58732 3 7.33913 3 14.3696C3 19.6788 7.03777 24 12.0013 24C16.9648 24 21 19.6788 21 14.3683C21 7.33113 13.1498 0.584654 12.8163 0.301995ZM12 21.3321C8.45665 21.3321 5.57382 18.2082 5.57382 14.3683C5.57382 9.7844 10.106 4.94053 12 3.11658C13.8953 4.9392 18.4249 9.77906 18.4249 14.3683C18.4249 18.2082 15.5421 21.3321 12 21.3321Z" fill="black"/>
<path d="M16.4189 11.7939C16.1719 11.1359 15.4911 10.823 14.9008 11.1023C14.3105 11.3789 14.0322 12.1364 14.2803 12.7944C14.5459 13.5028 14.6816 14.1259 14.6816 14.6508C14.6816 15.981 13.9231 17.1599 12.877 17.4534C12.2554 17.6279 11.8796 18.3298 12.0351 19.0227C12.1673 19.6083 12.6393 20 13.1589 20C13.2528 20 13.3479 19.9871 13.443 19.9612C15.5375 19.3743 17 17.1896 17 14.6521C17.0023 13.7808 16.8063 12.819 16.4189 11.7939Z" fill="black"/>
</svg>
