<svg width="23" height="23" viewBox="0 0 23 23" fill="none" xmlns="http://www.w3.org/2000/svg">
<path fill-rule="evenodd" clip-rule="evenodd" d="M19.6079 3.39014C21.4752 5.25747 22.5 7.73966 22.5 10.3813C22.5032 11.6852 22.2471 12.9768 21.7467 14.1809C21.2463 15.385 20.5116 16.4776 19.5851 17.3951C19.0613 17.8961 18.492 18.3516 17.9 18.7387C18.4465 20.1278 17.7861 21.8358 16.2831 22.3368C14.5524 22.9288 12.9356 21.8585 12.6395 20.31H10.3395C10.089 21.5625 8.99595 22.4962 7.65238 22.4962C7.25011 22.4964 6.85267 22.4084 6.48808 22.2384C6.1235 22.0684 5.80064 21.8205 5.54225 21.5122C5.28387 21.2039 5.09625 20.8426 4.99262 20.4539C4.88899 20.0652 4.87187 19.6585 4.94247 19.2625C3.98603 18.7843 3.09791 18.1694 2.34642 17.3951C1.25335 16.3021 0.456313 14.9357 0.501857 14.1842C0.501857 13.911 0.729581 13.7288 1.00285 13.706C2.14147 13.6377 2.71078 12.8634 2.71078 12.0436V10.4496C2.71078 8.21788 3.43949 6.05451 4.82861 4.30103C6.76426 1.86439 9.58803 0.498047 12.6168 0.498047C15.2361 0.508511 17.7466 1.54706 19.6079 3.39014ZM10.3623 19.1942H12.6168C14.9471 19.1889 17.1812 18.2641 18.8336 16.6209C20.496 14.9585 21.4069 12.7496 21.4069 10.404C21.4069 8.05847 20.496 5.84955 18.8336 4.18717C17.1712 2.52479 14.9623 1.61389 12.6168 1.61389C9.88407 1.61389 7.35634 2.8436 5.64841 5.02975C4.44148 6.5555 3.80385 8.46838 3.80385 10.404V12.0436C3.80385 12.7268 3.55336 13.41 3.07514 13.911C2.71078 14.2981 2.25533 14.5714 1.75434 14.6852C1.93652 15.1407 2.36919 15.8466 3.14345 16.6209C3.78108 17.2813 4.53257 17.8506 5.35237 18.2605V18.2377C5.85336 17.4862 6.69594 16.9852 7.67515 16.9852C8.99595 16.9852 10.1118 17.9417 10.3623 19.1942ZM18.1038 8.19508C18.1038 8.79877 17.6144 9.28815 17.0107 9.28815C16.407 9.28815 15.9176 8.79877 15.9176 8.19508C15.9176 7.59139 16.407 7.10201 17.0107 7.10201C17.6144 7.10201 18.1038 7.59139 18.1038 8.19508ZM10.4096 9.28815C11.0132 9.28815 11.5026 8.79877 11.5026 8.19508C11.5026 7.59139 11.0132 7.10201 10.4096 7.10201C9.80587 7.10201 9.31649 7.59139 9.31649 8.19508C9.31649 8.79877 9.80587 9.28815 10.4096 9.28815ZM10.2499 11.4744C10.4549 11.4744 10.6598 11.611 10.7509 11.7932C11.2747 12.909 12.4133 13.6833 13.7341 13.6833C15.0549 13.6833 16.1935 12.909 16.7173 11.7932C16.8084 11.5882 16.9905 11.4744 17.1955 11.4744H17.2183C17.6282 11.4744 17.8787 11.8843 17.7193 12.2486C17.0133 13.7516 15.5103 14.7764 13.7341 14.7764C11.9578 14.7764 10.4549 13.7288 9.74893 12.2486C9.71061 12.1651 9.69401 12.0732 9.70064 11.9814C9.70728 11.8897 9.73695 11.8012 9.7869 11.724C9.83685 11.6468 9.90547 11.5835 9.98641 11.5398C10.0673 11.4962 10.158 11.4737 10.2499 11.4744Z" fill="black"/>
</svg>
