<svg width="48" height="48" viewBox="0 0 48 48" fill="none" xmlns="http://www.w3.org/2000/svg">
<circle cx="24" cy="24" r="24" fill="#34CE66"/>
<path d="M31.8547 16.0516C29.8906 14.0828 27.275 13 24.4953 13C18.7578 13 14.0891 17.6687 14.0891 23.4062C14.0891 25.2391 14.5672 27.0297 15.4766 28.6094L14 34L19.5172 32.5516C21.0359 33.3813 22.7469 33.8172 24.4906 33.8172H24.4953C30.2281 33.8172 35 29.1484 35 23.4109C35 20.6313 33.8188 18.0203 31.8547 16.0516ZM24.4953 32.0641C22.9391 32.0641 21.4156 31.6469 20.0891 30.8594L19.775 30.6719L16.5031 31.5297L17.375 28.3375L17.1687 28.0094C16.3016 26.6313 15.8469 25.0422 15.8469 23.4062C15.8469 18.6391 19.7281 14.7578 24.5 14.7578C26.8109 14.7578 28.9812 15.6578 30.6125 17.2937C32.2437 18.9297 33.2469 21.1 33.2422 23.4109C33.2422 28.1828 29.2625 32.0641 24.4953 32.0641ZM29.2391 25.5859C28.9813 25.4547 27.7016 24.8266 27.4625 24.7422C27.2234 24.6531 27.05 24.6109 26.8766 24.8734C26.7031 25.1359 26.2063 25.7172 26.0516 25.8953C25.9016 26.0688 25.7469 26.0922 25.4891 25.9609C23.9609 25.1969 22.9578 24.5969 21.95 22.8672C21.6828 22.4078 22.2172 22.4406 22.7141 21.4469C22.7984 21.2734 22.7562 21.1234 22.6906 20.9922C22.625 20.8609 22.1047 19.5813 21.8891 19.0609C21.6781 18.5547 21.4625 18.625 21.3031 18.6156C21.1531 18.6063 20.9797 18.6063 20.8062 18.6063C20.6328 18.6063 20.3516 18.6719 20.1125 18.9297C19.8734 19.1922 19.2031 19.8203 19.2031 21.1C19.2031 22.3797 20.1359 23.6172 20.2625 23.7906C20.3938 23.9641 22.0953 26.5891 24.7062 27.7188C26.3562 28.4312 27.0031 28.4922 27.8281 28.3703C28.3297 28.2953 29.3656 27.7422 29.5812 27.1328C29.7969 26.5234 29.7969 26.0031 29.7313 25.8953C29.6703 25.7781 29.4969 25.7125 29.2391 25.5859Z" fill="white"/>
</svg>
