<svg width="48" height="48" viewBox="0 0 48 48" fill="none" xmlns="http://www.w3.org/2000/svg">
<circle cx="24" cy="24" r="24" fill="#FC0D1B"/>
<path fill-rule="evenodd" clip-rule="evenodd" d="M21.4312 27.2666L21.4302 21.2743L27.1721 24.2809L21.4312 27.2666ZM34.7803 20.2359C34.7803 20.2359 34.5654 18.7663 33.9057 18.1191C33.0691 17.2697 32.1314 17.2655 31.7014 17.2157C28.6228 17 24.0048 17 24.0048 17H23.9952C23.9952 17 19.3773 17 16.2986 17.2157C15.8685 17.2655 14.9312 17.2697 14.0943 18.1191C13.4347 18.7663 13.22 20.2359 13.22 20.2359C13.22 20.2359 13 21.9618 13 23.6876V25.3056C13 27.0315 13.22 28.7573 13.22 28.7573C13.22 28.7573 13.4347 30.227 14.0943 30.8742C14.9312 31.7236 16.0305 31.6967 16.5201 31.7858C18.2801 31.9494 24 32 24 32C24 32 28.6228 31.9933 31.7014 31.7775C32.1314 31.7278 33.0691 31.7236 33.9057 30.8742C34.5654 30.227 34.7803 28.7573 34.7803 28.7573C34.7803 28.7573 35 27.0315 35 25.3056V23.6876C35 21.9618 34.7803 20.2359 34.7803 20.2359Z" fill="white"/>
</svg>
