<svg width="81" height="64" viewBox="0 0 81 64" fill="none" xmlns="http://www.w3.org/2000/svg">
<path d="M31.3578 0H49.3407C49.3749 0.0483662 49.428 0.0404827 49.4777 0.044744C52.2305 0.325353 54.565 1.45631 56.4455 3.47363C58.1268 5.27937 59.083 7.42218 59.1965 9.88907C59.2878 11.8367 59.2919 13.7865 59.3294 15.7358C59.3589 17.1742 59.3833 18.6129 59.4167 20.0513C59.4289 20.4753 59.5858 20.8447 59.8982 21.145C60.2503 21.4816 60.6806 21.6584 61.1382 21.7818C62.1141 22.0484 63.1123 22.0737 64.1117 22.0818C65.1831 22.091 66.2531 22.0639 67.3202 22.0737C69.7403 22.1001 72.1599 22.1589 74.5806 22.2148C75.4157 22.2344 76.2382 22.3196 77.0122 22.6467C78.5681 23.3038 79.7208 24.3448 80.2225 26.0022C80.2762 26.1791 80.3162 26.3598 80.3637 26.5383V27.6135C80.286 27.7044 80.3121 27.8244 80.282 27.9301C79.7463 29.8236 79.2211 31.7158 78.6878 33.6074C76.3665 41.8666 74.0473 50.1264 71.7302 58.3867C71.4676 59.3235 71.1951 60.2531 70.6595 61.0811C69.553 62.7914 68.0322 63.7679 65.9345 63.7225C64.9517 63.7006 63.9643 63.7006 62.9815 63.6965C61.2619 63.6846 59.5423 63.6688 57.8227 63.6707C53.7391 63.6729 49.6572 63.6925 45.573 63.6925C43.0476 63.6925 40.5229 63.7364 37.998 63.7006C36.371 63.6748 34.745 63.685 33.1191 63.6771C32.2284 63.6729 31.3376 63.6665 30.4473 63.669C26.7316 63.6748 23.017 63.6535 19.303 63.6925C17.6938 63.7121 16.086 63.7121 14.4779 63.7208C13.5097 63.7249 12.6213 63.4506 11.8142 62.9239C10.6222 62.1452 9.85987 61.0355 9.37342 59.726C9.05924 58.8819 8.85871 57.998 8.61516 57.13C6.20511 48.5695 3.79909 40.008 1.39712 31.4452C1.03779 30.1696 0.685528 28.8919 0.328125 27.6128V26.5377C0.343106 26.517 0.362795 26.4993 0.366861 26.4767C0.687454 24.7179 1.77999 23.5778 3.32603 22.7981C4.34923 22.2827 5.45589 22.2165 6.57326 22.1999C7.72679 22.182 8.88183 22.1572 10.0351 22.1295C11.7965 22.0842 13.5589 22.0541 15.3219 22.0699C16.3747 22.0795 17.4268 22.1048 18.4724 21.9861C19.1284 21.9107 19.7768 21.7903 20.3632 21.4633C20.925 21.1484 21.2651 20.6835 21.2771 20.0249C21.334 17.2567 21.3847 14.4896 21.4427 11.7238C21.4646 10.7386 21.4384 9.74866 21.6082 8.77068C22.3416 4.56027 25.6571 1.14374 29.8749 0.255041C30.3682 0.15426 30.8634 0.0845875 31.358 0L31.3578 0ZM40.3517 60.3561C41.2839 60.3561 42.2157 60.3578 43.151 60.3561C45.4283 60.3539 47.7026 60.348 49.9823 60.348C54.3724 60.3458 58.7667 60.3416 63.1544 60.3872C63.8769 60.3953 64.5618 60.2167 65.1946 59.8626C66.5915 59.0823 67.3874 57.8412 67.8216 56.3534C68.3509 54.5364 68.8502 52.7157 69.3598 50.8965C71.3948 43.6629 73.4274 36.4286 75.4574 29.1936C75.716 28.2688 75.6586 27.3608 75.2013 26.5153C74.3052 24.8598 72.8563 24.0018 71.006 23.9027C68.5979 23.7736 66.1836 23.7638 63.7693 23.7425C62.7698 23.7346 61.7691 23.7467 60.7686 23.7403C59.9964 23.7346 59.2281 23.6728 58.4902 23.4292C57.5353 23.1131 57.1171 22.5736 57.1864 21.6665C57.1905 21.632 57.1882 21.5975 57.1864 21.5647C57.1287 18.8645 57.0672 16.1656 57.0169 13.4675C56.9955 12.4789 56.844 11.5171 56.5097 10.5877C55.1666 6.855 51.5741 4.34145 47.5854 4.34145H33.2013C32.8589 4.34145 32.5186 4.35125 32.1762 4.38981C29.4248 4.70366 27.1886 5.94222 25.5101 8.13041C24.2641 9.75441 23.6903 11.607 23.6674 13.6518C23.6396 16.3584 23.5469 19.0665 23.5099 21.7737C23.5 22.5408 23.16 23.0295 22.4809 23.3221C21.9904 23.5351 21.4682 23.624 20.9383 23.6785C19.8965 23.7887 18.8538 23.7254 17.8094 23.7309C15.1918 23.7478 12.5744 23.8042 9.95724 23.8756C8.66375 23.9125 7.5162 24.3058 6.55357 25.1574C5.29389 26.2705 4.79352 27.6394 5.26029 29.295C5.6774 30.7779 6.09901 32.2587 6.51483 33.7417C8.56487 41.0371 10.6158 48.324 12.66 55.6196C12.9226 56.5588 13.2025 57.4843 13.7787 58.291C14.7509 59.65 16.0361 60.4112 17.7488 60.3872C19.5628 60.3659 21.3762 60.348 23.1899 60.3456C28.9152 60.3456 34.6332 60.3358 40.3517 60.3561Z" fill="#7A7878"/>
<path d="M38.8159 29.4012C37.8905 28.5304 37.186 27.5175 36.8008 26.3C37.3123 26.2766 37.8259 26.2459 38.3267 26.1295C40.4668 25.6412 42.0373 24.4568 42.8893 22.4009C43.084 21.924 43.1437 21.415 43.2274 20.9124C43.5259 20.8796 43.8245 20.9262 44.1194 20.9706C44.189 20.9808 44.2705 21.0379 44.3341 20.9584C44.3976 20.8715 44.3259 20.7937 44.2906 20.7228C43.7569 19.6922 43.5317 18.5927 43.5857 17.4405C43.6811 15.4681 45.4129 13.3928 47.2851 13.0249C48.8555 12.7168 49.6915 13.7107 49.9164 14.9303C49.9579 15.1508 49.8013 15.1174 49.6874 15.1255C48.8712 15.1802 48.1106 15.4197 47.3985 15.8171C46.4216 16.3689 45.7784 17.2091 45.3526 18.2277C45.3029 18.3513 45.2533 18.4811 45.2913 18.64C45.4146 18.5995 45.4283 18.4794 45.4782 18.3941C46.5129 16.5334 48.1354 15.7223 50.2271 15.763C50.802 15.7751 51.3554 15.9294 51.8708 16.2053C52.8715 16.7431 53.3053 17.7185 52.9473 18.7949C52.4557 20.2679 51.3676 21.0792 49.8706 21.3737C48.8358 21.5774 47.793 21.4866 46.7558 21.3545C46.6621 21.3426 46.569 21.3385 46.4755 21.3304C45.8548 21.2147 45.8165 21.2405 45.592 21.8245C44.88 23.6697 43.9621 25.3832 42.5289 26.7917C41.4363 27.8686 40.1794 28.7106 38.8159 29.401V29.4012Z" fill="#7A7878"/>
<path d="M43.227 20.9125C43.1433 21.4157 43.0836 21.9248 42.8889 22.401C42.0369 24.4568 40.4662 25.6413 38.3261 26.1296C37.8253 26.246 37.3117 26.2766 36.8004 26.3001C35.2942 26.2656 33.9187 25.8356 32.7266 24.9043C29.5697 22.4331 29.8837 17.937 33.3578 15.8592C33.7537 15.6227 34.1755 15.4354 34.6035 15.269C34.6232 15.2609 34.6463 15.2528 34.6684 15.2432C34.7031 15.2338 34.7459 15.2385 34.754 15.1878H34.7459C35.1206 15.1175 35.4938 15.0365 35.8716 14.9764C36.7957 14.8347 37.7091 14.8872 38.6161 15.1154C38.6959 15.1347 38.7751 15.1814 38.8631 15.1388L38.8566 15.1371C38.877 15.2166 38.9422 15.1878 38.9908 15.1918L38.985 15.1878C39.0139 15.2489 39.0689 15.2385 39.1192 15.2432L39.1128 15.2413C39.5137 15.4256 39.9338 15.573 40.3132 15.8051C42.2244 16.9741 43.2685 18.638 43.227 20.9125ZM36.5581 24.7995C38.7306 24.7764 39.9342 23.661 40.8395 22.0986C40.8737 22.0377 40.8985 21.9593 40.8459 21.9075C40.7821 21.8476 40.7192 21.9139 40.6704 21.9542C40.3693 22.1977 40.0326 22.3854 39.6752 22.5288C38.4795 23.0033 37.2406 23.1311 35.9745 22.9407C34.8657 22.7723 33.8511 22.3986 33.1992 21.4002C33.1585 21.3403 33.087 21.2706 33.0096 21.3133C32.9133 21.3667 32.9835 21.4543 33.0096 21.5182C33.1784 21.9627 33.3618 22.4027 33.5885 22.823C34.2727 24.0933 35.3412 24.7551 36.5581 24.7995ZM39.9511 17.0306C39.0139 17.0289 38.2499 17.82 38.2435 18.8042C38.2366 19.8384 39.1111 20.7846 40.0857 20.7925C41.0698 20.8006 41.95 19.9385 41.95 18.9608C41.9496 17.9962 40.9512 17.0349 39.9511 17.0306ZM33.8979 20.5155C34.8702 20.5098 35.728 19.6439 35.7239 18.6757C35.7198 17.7003 34.7193 16.7628 33.688 16.7666C32.7566 16.7685 32.0076 17.5805 32.0174 18.5698C32.029 19.6034 32.9158 20.5232 33.8979 20.5155Z" fill="#B6B6B6"/>
<path d="M38.8164 29.4012C40.1816 28.7107 41.4368 27.8686 42.5317 26.7918C43.9643 25.3834 44.8816 23.6672 45.5925 21.8246C45.8176 21.2382 45.8592 21.2141 46.4757 21.3303C47.1527 21.5902 47.8294 21.854 48.4483 22.2369C48.6152 22.34 48.7762 22.4521 48.9236 22.5835C48.7409 23.9252 48.2887 25.1772 47.6695 26.3704C46.6846 28.2654 45.463 29.9919 43.9401 31.4989C43.5583 31.5564 43.1956 31.4441 42.8337 31.3531C41.5361 31.0301 40.3002 30.558 39.2155 29.7547C39.0709 29.6509 38.9245 29.5453 38.8164 29.4012Z" fill="#B6B6B6"/>
<path d="M43.9375 31.4999C45.4598 29.9935 46.682 28.2666 47.6648 26.3714C48.2875 25.1789 48.7395 23.9245 48.9189 22.5852C49.7285 23.1616 50.1484 23.981 50.3596 24.9215C50.5349 25.6864 50.5088 26.4613 50.4435 27.2358C50.4093 27.6038 50.4955 27.7131 50.8692 27.7276C51.3828 27.7455 51.8646 27.594 52.35 27.4438C52.4933 27.3988 52.641 27.3504 52.8015 27.298C52.8 27.3948 52.7403 27.4299 52.6982 27.4742C51.8519 28.3955 50.8651 29.0791 49.6031 29.3045C49.5076 29.3211 49.4475 29.3756 49.3919 29.4379C47.9458 31.0957 46.0492 31.5796 43.9375 31.5001V31.4999Z" fill="#7A7878"/>
<path d="M27.2207 47.9836C26.9819 48.642 26.7506 49.2518 26.5402 49.8701C26.4764 50.0523 26.3966 50.12 26.1999 50.1162C25.6499 50.1 25.6475 50.1138 25.4688 49.5967C25.2769 49.0519 25.0894 48.5088 24.8424 47.9681V48.5037C24.8424 48.9714 24.8381 49.4406 24.8441 49.9099C24.8463 50.0608 24.8077 50.1139 24.644 50.1139C24.0512 50.1219 24.0512 50.1277 24.0512 49.5373C24.0512 48.6234 24.0576 47.7143 24.0469 46.7985C24.0452 46.6085 24.0957 46.5458 24.29 46.5614C24.5873 46.581 24.9436 46.4779 25.1703 46.6085C25.3965 46.7399 25.4023 47.1273 25.5018 47.4073C25.6839 47.9105 25.8551 48.4161 26.0321 48.9251C26.1445 48.8821 26.1357 48.7824 26.1605 48.7093C26.3917 48.0703 26.6178 47.4295 26.8389 46.787C26.8916 46.6294 26.9594 46.5458 27.1422 46.5612C27.3892 46.5786 27.6396 46.5712 27.8865 46.5631C28.0075 46.5614 28.0693 46.585 28.0693 46.7293C28.0652 47.801 28.0652 48.877 28.0693 49.9515C28.0693 50.0683 28.0363 50.1075 27.912 50.1162C27.2706 50.1518 27.2721 50.1552 27.2706 49.509C27.2706 49.0317 27.2689 48.5544 27.2663 48.0752C27.2676 48.059 27.2537 48.0475 27.2207 47.9836ZM37.3406 49.7158C37.3406 50.2347 37.3286 50.7006 37.3466 51.1641C37.3575 51.398 37.2875 51.4815 37.051 51.4517C36.8499 51.4278 36.5843 51.535 36.4559 51.4123C36.3251 51.2851 36.4148 51.0236 36.4148 50.8221C36.4105 49.4942 36.4199 48.1651 36.4066 46.8371C36.4049 46.6057 36.4766 46.5303 36.6958 46.5637C36.7311 46.5701 36.7636 46.5637 36.7983 46.5637C37.2362 46.5637 37.2362 46.5637 37.328 46.9703C37.5242 46.7796 37.723 46.6132 37.9839 46.5377C38.7441 46.3281 39.481 46.76 39.7187 47.5784C39.8737 48.1131 39.8655 48.6539 39.6845 49.1872C39.4392 49.8961 38.8077 50.2911 38.1188 50.1759C37.8793 50.1339 37.7329 50.0504 37.3408 49.7158H37.3406ZM38.855 48.3586C38.8689 48.127 38.8453 47.8892 38.7388 47.6717C38.6168 47.4194 38.4252 47.253 38.1239 47.2455C37.8157 47.2398 37.5895 47.3744 37.4652 47.6433C37.2494 48.1191 37.2704 48.6043 37.5062 49.0662C37.6404 49.3278 37.881 49.4666 38.1812 49.4391C38.4792 49.4067 38.6752 49.2247 38.7706 48.9437C38.8348 48.757 38.8637 48.5666 38.855 48.3586ZM49.4574 48.6281C49.1313 48.6281 48.8068 48.6379 48.4804 48.6234C48.3214 48.6177 48.2936 48.6793 48.3249 48.8199C48.3966 49.1723 48.6193 49.4182 48.9258 49.4676C49.2145 49.5173 49.4394 49.4222 49.5569 49.1527C49.6222 48.9978 49.7061 48.9782 49.8495 49.0121C49.9989 49.0479 50.1504 49.0696 50.3053 49.0935C50.5825 49.1372 50.59 49.1531 50.4545 49.4067C50.1284 50.0348 49.4737 50.3043 48.6296 50.1633C47.979 50.0561 47.4973 49.5454 47.3862 48.844C47.3323 48.495 47.3323 48.1462 47.4018 47.8012C47.5809 46.9609 48.2138 46.4576 49.0416 46.49C49.8732 46.5215 50.447 47.0646 50.5703 47.9303C50.6681 48.6298 50.6681 48.6298 49.9717 48.6298C49.7975 48.6281 49.6263 48.6281 49.4574 48.6281ZM48.9838 48.0292C49.1728 48.0292 49.3596 48.0252 49.5471 48.0313C49.6605 48.0356 49.6823 47.9958 49.6708 47.8847C49.6269 47.5023 49.3643 47.227 49.0219 47.2149C48.7015 47.2029 48.4428 47.4411 48.3493 47.7976C48.2953 48.0038 48.3595 48.0511 48.5528 48.0339C48.6934 48.02 48.8385 48.0292 48.9838 48.0292ZM33.8789 50.1102C33.5915 50.1102 33.3364 50.1038 33.0819 50.1121C32.8412 50.1166 32.942 49.8748 32.8044 49.7776C32.448 50.0925 32.0183 50.2549 31.5126 50.1754C31.0186 50.1 30.6687 49.7672 30.6184 49.2997C30.5583 48.757 30.7913 48.3465 31.3011 48.1835C31.6977 48.0586 32.1097 47.9832 32.5163 47.8807C32.6197 47.8509 32.7748 47.8651 32.7637 47.6866C32.7539 47.5097 32.7209 47.3342 32.5279 47.2703C32.1837 47.1556 31.7225 47.1712 31.5804 47.5679C31.5654 47.6048 31.5594 47.6646 31.5047 47.6548C31.2517 47.6112 30.9989 47.5679 30.752 47.51C30.6647 47.4887 30.7323 47.4026 30.7479 47.3595C30.9014 46.9155 31.1986 46.6321 31.6735 46.5405C32.0645 46.4617 32.4555 46.4698 32.8448 46.5405C33.3542 46.6364 33.6401 46.953 33.6666 47.4678C33.6822 47.7831 33.6788 48.0999 33.6765 48.4155C33.6707 48.9829 33.6135 49.5535 33.8789 50.1102ZM32.7616 48.7289C32.7025 48.6614 32.89 48.4455 32.67 48.4675C32.3853 48.4909 32.1056 48.5947 31.8278 48.6793C31.6138 48.7445 31.5064 48.9034 31.5532 49.1331C31.5982 49.357 31.7422 49.4896 31.977 49.5132C32.4324 49.5535 32.7164 49.2735 32.7616 48.7289ZM45.2957 50.1102C44.9713 50.1102 44.6907 50.1038 44.4125 50.1145C44.2871 50.1166 44.2535 50.0412 44.2134 49.9519C44.0701 49.6259 43.9226 49.3016 43.7711 48.9793C43.7283 48.8855 43.6734 48.7976 43.608 48.7178C43.5425 48.6384 43.431 48.5836 43.3332 48.6126C43.2337 48.6467 43.285 48.7617 43.2833 48.8406C43.2778 49.207 43.2784 49.5735 43.285 49.94C43.2874 50.0723 43.2418 50.1081 43.1081 50.1143C42.3556 50.1441 42.3556 50.1484 42.3556 49.4107C42.3556 48.5329 42.362 47.6572 42.3534 46.7796C42.3515 46.6132 42.3973 46.5637 42.5645 46.5618C43.2806 46.5499 43.2806 46.5418 43.2806 47.2455C43.2806 47.4418 43.287 47.6359 43.2806 47.834C43.2724 48.0215 43.3644 48.0002 43.4875 47.9487C43.6148 47.8886 43.6668 47.7701 43.7144 47.6514C43.8143 47.4252 43.8877 47.1874 43.9973 46.9696C44.1685 46.6287 44.708 46.4265 45.0603 46.5499C45.1337 46.5752 45.1453 46.6247 45.1476 46.6841C45.1476 46.787 45.1395 46.8901 45.1493 46.9909C45.1673 47.1401 45.1151 47.2108 44.9522 47.1989C44.6995 47.1729 44.582 47.3335 44.5103 47.5438C44.4264 47.7972 44.3472 48.0471 44.1285 48.2214C44.0527 48.2789 44.0887 48.3051 44.1482 48.3488C44.7427 48.7888 44.9533 49.4676 45.2957 50.1102ZM54.371 46.5631C54.8326 46.5631 55.2949 46.5695 55.7546 46.5614C55.9097 46.559 55.9594 46.6044 55.9594 46.7634C55.9675 47.3318 55.9716 47.3318 55.41 47.3318C54.8326 47.3318 54.8326 47.3318 54.8326 47.9186C54.8326 48.5825 54.8309 49.2443 54.8369 49.9059C54.839 50.0567 54.809 50.1258 54.6417 50.1139C54.4615 50.1 54.2805 50.1 54.1002 50.1139C53.9372 50.1277 53.9012 50.0619 53.9031 49.9099C53.9136 49.1331 53.8967 48.3609 53.9136 47.5858C53.9177 47.3657 53.8498 47.3105 53.6405 47.3267C53.4115 47.3438 53.1766 47.3267 52.9482 47.3325C52.8307 47.3346 52.7892 47.295 52.7811 47.1722C52.7468 46.5618 52.7434 46.5618 53.3403 46.5618C53.687 46.5631 54.0294 46.5631 54.371 46.5631Z" fill="#7A7878"/>
<path fill-rule="evenodd" clip-rule="evenodd" d="M38.9871 15.1862L38.987 15.1861H38.9868C38.9869 15.1862 38.987 15.1862 38.9871 15.1862ZM38.9896 15.1866C38.9563 15.1472 38.9154 15.1255 38.8622 15.1347C38.094 14.4177 38.6968 13.0387 39.656 12.9091C39.4196 12.1755 40.0309 11.463 40.5957 11.6217C40.5956 11.6216 40.5954 11.6215 40.5953 11.6214C40.5315 11.4469 40.4727 11.2765 40.5379 11.0813C40.668 10.6934 40.9351 10.5531 41.3198 10.6905C41.3189 10.7267 41.3324 10.7466 41.3688 10.7433C41.3624 10.7888 41.3676 10.8279 41.4194 10.845C41.4192 10.8737 41.4195 10.9026 41.4198 10.9314C41.4215 11.0753 41.4231 11.2196 41.3542 11.3559C41.2274 11.6147 41.0375 11.7195 40.7254 11.6972C40.7262 11.6977 40.727 11.6982 40.7278 11.6987C41.1201 12.0396 40.9499 12.8528 40.438 13.1126C40.2749 13.1959 40.279 13.2483 40.3426 13.4051C40.673 14.2273 39.9655 15.2714 39.2136 15.2207C39.1901 15.2194 39.1666 15.2272 39.143 15.2351C39.1356 15.2376 39.1282 15.24 39.1208 15.2422C39.0974 15.195 39.0589 15.1923 39.0206 15.1897C39.0102 15.189 38.9997 15.1882 38.9896 15.1866ZM39.1208 15.2422C39.1191 15.2427 39.1175 15.2432 39.1158 15.2437L39.1222 15.2454C39.1218 15.2443 39.1213 15.2433 39.1208 15.2422ZM41.4194 10.845C41.4215 10.8457 41.4236 10.8463 41.4259 10.8469L41.4195 10.8418C41.4194 10.8429 41.4194 10.8439 41.4194 10.845ZM41.3688 10.7433C41.3704 10.7431 41.372 10.743 41.3737 10.7427L41.3698 10.737C41.3695 10.7391 41.3691 10.7412 41.3688 10.7433ZM41.3198 10.6905C41.3212 10.691 41.3226 10.6915 41.324 10.692L41.3199 10.6863C41.3199 10.6877 41.3198 10.6891 41.3198 10.6905ZM38.8622 15.1347C38.8609 15.1349 38.8597 15.1352 38.8584 15.1354L38.8648 15.1371C38.8639 15.1363 38.8631 15.1355 38.8622 15.1347ZM38.9896 15.1866C38.9906 15.1878 38.9916 15.189 38.9926 15.1902L38.9871 15.1862C38.9879 15.1863 38.9888 15.1865 38.9896 15.1866ZM34.6212 15.2608C34.6369 15.2543 34.6538 15.2473 34.6701 15.2413L34.6699 15.2415C34.6772 15.2368 34.6845 15.2321 34.6918 15.2274C34.713 15.2138 34.734 15.2004 34.7534 15.1861H34.7476C34.8882 15.0485 35.0102 14.9028 35.0641 14.7035C35.2409 14.0516 34.8394 13.2645 34.2016 13.048C34.0692 13.0037 34.0366 12.9709 34.0634 12.8239C34.1761 12.1776 33.7075 11.6706 33.0576 11.7124C33.0585 11.7119 33.0594 11.7113 33.0603 11.7108L33.0562 11.7125C33.0567 11.7125 33.0571 11.7125 33.0576 11.7124C33.0368 11.7248 33.0151 11.7395 32.9943 11.7535C32.9883 11.7576 32.9823 11.7616 32.9764 11.7656C32.9564 11.7772 32.9359 11.7866 32.9157 11.7959C32.9097 11.7986 32.9038 11.8014 32.8979 11.8041C32.634 12.3845 32.7406 12.8878 33.2097 13.1839C33.3439 13.2675 33.3439 13.3139 33.287 13.4494C32.9355 14.297 33.6799 15.4665 34.6053 15.2673C34.6104 15.2652 34.6157 15.263 34.6212 15.2608ZM41.3342 10.6795C41.3324 10.6837 41.3304 10.6879 41.3283 10.6921H41.3281L41.326 10.6823C41.3289 10.6812 41.3316 10.6803 41.3342 10.6795ZM41.4342 10.8417C41.5221 10.884 41.6106 10.9249 41.6988 10.9657C42.0434 11.1253 42.3855 11.2837 42.6877 11.5173C42.7551 11.5687 42.8189 11.633 42.8546 11.7085C42.9501 11.9096 43.0976 11.887 43.2589 11.8186C43.4156 11.7511 43.5153 11.6273 43.5911 11.4798C44.0548 10.586 43.4162 9.50364 42.3971 9.46103C41.8077 9.43802 41.4058 9.78745 41.3364 10.3691C41.3316 10.4108 41.3374 10.4528 41.3431 10.4946C41.3516 10.5567 41.3601 10.6186 41.3342 10.6795C41.3734 10.6675 41.376 10.6917 41.3787 10.717C41.3794 10.724 41.3802 10.7311 41.3817 10.7375C41.3791 10.7361 41.3766 10.7346 41.3741 10.733L41.382 10.7388C41.3819 10.7384 41.3818 10.738 41.3817 10.7375C41.3873 10.7407 41.3931 10.7437 41.3989 10.7466C41.4364 10.7659 41.4727 10.7845 41.4342 10.8417ZM41.4342 10.8417C41.4314 10.8403 41.4287 10.839 41.4259 10.8377L41.434 10.8419C41.4341 10.8418 41.4341 10.8417 41.4342 10.8417ZM32.1798 10.9444C32.1813 10.9436 32.1827 10.9428 32.1841 10.9421L32.1817 10.9457C32.2441 10.9203 32.2431 10.8704 32.2335 10.818C32.2283 10.8334 32.2175 10.8467 32.2067 10.8601C32.1875 10.8838 32.1681 10.9078 32.179 10.9446L32.1798 10.9437C32.1798 10.9439 32.1798 10.9441 32.1798 10.9444ZM32.1796 10.9465C32.1797 10.9468 32.1798 10.9471 32.1798 10.9473C32.1798 10.9746 32.1794 11.0016 32.1789 11.0285C32.178 11.0846 32.1771 11.1403 32.1798 11.197C32.1974 11.5645 32.5477 11.9312 32.8929 11.8034C32.9084 11.7952 32.9243 11.7876 32.9399 11.7802C32.9507 11.7751 32.9613 11.77 32.9717 11.7648C32.9865 11.7261 33.0082 11.7028 33.0538 11.7098C33.0539 11.7112 33.0539 11.7127 33.0539 11.7141L33.0556 11.7101C33.055 11.71 33.0544 11.7099 33.0538 11.7098C33.0536 11.7017 33.053 11.6934 33.0523 11.6849C33.0506 11.6624 33.0488 11.6392 33.0556 11.6191C33.166 11.3272 33.077 11.0836 32.8728 10.8723C32.6794 10.6718 32.4598 10.7165 32.2388 10.8151C32.4404 10.2533 32.104 9.6372 31.5269 9.55776C30.967 9.48063 30.4986 9.68156 30.1619 10.1343C29.8334 10.5798 29.8294 11.0671 30.0543 11.5576C30.1457 11.7568 30.2961 11.9079 30.5309 11.9441C30.6124 11.9584 30.6882 11.9543 30.7353 11.8789C30.988 11.4877 31.3808 11.3126 31.7731 11.1377C31.9103 11.0766 32.0474 11.0155 32.1784 10.9451L32.1758 10.9479C32.1771 10.9475 32.1783 10.947 32.1796 10.9465Z" fill="#B6B6B6"/>
<path fill-rule="evenodd" clip-rule="evenodd" d="M35.0453 33.0834C35.7821 33.1866 36.4862 32.5761 36.4845 31.7767C36.4665 31.5502 36.4126 31.277 36.1992 31.0668C36.0002 30.8716 35.8307 30.8848 35.6578 31.0955C35.5045 31.2839 35.3004 31.407 35.0847 31.5131L35.0769 31.5168C34.9025 31.6008 34.7278 31.685 34.5612 31.7786C34.4565 31.8372 34.3645 31.9143 34.3339 32.0422C34.2262 32.5109 34.5687 33.0165 35.0453 33.0834ZM36.6985 32.0888C36.6226 32.6262 37.023 33.0909 37.5689 33.0909C38.1838 33.0892 38.7263 32.663 38.8333 32.0665C38.9033 31.6893 38.8404 31.3318 38.5545 31.0506C38.3689 30.8669 38.1878 30.8895 38.0333 31.0927C37.9107 31.25 37.7478 31.3604 37.5723 31.4515C37.491 31.4939 37.4085 31.5346 37.326 31.5753C37.2022 31.6364 37.0782 31.6976 36.9571 31.7648C36.8308 31.8355 36.7216 31.9241 36.6985 32.0888ZM33.6047 34.6746C32.5896 35.5763 32.2436 36.7614 32.2194 38.0692C32.21 38.6976 32.3067 39.3118 32.4963 39.9091C32.7388 40.668 33.0483 41.3971 33.6475 41.9562C34.3711 42.6293 35.2693 42.8413 36.2236 42.8615C37.2718 42.8835 38.2556 42.6536 39.055 41.9362C39.6803 41.3741 40.0429 40.6819 39.8862 39.8025C39.8509 39.5986 39.7514 39.4403 39.5669 39.3331C39.4663 39.278 39.3903 39.2577 39.3176 39.3868C39.0851 39.7927 38.704 39.9943 38.2685 40.1021C37.4321 40.3 36.6193 40.1931 35.8291 39.8918C35.8102 39.8844 35.7906 39.8769 35.7705 39.8694C35.5931 39.8024 35.385 39.7239 35.396 39.516C35.4061 39.3035 35.6181 39.2414 35.8027 39.1874C35.8218 39.1818 35.8405 39.1763 35.8587 39.1708C36.2159 39.0611 36.5819 38.9912 36.9477 38.9215C37.202 38.8729 37.4563 38.8244 37.7073 38.7626C38.6772 38.5207 39.3953 37.9742 39.7184 37.0107C40.0431 36.044 39.9046 35.1364 39.217 34.3595C38.5923 33.6443 37.7379 33.4453 36.8346 33.4048C35.574 33.3541 34.5202 33.8603 33.6047 34.6746ZM37.1804 35.767C37.3748 35.858 37.4869 36.0001 37.4811 36.1469C37.4811 36.2758 37.4019 36.3555 37.2891 36.3888C36.8835 36.5182 36.4765 36.6446 36.0694 36.7711L36.0689 36.7712C35.7766 36.862 35.4842 36.9528 35.1922 37.0448C35.0512 37.0902 35.0531 37.0293 35.0681 36.924C35.1884 36.0364 36.3717 35.3863 37.1804 35.767ZM13.8466 35.0972C13.9988 35.7515 14.0039 36.4165 13.9889 37.3242C13.938 38.4223 13.7933 39.7474 13.3798 41.0337L13.3638 41.0836C13.2282 41.5045 13.0879 41.9406 12.7297 42.2305C12.4196 42.4804 12.5625 42.7932 12.8412 42.9082C12.946 42.9519 13.049 42.9917 13.1575 43.0131C13.8524 43.1541 14.5539 43.1241 15.2527 43.0371C15.6685 42.9802 16.0775 42.8927 16.449 42.6824C16.8103 42.4844 16.9444 42.2349 16.8728 41.8659C16.7225 41.0972 16.7225 40.3244 16.8218 39.5516C16.9151 38.8346 17.0688 38.1351 17.5651 37.5705C17.863 37.2338 18.2061 36.9462 18.6949 37.0591C19.2085 37.1737 19.394 37.5937 19.4878 38.0578C19.6179 38.698 19.5486 39.3298 19.4161 39.9598C19.3337 40.3498 19.2133 40.7297 19.093 41.1097C18.9872 41.4438 18.8813 41.7781 18.8012 42.1192C18.6643 42.6979 18.8175 42.9461 19.4103 43.0631C20.1519 43.2052 20.89 43.1179 21.6316 43.0269C22.1409 42.963 22.3939 42.7037 22.5261 42.2305C22.8234 41.1604 22.8953 40.0704 22.8277 38.9669C22.7652 37.9306 22.5593 36.9302 22.1602 35.9652C21.2549 33.7813 18.773 33.2942 17.1608 34.7167C17.1434 34.7325 17.1261 34.7533 17.1084 34.7746L17.1084 34.7746L17.1084 34.7746C17.0508 34.8438 16.988 34.9192 16.8961 34.8556C16.8196 34.7997 16.8483 34.682 16.8731 34.5807C16.8767 34.5661 16.8802 34.5518 16.8832 34.5381C16.8883 34.5136 16.8972 34.4903 16.9063 34.4668L16.9063 34.4667C16.9125 34.4505 16.9188 34.4341 16.9239 34.4171C17.0423 34.051 16.9624 33.9057 16.5772 33.8563C15.6749 33.7417 14.8022 33.9098 13.9483 34.1738C13.7066 34.2466 13.6367 34.4431 13.7203 34.6809C13.7668 34.8181 13.8136 34.9585 13.8466 35.0972ZM65.8153 42.4757C66.922 41.9407 67.6779 41.0575 68.1477 39.8942C68.0267 39.9049 67.9471 39.9505 67.8713 39.9937C67.8496 40.0061 67.8282 40.0183 67.8063 40.0295C67.7514 40.0579 67.6965 40.0866 67.6417 40.1152L67.6416 40.1153C67.2438 40.3233 66.8455 40.5316 66.4013 40.6359C65.8162 40.7746 65.4933 40.537 65.4973 39.9425C65.5014 39.1859 65.5275 38.4285 65.5575 37.6719C65.5623 37.5178 65.5695 37.3641 65.5767 37.2105L65.5767 37.2101C65.5989 36.7362 65.6211 36.2633 65.5731 35.786C65.4701 34.6964 65 34.086 63.9217 33.8522C62.5362 33.5471 61.1627 33.652 59.8439 34.181C59.384 34.3596 58.9862 34.6429 58.7131 35.0691C58.413 35.5402 58.4661 36.2139 58.8346 36.7252C59.1214 37.1213 59.6224 37.2677 60.1996 37.123L60.1998 37.123C60.3108 37.0932 60.3991 37.0695 60.3905 36.9112C60.3749 36.5311 60.5902 36.2893 60.9283 36.1544C61.2686 36.0215 61.6226 35.984 61.9869 36.0279C62.2612 36.0596 62.5341 36.0952 62.7706 36.2478C62.9662 36.3688 62.9662 36.5068 62.7885 36.6539C62.659 36.7604 62.5001 36.784 62.3447 36.807L62.3327 36.8088C61.5687 36.9221 60.8641 37.1974 60.2152 37.6093C59.6102 37.9936 59.0885 38.4828 58.9498 39.2124C58.6112 40.9693 59.3378 42.6042 61.2718 43.0418C62.8303 43.3949 64.3746 43.1809 65.8153 42.4757ZM62.9713 39.1231C63.0388 39.2987 63.0694 39.4862 63.061 39.6741C63.0627 40.1335 62.9373 40.3237 62.5675 40.4584C62.261 40.5656 61.9708 40.4965 61.7799 40.2685C61.696 40.1654 61.6479 40.0525 61.6519 39.9176C61.6682 39.3845 62.2454 38.8979 62.7667 38.9631C62.8799 38.9746 62.9339 39.024 62.9713 39.1231ZM27.4477 40.1644L27.4478 40.1644L27.4478 40.1644C27.5655 40.1435 27.6842 40.1226 27.8044 40.106C27.8142 40.5223 27.8455 40.9365 27.9182 41.3488C28.1553 42.6704 28.8785 43.5577 30.2112 43.9109C30.8977 44.0886 31.5975 44.118 32.3008 44.0686C32.6918 44.0432 33.0847 43.9797 33.4231 43.7518C33.6493 43.6026 33.6412 43.5157 33.4075 43.3906C32.1009 42.6975 31.2491 41.6241 30.8104 40.2351C30.4945 39.2301 30.5437 38.1999 30.7109 37.1697C30.835 36.401 31.0244 35.6582 31.4813 35.0022C31.6624 34.745 31.586 34.4254 31.3349 34.2294C31.1851 34.1103 31.0105 34.0389 30.8213 34.0112C30.1463 33.9023 29.472 33.9164 28.8089 34.0826C27.9311 34.3025 27.7102 34.6551 27.8407 35.5446C27.9182 36.0675 27.8731 36.5846 27.6655 37.0742C27.5266 37.3955 27.1824 37.5741 26.873 37.4906C26.6072 37.419 26.4509 37.1179 26.4937 36.7649C26.5264 36.5282 26.5845 36.2958 26.6671 36.0715C26.6914 36.0021 26.7167 35.9329 26.742 35.8637L26.742 35.8636C26.8243 35.6383 26.9069 35.4123 26.9586 35.176C27.1199 34.4512 26.8828 34.0941 26.1453 33.9615C25.6191 33.8644 25.0898 33.8823 24.5612 33.9594C24.1071 34.0274 23.7888 34.2726 23.6484 34.7126C23.2367 35.9985 23.3026 37.2722 23.8744 38.4931C24.4349 39.6937 25.428 40.2726 26.7527 40.2506C26.9829 40.2465 27.2134 40.2058 27.4477 40.1644L27.4477 40.1644ZM55.0742 43.0107C55.5722 43.1017 56.0715 43.1656 56.577 43.1616C56.5933 43.1616 56.6096 43.162 56.626 43.1624C56.6613 43.1632 56.6967 43.1641 56.7315 43.1609C57.1016 43.1609 57.4701 43.1407 57.8003 42.9532C58.0595 42.8085 58.1682 42.4361 57.9756 42.285C57.5041 41.919 57.2768 41.4018 57.1178 40.8628C56.8193 39.8526 56.2682 39.0125 55.4977 38.3047C55.422 38.2359 55.4104 38.1798 55.4502 38.0889C55.5429 37.8753 55.6335 37.661 55.7241 37.4467L55.7243 37.4464C55.8792 37.0801 56.0339 36.7142 56.1982 36.3532C56.3936 35.9192 56.684 35.5804 57.1741 35.4377C57.5204 35.3386 57.6835 35.1006 57.6877 34.7874C57.6892 34.5002 57.5221 34.2368 57.1977 34.1397C56.2346 33.8522 55.2715 33.8263 54.3478 34.272C53.8937 34.4904 53.6333 34.8628 53.6033 35.3857C53.595 35.5316 53.5733 35.6769 53.5515 35.8227C53.5418 35.8877 53.532 35.9528 53.5235 36.0181L53.5198 36.0514C53.4933 36.2944 53.4667 36.5383 53.3865 36.7696C53.3482 36.8882 53.2724 37.0148 53.1372 36.9792C53.0582 36.9553 53.0737 36.8726 53.0878 36.7976C53.0924 36.7732 53.0968 36.7496 53.0978 36.7291C53.1429 36.1435 53.1921 35.5583 53.2452 34.9734C53.2788 34.601 53.1158 34.3331 52.7815 34.2006C52.1127 33.927 51.4199 33.8678 50.7274 34.1015C50.2514 34.2641 50.0329 34.6919 50.142 35.1814C50.2101 35.5058 50.2535 35.835 50.2717 36.1659C50.3135 37.0335 50.2786 37.8996 50.2438 38.7654V38.7655V38.7655L50.2438 38.7658L50.2438 38.7662C50.2304 39.099 50.217 39.4318 50.208 39.7646C50.207 39.8038 50.2059 39.843 50.2049 39.8822C50.2039 39.9173 50.203 39.9523 50.202 39.9874L50.2019 39.9915C50.183 40.6839 50.1641 41.3733 50.264 42.0628C50.3203 42.4672 50.4673 42.7993 50.889 42.9444C51.3782 43.1149 51.8762 43.2065 52.4014 43.123C53.0023 43.0239 53.2014 42.7482 53.1239 42.1538C53.0203 41.3573 52.9371 40.5645 52.9266 39.7606C52.9266 39.7389 52.9235 39.7154 52.9204 39.6914C52.9102 39.6123 52.8993 39.5276 52.9942 39.483C53.125 39.4203 53.2609 39.4561 53.3784 39.5413C53.5573 39.67 53.6746 39.8482 53.7585 40.0484C54.0251 40.6808 54.2042 41.3326 54.2199 42.0236C54.2321 42.5748 54.531 42.9076 55.0742 43.0107ZM48.6299 37.8988C48.6021 39.2618 48.6085 40.625 48.8294 41.9765C48.8491 42.1054 48.8728 42.2298 48.8987 42.3546C48.9706 42.6877 48.8929 42.9035 48.5824 43.0164C47.9179 43.2519 47.2371 43.2323 46.5666 43.0399C46.3498 42.9789 46.2422 42.7746 46.1671 42.5707C45.9599 41.992 45.906 41.3897 45.9021 40.7831C45.894 39.3683 45.9021 37.9535 46.0078 36.543C46.0136 36.4401 46.0136 36.3393 46.0121 36.2379C46.0014 35.8736 45.8726 35.7628 45.5145 35.8216C45.2218 35.8695 44.9592 35.9839 44.7308 36.1787C44.5358 36.3451 44.4241 36.5507 44.3982 36.8128C44.2529 38.4257 44.058 40.0305 43.6873 41.6096C43.4525 42.6082 42.9389 43.4027 41.9602 43.8227C41.06 44.2032 40.1329 44.2211 39.1998 43.9303C39.1263 43.909 39.0558 43.8784 38.9901 43.8393C38.9621 43.8235 38.9315 43.8082 38.9005 43.7926C38.7676 43.7259 38.625 43.6543 38.625 43.518C38.625 43.4294 38.7361 43.3989 38.8468 43.3685C38.895 43.3553 38.9432 43.3421 38.982 43.3241C39.9525 42.8703 40.5755 42.0875 41.0682 41.1777C41.5501 40.2879 41.7472 39.3112 41.8885 38.3226C41.9184 38.1199 41.9451 37.9164 41.9718 37.7129C42.0339 37.24 42.0959 36.7668 42.199 36.3014C42.5286 34.7833 43.2755 34.1177 44.8303 33.9715C45.7136 33.888 46.5917 33.9432 47.4614 34.1136C47.6442 34.1499 47.8235 34.2087 47.9988 34.2801C48.4247 34.4586 48.6558 34.742 48.6361 35.2435C48.6154 35.8563 48.6204 36.47 48.6255 37.0839L48.6255 37.0851C48.6277 37.3563 48.6299 37.6275 48.6299 37.8988Z" fill="#7A7878"/>
<path d="M36.5564 24.7991C35.3394 24.7544 34.2693 24.0926 33.5851 22.8204C33.3582 22.4007 33.1772 21.9607 33.006 21.5156C32.9824 21.451 32.9107 21.363 33.006 21.3106C33.0836 21.268 33.1553 21.337 33.1964 21.3975C33.85 22.3983 34.8627 22.7716 35.9715 22.938C37.2372 23.1302 38.4761 23.0002 39.6723 22.5257C40.0316 22.3861 40.3672 22.1922 40.6672 21.9509C40.7164 21.91 40.7787 21.8439 40.8429 21.9042C40.8956 21.9549 40.8707 22.0344 40.8365 22.0955C39.9325 23.6612 38.7289 24.7766 36.5562 24.7991H36.5564ZM39.9494 17.0303C40.9495 17.0344 41.9479 17.9959 41.9438 18.9607C41.9438 19.9361 41.0657 20.7999 40.0819 20.7922C39.1073 20.7843 38.2328 19.8381 38.2384 18.8039C38.2476 17.8197 39.0123 17.0263 39.9494 17.0303ZM40.0367 20.1935C40.673 20.1918 41.2132 19.7103 41.3925 19.0084C41.4381 18.8171 41.3861 18.7687 41.2033 18.767C40.9067 18.7649 40.6302 18.8603 40.3408 18.881C40.2651 18.8853 40.1716 18.9311 40.123 18.8661C40.0695 18.7958 40.1581 18.7302 40.1893 18.6696C40.3177 18.4197 40.4611 18.1785 40.5527 17.9107C40.6649 17.5802 40.6169 17.5163 40.2796 17.4967C40.0917 17.4879 39.9035 17.5047 39.7202 17.5468C39.0551 17.6976 38.6266 18.2753 38.7075 18.9083C38.804 19.6457 39.3727 20.1956 40.0365 20.1935H40.0367ZM33.8963 20.5152C32.9139 20.5206 32.0273 19.6033 32.0157 18.5695C32.0059 17.5802 32.7549 16.7689 33.6863 16.7665C34.7176 16.7625 35.7182 17.7 35.7222 18.6756C35.7265 19.6457 34.8685 20.5095 33.8963 20.5152ZM33.8616 18.5989C33.9857 18.3571 34.112 18.1383 34.2126 17.9073C34.5203 17.211 34.4249 17.1991 33.758 17.2353C33.1181 17.2704 32.603 17.6942 32.4964 18.2459C32.3697 18.9006 32.8089 19.6578 33.4301 19.8607C34.0437 20.0616 34.7095 19.7546 35.0241 19.1177C35.1114 18.9392 35.2659 18.7146 35.1504 18.5539C35.0357 18.3973 34.7812 18.5135 34.5892 18.5333C34.3566 18.558 34.1312 18.6513 33.8616 18.5989ZM38.9836 15.1858C39.0319 15.1915 39.0921 15.18 39.1175 15.2412C39.0666 15.2359 39.0101 15.2491 38.9834 15.1858H38.9836Z" fill="#FEFEFD"/>
<path d="M38.8544 15.1351C38.9111 15.123 38.9563 15.145 38.9886 15.1899C38.94 15.1882 38.8747 15.2146 38.8544 15.1351ZM34.6685 15.241C34.6974 15.2221 34.7263 15.2048 34.7541 15.1859C34.7436 15.2359 34.7032 15.2323 34.6685 15.241ZM32.9727 11.7629C32.9876 11.7244 33.0097 11.6984 33.0563 11.7082C33.0304 11.7261 32.9992 11.745 32.9727 11.7629ZM41.432 10.8451C41.3718 10.8301 41.3641 10.7852 41.3718 10.7351C41.414 10.7615 41.4795 10.773 41.432 10.8451Z" fill="#FEFEFD"/>
<path d="M41.3765 10.7426C41.335 10.7467 41.3204 10.7247 41.3228 10.6861C41.3806 10.6638 41.3724 10.7121 41.3765 10.7426ZM32.2353 10.8157C32.2456 10.8722 32.2492 10.9246 32.181 10.9478C32.1577 10.8871 32.2195 10.8606 32.2353 10.8157Z" fill="#FEFEFD"/>
<path d="M40.0382 20.1936C39.3744 20.1953 38.8057 19.646 38.7092 18.9088C38.6283 18.2759 39.0546 17.6983 39.7219 17.5473C39.9053 17.5054 40.0935 17.4886 40.2814 17.4974C40.6187 17.517 40.6645 17.5809 40.5545 17.9114C40.4631 18.1792 40.3195 18.4185 40.1911 18.6703C40.1568 18.7308 40.0684 18.7965 40.1247 18.8668C40.1733 18.9318 40.2668 18.8875 40.3426 18.8817C40.6319 18.8625 40.9089 18.7654 41.2051 18.7677C41.3878 18.7677 41.4398 18.8161 41.3942 19.0089C41.2132 19.7103 40.6747 20.1918 40.0385 20.1936H40.0382ZM33.8633 18.599C34.1304 18.649 34.3583 18.5563 34.5914 18.5316C34.7823 18.5114 35.0374 18.398 35.1515 18.5523C35.267 18.7129 35.1127 18.9375 35.0252 19.1161C34.7129 19.7531 34.0472 20.06 33.4312 19.8588C32.8123 19.6556 32.3734 18.899 32.4977 18.2442C32.6041 17.6924 33.1194 17.2675 33.7591 17.2336C34.426 17.1974 34.5214 17.2089 34.2139 17.9056C34.1137 18.14 33.9877 18.3588 33.8633 18.599Z" fill="#7A7878"/>
</svg>
