<svg width="125" height="46" viewBox="0 0 125 46" fill="none" xmlns="http://www.w3.org/2000/svg">
<path opacity="0.5" d="M57.5295 2.91369C37.0665 2.91369 17.8414 8.59539 1.45644 18.3563C17.186 6.84718 36.5567 0 57.5295 0C78.5022 0 97.8729 6.84718 113.602 18.3563C97.2175 8.59539 77.9925 2.91369 57.5295 2.91369ZM0 45.8907H13.0352L15.6568 38.8978H7.28221V21.9255H0V45.8907ZM62.9911 21.8527H55.3448L49.8831 36.0569L44.0574 21.8527H36.0469L45.8779 45.8907H54.034L62.9911 21.8527ZM74.2786 21.8527H66.7051L57.6751 45.8907H65.3214L74.2786 21.8527ZM95.1785 21.8527L90.0809 35.4742L85.2747 21.8527H77.7012L68.6713 45.8907H76.3176L81.4151 32.2691L86.2214 45.8178H93.8677L102.825 21.7799L95.1785 21.8527ZM42.6009 45.8907H34.5905L33.1341 42.2485H25.1236L23.6672 45.8907H15.6568L24.7595 21.8527H32.77L42.6009 45.8907ZM31.3863 36.8582L29.1288 31.5407L27.0898 36.8582H31.3863ZM124.38 45.8907H116.37L114.913 42.2485H106.903L105.446 45.8907H97.436L106.539 21.8527H114.549L124.38 45.8907ZM113.166 36.8582L110.908 31.5407L108.869 36.8582H113.166Z" fill="black"/>
</svg>
