<svg width="128" height="46" viewBox="0 0 128 46" fill="none" xmlns="http://www.w3.org/2000/svg">
<path d="M62.9179 1.64355H50.7332C50.3552 1.64355 50.0327 1.77359 49.7655 2.03718C49.4952 2.29222 49.3633 2.60964 49.3633 2.97962V19.8163C49.3633 20.4463 49.9147 21.1541 50.7641 21.1541C51.6241 21.1541 52.165 20.4463 52.165 19.8163V12.518H61.6382C62.1721 12.518 62.9419 12.1057 62.9419 11.246C62.9419 10.4065 62.193 9.97913 61.6382 9.97913H52.165V4.20779H62.9177C63.5107 4.20779 64.2318 3.74323 64.2318 2.9258C64.232 2.07617 63.497 1.64355 62.9179 1.64355Z" fill="#7A7878"/>
<path d="M81.401 20.1088C82.8713 19.2305 84.0192 18.0262 84.8513 16.501C85.6836 14.9758 86.0929 13.2751 86.0929 11.4017C86.0929 9.5234 85.6836 7.82263 84.8513 6.29565C84.0189 4.77371 82.8713 3.57271 81.401 2.68787C79.931 1.80453 78.2735 1.36865 76.4218 1.36865C74.5699 1.36865 72.9093 1.80453 71.4491 2.68787C69.9718 3.57296 68.8242 4.77371 67.9955 6.29565C67.1667 7.82263 66.7539 9.5234 66.7539 11.4017C66.7539 13.2751 67.1667 14.9758 67.9955 16.501C68.8242 18.0262 69.9718 19.2308 71.4491 20.1088C72.9091 20.9957 74.5699 21.4348 76.4218 21.4348C78.2735 21.4348 79.931 20.9957 81.401 20.1088ZM70.5581 15.175C69.9858 14.0517 69.6982 12.7952 69.6982 11.4017C69.6982 9.98644 69.9858 8.7213 70.5581 7.59626C71.1303 6.46971 71.9244 5.5914 72.9473 4.95959C73.9666 4.32953 75.1284 4.01538 76.4218 4.01538C77.7184 4.01538 78.8802 4.3328 79.9031 4.97468C80.9156 5.61479 81.7165 6.49989 82.2886 7.62141C82.861 8.74469 83.145 10.0063 83.145 11.4015C83.145 12.7952 82.8608 14.0517 82.2886 15.1748C81.7165 16.3048 80.9156 17.1831 79.9031 17.825C78.8802 18.4636 77.7184 18.7843 76.4218 18.7843C75.1284 18.7843 73.9666 18.4634 72.9473 17.825C71.9244 17.1834 71.1303 16.3051 70.5581 15.175Z" fill="#7A7878"/>
<path d="M127.028 6.4795C126.379 5.00484 125.415 3.82773 124.139 2.95622C122.863 2.08295 121.33 1.6438 119.534 1.6438H112.131C111.746 1.6438 111.43 1.77383 111.157 2.03743C110.89 2.29247 110.758 2.60988 110.758 2.97987V19.8165C110.758 20.1865 110.89 20.5074 111.157 20.7642C111.431 21.0276 111.746 21.1543 112.131 21.1543H119.534C121.33 21.1543 122.863 20.7253 124.139 19.8605C125.415 18.9973 126.379 17.8252 127.028 16.3438C127.672 14.8709 128.002 13.2207 128.002 11.4017C128.002 9.60084 127.672 7.95566 127.028 6.4795ZM123.626 16.5717C122.651 17.9178 121.188 18.5919 119.25 18.5919H113.584V4.20778H119.25C121.174 4.20778 122.627 4.88336 123.612 6.24307C124.59 7.59951 125.079 9.31889 125.079 11.4015C125.079 13.4976 124.597 15.222 123.626 16.5717Z" fill="#7A7878"/>
<path d="M58.4631 27.375C57.1871 26.4999 55.6474 26.0608 53.8582 26.0608H46.455C46.0734 26.0608 45.7476 26.1959 45.4807 26.4562C45.2137 26.713 45.082 27.0271 45.082 27.4019V44.2421C45.082 44.6068 45.2137 44.9245 45.4807 45.1846C45.7479 45.4482 46.0737 45.5732 46.455 45.5732H53.8582C55.6474 45.5732 57.1871 45.1476 58.4631 44.2758C59.7426 43.4179 60.6996 42.2456 61.3552 40.7694C62.0001 39.2897 62.3295 37.6412 62.3295 35.824C62.3295 34.0166 62.0001 32.3785 61.3552 30.9053C60.6996 29.4256 59.7426 28.2498 58.4631 27.375ZM57.9498 40.9922C56.9824 42.3369 55.5191 43.0122 53.5737 43.0122H47.9111V28.6316H53.5737C55.5018 28.6316 56.9545 29.3107 57.9359 30.6651C58.9102 32.02 59.4062 33.7427 59.4062 35.8238C59.4062 37.9214 58.9242 39.6443 57.9498 40.9922Z" fill="#7A7878"/>
<path d="M39.3621 28.6724C40.0488 28.6724 40.6729 28.1251 40.6729 27.4193C40.6729 26.5813 39.9897 26.1084 39.3621 26.1084H27.4754C27.1007 26.1084 26.7816 26.2437 26.5077 26.5003C26.2441 26.7641 26.1055 27.0815 26.1055 27.453V44.2829C26.1055 44.6612 26.2444 44.9721 26.5077 45.2319C26.7816 45.4922 27.1007 45.624 27.4754 45.624H39.3621C40.2603 45.624 40.6729 44.8503 40.6729 44.3709C40.6729 43.7188 40.1562 43.0635 39.3621 43.0635H28.9351V36.8983H38.0929C38.7518 36.8983 39.3897 36.3915 39.3897 35.6452C39.3897 34.946 38.8246 34.3648 38.0929 34.3648H28.9351V28.6726H39.3621V28.6724Z" fill="#7A7878"/>
<path d="M93.3413 19.8163V13.5449L96.379 13.5381L103.699 20.6659C104.081 21.0392 104.982 21.3078 105.662 20.6473C106.272 20.0509 106.137 19.1829 105.679 18.732L100.336 13.5281C106.123 13.3573 106.508 8.35256 106.508 7.32737C106.508 3.76184 103.612 1.64355 100.842 1.64355H91.8855C91.5039 1.64355 91.1815 1.77359 90.9145 2.03718C90.6476 2.29222 90.5156 2.60964 90.5156 2.97962V19.8163C90.5156 20.4463 91.0635 21.1541 91.9271 21.1541C92.7906 21.1541 93.3413 20.4463 93.3413 19.8163ZM93.3413 4.20779H100.332C102.783 4.20779 103.585 6.08085 103.585 7.32737C103.585 9.99598 101.868 11.2088 99.68 11.2088H93.3413V4.20779Z" fill="#7A7878"/>
<path d="M125.345 43.0329H116.611V27.4528C116.611 27.081 116.476 26.7639 116.195 26.5C115.917 26.2435 115.588 26.1082 115.21 26.1082C114.787 26.1082 114.447 26.2435 114.183 26.5C113.917 26.7639 113.781 27.0813 113.781 27.4528V44.2827C113.781 44.6609 113.903 44.9718 114.166 45.2316C114.423 45.492 114.752 45.6238 115.154 45.6238H125.345C125.751 45.6238 126.077 45.4988 126.337 45.2621C126.597 45.0189 126.722 44.7148 126.722 44.3435C126.722 43.9514 126.597 43.6342 126.337 43.3908C126.077 43.1543 125.751 43.0329 125.345 43.0329Z" fill="#7A7878"/>
<path d="M68.404 26.1082C67.9778 26.1082 67.6412 26.2435 67.3743 26.5C67.1074 26.7639 66.9688 27.0813 66.9688 27.4528V44.2827C66.9688 44.6544 67.1074 44.9718 67.3882 45.2352C67.6624 45.492 67.9882 45.6238 68.3728 45.6238C68.7959 45.6238 69.1289 45.4922 69.3958 45.2352C69.6661 44.9718 69.8014 44.6542 69.8014 44.2827V27.4528C69.8014 27.081 69.6661 26.7639 69.3852 26.5C69.1147 26.2435 68.7817 26.1082 68.404 26.1082Z" fill="#7A7878"/>
<path d="M36.6952 11.4016L44.2266 4.06255C44.6079 3.68929 44.8819 2.81099 44.2023 2.15226C43.599 1.55591 42.7078 1.68595 42.2433 2.13189L34.7152 9.46768L27.1874 2.13189C26.7991 1.75864 25.8976 1.49002 25.2214 2.1505C24.6111 2.74836 24.7427 3.61661 25.1971 4.06255L32.7322 11.4016L25.1971 18.7324C24.8192 19.1091 24.5452 19.9872 25.2214 20.6477C25.8351 21.2423 26.7263 21.114 27.1874 20.6663L34.7155 13.3305L42.2436 20.6663C42.6285 21.0395 43.5334 21.3082 44.2026 20.6477C44.8163 20.0513 44.6846 19.1833 44.2269 18.7324L36.6952 11.4016Z" fill="#7A7878"/>
<path d="M19.9418 26.2062C19.9106 26.1959 19.883 26.1861 19.8517 26.1758C19.7996 26.1622 19.7477 26.1454 19.6958 26.1353C19.6333 26.1288 19.5711 26.1217 19.512 26.1185C19.4843 26.1149 19.4601 26.1084 19.4322 26.1084C19.4216 26.1084 19.4182 26.1119 19.4079 26.1119C19.3421 26.1152 19.2763 26.122 19.2138 26.1356C19.141 26.1456 19.0785 26.1625 19.016 26.1828C18.9639 26.1962 18.9153 26.2098 18.8668 26.2334C18.8392 26.2437 18.8183 26.257 18.794 26.2706C18.7315 26.3043 18.6726 26.338 18.6171 26.3753C18.6032 26.3853 18.5895 26.3954 18.5756 26.4057C18.5407 26.4359 18.5061 26.4598 18.4679 26.4935L11.363 33.4155L4.26137 26.4935C4.23013 26.4666 4.19554 26.4394 4.15733 26.4125C4.14338 26.3989 4.1297 26.3856 4.10879 26.372C4.08116 26.3551 4.05328 26.338 4.02204 26.3214C3.81757 26.1962 3.57824 26.1084 3.30096 26.1084C2.43066 26.1084 1.88281 26.8247 1.88281 27.4663V44.2693C1.88281 44.9112 2.4446 45.624 3.30096 45.624C4.17127 45.624 4.71911 44.9112 4.71911 44.2693V36.8981V30.804L9.51469 35.476C10.4266 36.4149 10.8637 36.6143 11.363 36.6143C11.845 36.6143 12.202 36.4861 13.2146 35.476L18.0171 30.797V36.8981V44.2693C18.0171 44.9112 18.558 45.624 19.4319 45.624C20.2883 45.624 20.8501 44.9112 20.8501 44.2693V27.4663C20.8503 26.9628 20.507 26.419 19.9418 26.2062Z" fill="#7A7878"/>
<path d="M80.7664 29.3852C81.8621 28.7735 83.1277 28.4664 84.5598 28.4664C85.933 28.4664 87.2125 28.8042 88.3949 29.4528C88.641 29.5813 88.8421 29.652 89.1127 29.652C89.6084 29.652 90.4787 29.2501 90.4787 28.3177C90.4787 27.8177 90.2187 27.3989 89.7609 27.159C88.1419 26.2638 86.408 25.8179 84.5598 25.8179C82.632 25.8179 80.8911 26.2505 79.3377 27.1152C77.784 27.9799 76.5672 29.1691 75.6757 30.6825C74.7915 32.1959 74.3477 33.8919 74.3477 35.7702C74.3477 37.8103 74.8088 39.5941 75.7346 41.1178C76.6604 42.6415 77.9019 43.8035 79.4518 44.6008C81.0086 45.4014 82.7076 45.7968 84.5592 45.7968C85.4541 45.7968 86.3659 45.675 87.2881 45.4351C88.214 45.1954 89.0463 44.8709 89.7917 44.4622C89.9997 44.3508 90.4781 43.9959 90.4781 43.3103C90.4781 42.3442 89.5627 41.9792 89.1431 41.9792C88.7548 41.9792 88.6162 42.0673 88.3872 42.1787C87.2463 42.8442 85.9668 43.1817 84.559 43.1817C83.1824 43.1817 81.9481 42.888 80.842 42.3034C79.7324 41.7159 78.8655 40.8645 78.2414 39.753C77.6069 38.638 77.2947 37.3105 77.2947 35.7702C77.2947 34.3378 77.5965 33.0709 78.2066 31.9665C78.8213 30.8578 79.6707 29.9999 80.7664 29.3852Z" fill="#7A7878"/>
<path d="M103.127 26.8179C102.947 26.3989 102.399 25.9834 101.684 25.9834C100.973 25.9834 100.422 26.3989 100.242 26.8179L92.6548 43.8166C92.3912 44.4044 92.5993 45.2761 93.4004 45.6139C94.2881 45.9857 95.0373 45.4079 95.2557 44.918L97.0624 40.8642H106.303V40.8607L108.113 44.918C108.332 45.4077 109.081 45.9854 109.969 45.6139C110.773 45.2761 110.978 44.4044 110.717 43.8166L103.127 26.8179ZM98.1751 38.3777L101.684 30.5032L105.197 38.3777H98.1751Z" fill="#7A7878"/>
<path d="M12.7398 0.870155C12.3272 0.491871 11.8382 0.31958 11.3735 0.31958C10.8915 0.31958 10.4025 0.491871 9.98294 0.893798L0.717733 9.92182C0.686494 9.95049 0 10.4928 0 11.4015C0 12.2358 0.544238 12.7071 0.589419 12.7494L9.85127 21.7759C9.88251 21.8046 10.4268 22.4802 11.3632 22.4802C12.1746 22.4802 12.7155 21.9515 12.7607 21.9059C12.7607 21.9059 22.1545 12.768 22.1924 12.7175C22.567 12.3273 22.7508 11.8542 22.7508 11.4018C22.7508 10.7262 22.4214 10.3444 22.1302 10.0184C22.0953 9.97086 12.7398 0.870155 12.7398 0.870155ZM11.3737 19.2808L3.28711 11.4015L11.3735 3.51689L19.4668 11.4015L11.3737 19.2808Z" fill="#7A7878"/>
</svg>
