<svg width="128" height="23" viewBox="0 0 128 23" fill="none" xmlns="http://www.w3.org/2000/svg">
<path d="M24.2723 19.5059H21.1562V8.40405H32.4724V19.5059H29.3563V10.5265H24.2723V19.5059Z" fill="#7A7878"/>
<path d="M34.0312 11.4243V22.4445H36.9013V18.6895C37.8853 19.7507 39.4433 19.8323 39.8533 19.8323C42.6413 19.8323 44.3634 18.0364 44.3634 15.5059C44.3634 12.8121 42.6413 11.1794 39.9353 11.1794C39.2793 11.1794 37.8853 11.2611 36.8193 12.4855H36.7373V11.506H34.0312V11.4243ZM36.8193 15.4243C36.8193 13.1386 38.2133 12.7304 39.1153 12.7304C39.9353 12.7304 41.4113 13.1386 41.4113 15.4243C41.4113 16.812 40.8373 18.1181 39.1153 18.1181C37.3933 18.1997 36.8193 16.812 36.8193 15.4243Z" fill="#7A7878"/>
<path d="M51.5757 18.5262C50.5097 19.5058 49.4437 19.8323 48.2957 19.8323C45.1796 19.8323 45.0156 17.465 45.0156 16.4854V11.4243H47.8857V16.0773C47.8857 17.7099 48.4597 18.1181 49.5257 18.1181C51.3297 18.1181 51.4937 16.4854 51.4937 15.914V11.4243H54.3637V19.5058H51.4937V18.5262H51.5757Z" fill="#7A7878"/>
<path d="M58.6278 16.0773H60.4319C61.8259 16.0773 62.0719 16.4854 62.0719 17.0569C62.0719 17.3834 61.9079 17.8732 60.4319 17.8732H58.6278V16.0773ZM55.7578 11.4243V19.5058H61.4979C63.6299 19.5058 65.0239 19.0976 65.0239 17.465C65.0239 16.1589 64.2859 15.6691 62.7279 15.3426V15.261C63.7939 15.0977 64.6959 14.4447 64.6959 13.3835C64.6959 11.4243 62.3999 11.4243 61.4979 11.4243H55.7578ZM58.6278 13.0569H60.1859C61.0059 13.0569 61.7439 13.2202 61.7439 13.8732C61.7439 14.6079 60.5959 14.6079 60.1859 14.6079H58.7098V13.0569H58.6278Z" fill="#7A7878"/>
<path d="M68.7137 14.0365C68.7137 12.8121 69.9437 12.7304 70.5177 12.7304C70.8457 12.7304 72.0757 12.7304 72.0757 13.7916C72.0757 13.8733 72.0757 13.9549 72.0757 14.0365C71.9937 14.8528 71.2557 14.6896 69.1237 14.9345C67.4016 15.1794 65.5156 15.5875 65.5156 17.465C65.5156 18.1181 65.8436 19.8323 68.8777 19.8323C70.0257 19.8323 71.3377 19.5058 72.1577 18.7711H72.2397L72.4857 19.5874H75.5197V19.4242C74.9457 19.3425 74.9457 18.7711 74.9457 17.8732L75.0277 14.1998C75.0277 13.3018 74.9457 11.1794 70.5997 11.1794C69.5337 11.1794 66.1716 11.2611 66.0076 14.1182H68.7137V14.0365ZM72.0757 16.1589C72.0757 17.7915 70.6817 18.1997 69.9437 18.1997C69.3697 18.1997 68.4677 18.0364 68.4677 17.3018C68.4677 16.4038 69.5337 16.2406 70.1897 16.1589C71.3377 15.9957 71.2557 16.0773 72.0757 15.7508V16.1589Z" fill="#7A7878"/>
<path d="M75.2734 13.0569V11.4243H84.6216V13.0569H81.4235V19.5058H78.5535V13.0569H75.2734Z" fill="#7A7878"/>
<path d="M88.3152 10.5265H95.5313V8.40405H85.1172V19.5059H91.5133C94.6293 19.5059 96.5973 18.4447 96.5973 16.159C96.5973 12.5672 92.6613 12.4856 91.5133 12.4856H88.3152V10.5265ZM88.3152 14.6896H90.9393C91.6773 14.6896 93.2353 14.7713 93.2353 16.0774C93.2353 17.1386 92.0873 17.3018 90.8573 17.3018H88.3152V14.6896Z" fill="#7A7878"/>
<path d="M100.448 14.0365C100.448 12.8121 101.678 12.7304 102.252 12.7304C102.58 12.7304 103.81 12.7304 103.81 13.7916C103.81 13.8733 103.81 13.9549 103.81 14.0365C103.728 14.8528 102.99 14.6896 100.858 14.9345C99.136 15.1794 97.25 15.5875 97.25 17.465C97.25 18.1181 97.496 19.8323 100.612 19.8323C101.76 19.8323 103.072 19.5058 103.892 18.7711H103.974L104.22 19.5874H107.254V19.4242C106.68 19.3425 106.68 18.7711 106.68 17.8732L106.762 14.1998C106.762 13.3018 106.68 11.1794 102.334 11.1794C101.268 11.1794 97.906 11.2611 97.742 14.1182H100.448V14.0365ZM103.81 16.1589C103.81 17.7915 102.416 18.1997 101.678 18.1997C101.104 18.1997 100.202 18.0364 100.202 17.3018C100.202 16.4038 101.268 16.2406 101.924 16.1589C103.072 15.9957 102.99 16.0773 103.81 15.7508V16.1589Z" fill="#7A7878"/>
<path d="M110.87 19.5058H108V11.4243H110.87V14.4447H114.396V11.4243H117.266V19.5058H114.396V16.0773H110.87V19.5058Z" fill="#7A7878"/>
<path d="M124.634 11.4243H127.833L123.814 15.1793L127.997 19.5058H124.634L121.518 15.9957H121.436V19.5058H118.484V11.4243H121.436V14.6896H121.518L124.634 11.4243Z" fill="#7A7878"/>
<path d="M0 19.5059H7.29808V12.2407H0V19.5059Z" fill="#7A7878"/>
<path d="M14.8422 4.81224C14.8422 7.26116 14.8422 13.2202 14.8422 15.6692C14.1862 15.6692 14.0222 15.6692 13.3662 15.6692C12.7101 10.2815 9.34811 6.93464 3.93604 6.2816C3.93604 5.62855 3.93604 5.46528 3.93604 4.81224C6.39607 4.81224 12.3001 4.81224 14.8422 4.81224ZM0 0.975586V10.0366H1.88602C6.97008 10.0366 9.51211 12.5672 9.51211 17.6283V19.5058H18.6142V0.975586H0Z" fill="#7A7878"/>
</svg>
