<svg width="123" height="35" viewBox="0 0 123 35" fill="none" xmlns="http://www.w3.org/2000/svg">
<path fill-rule="evenodd" clip-rule="evenodd" d="M61.7885 2.58127C62.6512 1.09347 60.8034 -0.69605 59.3229 0.276742C54.8231 2.67491 52.3947 7.67412 52.1551 12.5329C52.1653 12.8244 52.158 13.1266 52.1507 13.4324C52.1236 14.5559 52.0953 15.7265 52.9326 16.5853C54.2905 17.5685 56.2928 16.2576 55.8615 14.6657C55.4834 11.2428 56.4153 7.59609 58.8756 5.05747C59.2958 4.60163 59.7947 4.23236 60.293 3.86347C60.8241 3.47039 61.3545 3.07774 61.7885 2.58127ZM68.7464 5.29685C68.837 3.99632 67.2873 3.35126 66.1956 3.82986C60.9875 5.28644 56.2853 10.5978 57.6485 16.1068C58.7296 16.5958 60.6786 16.6842 60.7265 15.0976C61.0354 12.1272 62.6277 9.18801 65.5246 7.93951C65.8442 7.73913 66.2522 7.58091 66.6698 7.4189C67.7486 7.00049 68.8923 6.55688 68.7464 5.29685ZM68.9362 9.27111C69.0391 9.25539 69.1435 9.23822 69.2491 9.22087C70.1212 9.07743 71.0678 8.92175 71.8279 9.47399C72.9515 10.1867 72.6746 12.3143 71.2208 12.4444C71.0868 12.4686 70.9505 12.4924 70.8126 12.5164C69.2024 12.797 67.3774 13.1151 66.5239 14.6293C66.3447 14.8791 66.2026 15.1762 66.0596 15.4749C65.7055 16.2149 65.3469 16.9644 64.4097 17.0274C63.2755 17.2355 62.3329 16.2107 62.4287 15.1443C63.0305 12.0906 65.8635 9.76531 68.9362 9.27111ZM14.5403 13.4171C10.4078 11.5808 5.3488 11.7108 1.43471 14.0049C0.659485 14.4746 0.845807 15.4018 1.00544 16.1962C1.0421 16.3786 1.07734 16.554 1.09922 16.7152C2.3347 17.2635 3.49531 16.8266 4.6648 16.3864C5.2596 16.1625 5.8567 15.9377 6.46711 15.8413C9.0765 15.2743 11.6859 15.9973 14.077 16.9909C15.4402 17.6984 17.2189 15.6852 16.1219 14.5252C15.8009 13.9993 15.2143 13.7285 14.6679 13.4762C14.625 13.4564 14.5824 13.4368 14.5403 13.4171ZM114.72 12.2519C116.115 11.7473 117.75 13.1779 117.319 14.6136C117.228 16.3875 114.507 16.8401 113.591 15.4512C112.872 14.3067 113.309 12.616 114.72 12.2519ZM122.585 16.1067C123.373 14.5981 121.675 12.7878 120.077 13.36C118.496 13.6825 118.187 15.7529 119.177 16.8142C120.2 17.6465 122.149 17.4748 122.585 16.1067ZM108.318 13.7086C110.001 12.3664 112.717 14.5305 111.465 16.3252C110.693 18.0939 107.636 17.4853 107.541 15.6281C107.413 14.8894 107.791 14.208 108.318 13.7086ZM16.2868 24.1959C15.2005 19.9718 10.1787 17.5009 6.00903 18.921C2.18547 20.1539 -0.429249 24.4977 0.811544 28.3316C1.67957 31.8118 5.30076 34.5429 9.00717 34.0903C11.2598 34.0071 11.5633 30.3292 9.39591 29.8506C7.57466 29.5957 5.23154 28.7686 5.29544 26.5941C4.83746 23.6653 9.12432 21.803 11.0201 24.1439C12.1345 25.6279 12.0517 27.4063 11.9684 29.1964C11.9048 30.5628 11.8409 31.936 12.3088 33.1904C13.3047 34.829 16.4253 34.288 16.5212 32.2852C16.5316 31.7577 16.5495 31.2275 16.5674 30.6958L16.5674 30.6957C16.6407 28.5215 16.7147 26.3235 16.2868 24.1959ZM20.371 18.8585C21.6171 18.2239 23.3265 18.6349 23.859 19.977C23.9816 20.8187 23.9844 21.6711 23.9872 22.5246C23.9888 23.0056 23.9904 23.487 24.0135 23.967C25.6962 24.0086 27.379 24.019 29.0565 23.941C29.0591 23.6211 29.0539 23.3 29.0488 22.9785C29.0326 21.9618 29.0163 20.9418 29.2429 19.9458C29.818 17.917 33.5351 18.1927 33.599 20.3932C33.7428 24.3572 33.7321 28.3368 33.6096 32.3008C33.583 34.5272 29.7914 34.8238 29.2322 32.7533C29.0032 31.7812 29.026 30.7862 29.0487 29.7938C29.0567 29.4479 29.0646 29.1023 29.0618 28.7581C27.379 28.6801 25.6962 28.6905 24.0135 28.7321C23.9329 29.2611 23.9582 29.831 23.9837 30.4036C24.0373 31.6103 24.0915 32.8287 23.1561 33.7001C21.7609 34.7405 19.4603 33.9446 19.3432 32.1499C19.2298 30.3402 19.2487 28.5251 19.2676 26.7089C19.2807 25.4551 19.2937 24.2008 19.2633 22.9474C19.2663 22.7498 19.2641 22.545 19.2618 22.3362C19.2481 21.0714 19.2328 19.6622 20.371 18.8585ZM37.2476 18.6038C35.4903 18.5101 34.4305 20.7782 35.4903 22.0684C36.2568 23.1915 37.5827 23.1234 38.8713 23.0572C39.409 23.0295 39.9402 23.0022 40.4215 23.062C40.4653 24.4649 40.4557 25.87 40.4461 27.2752V27.2753V27.2754V27.2755V27.2756C40.4347 28.9446 40.4233 30.6139 40.5014 32.2801C40.7197 34.5586 44.522 34.8343 45.0119 32.561C45.2624 30.8045 45.2324 29.0236 45.2023 27.241V27.2409V27.2409V27.2408V27.2408C45.1787 25.8399 45.155 24.4381 45.2675 23.0463C45.771 22.9886 46.3201 23.0203 46.8749 23.0524C48.1684 23.1272 49.4928 23.2037 50.3425 22.1516C51.2212 20.9551 50.6354 18.7338 48.9473 18.6402C45.0545 18.4841 41.1457 18.5205 37.2476 18.6038ZM56.1038 19.0043C60.412 17.3968 65.7958 20.0551 66.6479 24.5601C67.8301 28.7998 64.6296 33.5441 60.1564 34.0695C55.7736 34.9435 51.1566 31.5153 50.9329 27.1403C50.4643 23.6757 52.7276 20.1383 56.1038 19.0043ZM57.776 23.2856C55.55 23.9827 54.7033 27.0519 56.4979 28.6229C57.9783 30.298 60.9658 29.757 61.8551 27.7646C63.3356 25.4028 60.3374 22.1515 57.776 23.2856ZM73.4921 20.8771C73.7264 18.9055 70.9093 17.7922 69.562 19.1552C68.7699 19.9666 68.7799 21.1076 68.7894 22.1834V22.1836V22.1839C68.7917 22.4459 68.7939 22.7041 68.7845 22.9527C68.8164 23.7038 68.8012 24.46 68.7861 25.2166V25.2166C68.7557 26.7397 68.7252 28.2643 69.0774 29.7519C69.61 32.1916 71.9637 34.1164 74.5305 34.1164C75.5484 34.2068 76.4917 33.8825 77.4318 33.5593C77.8443 33.4175 78.2562 33.2759 78.6736 33.1696C80.5854 34.08 82.8753 34.5794 84.8776 33.6066C87.1674 32.587 88.5573 30.1056 88.3923 27.6814C88.3734 26.7331 88.3817 25.7841 88.39 24.8351C88.4028 23.3686 88.4156 21.9024 88.3284 20.4401C88.0248 18.2292 84.4409 17.8651 83.8285 20.0604C83.4882 21.6416 83.5364 23.2634 83.5847 24.8878C83.6264 26.2881 83.6681 27.6904 83.461 29.0704C82.79 29.8975 81.2297 29.7727 81.0114 28.6334C80.8868 27.2309 80.9103 25.8235 80.9337 24.4165C80.9584 22.9375 80.983 21.4591 80.8357 19.9875C80.0582 18.094 76.9109 18.0836 76.3678 20.1436C76.1143 21.6163 76.1522 23.1139 76.1903 24.6133C76.2281 26.1064 76.266 27.6013 76.0163 29.0756C75.6104 29.5217 75.0167 29.5736 74.4463 29.6234C74.3582 29.6311 74.2706 29.6388 74.1844 29.6478C73.2957 27.9703 73.4026 26.0859 73.5097 24.199C73.5733 23.0783 73.6369 21.9568 73.4921 20.8771ZM91.0375 20.3774C91.128 18.2498 94.7013 17.9012 95.3723 19.8468C95.6406 20.7747 95.641 21.7323 95.6414 22.6923V22.6923C95.6417 23.3899 95.642 24.0888 95.7451 24.7784C96.9752 23.9279 98.0096 22.8589 99.044 21.7899L99.0441 21.7898C100.079 20.7208 101.113 19.6517 102.343 18.8012C104.244 17.7191 106.561 19.9664 105.469 21.8236C104.787 22.8009 103.908 23.6097 103.027 24.4195C102.407 24.9889 101.787 25.5588 101.235 26.1882C101.628 27.1494 102.475 27.8823 103.333 28.624C104.373 29.5239 105.429 30.4367 105.703 31.7856C105.959 33.7 103.424 34.8809 101.97 33.6792C100.979 32.8791 100.087 31.9739 99.1946 31.069C98.1029 29.9615 97.0116 28.8545 95.7397 27.9413C95.6638 28.5886 95.6597 29.2433 95.6557 29.8976C95.6495 30.8943 95.6433 31.89 95.3829 32.8572C94.7279 34.8288 91.1014 34.4751 91.0322 32.3214C90.9363 28.3418 90.9363 24.357 91.0375 20.3774ZM121.014 21.3089C117.925 17.5581 111.205 17.6414 108.414 21.699C105.363 25.4913 106.998 31.7703 111.631 33.539C113.393 34.3297 116.722 34.7407 117.169 32.2645C117.579 30.4541 115.641 29.7206 114.182 29.4813C111.839 29.164 110.667 26.1728 112.195 24.4093C113.548 22.4429 116.828 22.7602 117.824 24.8879C118.325 26.2001 118.258 27.6093 118.191 29.0175C118.126 30.395 118.061 31.7715 118.527 33.0552C119.603 34.9695 122.526 34.1632 123 32.1916V30.4801C122.984 30.0013 122.979 29.512 122.974 29.0175C122.945 26.3049 122.915 23.4385 121.014 21.3089Z" fill="#7A7878"/>
</svg>
